<svg version="1.1" xmlns="http://www.w3.org/2000/svg" xmlns:xlink="http://www.w3.org/1999/xlink" width="1519" height="951"><defs/><g><g transform="translate(-454,-118) scale(1,1)"><path fill="#ffffff" stroke="none" d="M 827.4286374289773 561.6800000000001 C 827.4286374289773 556.8861679360001 831.3144797539227 553 836.10791015625 553 C 840.9013405585773 553 844.7871828835227 556.8861679360001 844.7871828835227 561.6800000000001 C 844.7871828835227 566.473832064 840.9013405585773 570.36 836.10791015625 570.36 C 831.3144797539227 570.36 827.4286374289773 566.473832064 827.4286374289773 561.6800000000001 Z"/></g><g transform="translate(-454,-118) scale(1,1)"><path fill="none" stroke="#000000" d="M 827.4286374289773 561.6800000000001 C 827.4286374289773 556.8861679360001 831.3144797539227 553 836.10791015625 553 C 840.9013405585773 553 844.7871828835227 556.8861679360001 844.7871828835227 561.6800000000001 C 844.7871828835227 566.473832064 840.9013405585773 570.36 836.10791015625 570.36 C 831.3144797539227 570.36 827.4286374289773 566.473832064 827.4286374289773 561.6800000000001 Z" stroke-miterlimit="10"/></g><g transform="translate(-454,-118) scale(1,1)"><path fill="none" stroke="#000000" d="M 836.10791015625 570.36 L 836.10791015625 587.64" stroke-miterlimit="10"/></g><g transform="translate(-454,-118) scale(1,1)"><path fill="none" stroke="#000000" d="M 826.9180919744318 576.84 L 845.2977283380682 576.84" stroke-miterlimit="10"/></g><g transform="translate(-454,-118) scale(1,1)"><path fill="none" stroke="#000000" d="M 836.10791015625 587.64 L 823.3442737926136 605" stroke-miterlimit="10"/></g><g transform="translate(-454,-118) scale(1,1)"><path fill="none" stroke="#000000" d="M 836.10791015625 587.64 L 848.8715465198864 605" stroke-miterlimit="10"/></g><g transform="translate(-454,-118) scale(1,1)"><g><path fill="none" stroke="none"/><text fill="#000000" stroke="none" font-family="Roboto" font-size="14px" font-style="normal" font-weight="bold" text-decoration="none" x="812.59228515625" y="626.5">Đọc giả</text></g></g><g transform="translate(-454,-118) scale(1,1)"><path fill="#ffffff" stroke="none" d="M 1484.4506100852273 585.6800000000001 C 1484.4506100852273 580.8861679360001 1488.3364524101728 577 1493.1298828125 577 C 1497.9233132148272 577 1501.8091555397727 580.8861679360001 1501.8091555397727 585.6800000000001 C 1501.8091555397727 590.473832064 1497.9233132148272 594.36 1493.1298828125 594.36 C 1488.3364524101728 594.36 1484.4506100852273 590.473832064 1484.4506100852273 585.6800000000001 Z"/></g><g transform="translate(-454,-118) scale(1,1)"><path fill="none" stroke="#000000" d="M 1484.4506100852273 585.6800000000001 C 1484.4506100852273 580.8861679360001 1488.3364524101728 577 1493.1298828125 577 C 1497.9233132148272 577 1501.8091555397727 580.8861679360001 1501.8091555397727 585.6800000000001 C 1501.8091555397727 590.473832064 1497.9233132148272 594.36 1493.1298828125 594.36 C 1488.3364524101728 594.36 1484.4506100852273 590.473832064 1484.4506100852273 585.6800000000001 Z" stroke-miterlimit="10"/></g><g transform="translate(-454,-118) scale(1,1)"><path fill="none" stroke="#000000" d="M 1493.1298828125 594.36 L 1493.1298828125 611.64" stroke-miterlimit="10"/></g><g transform="translate(-454,-118) scale(1,1)"><path fill="none" stroke="#000000" d="M 1483.9400646306817 600.84 L 1502.3197009943183 600.84" stroke-miterlimit="10"/></g><g transform="translate(-454,-118) scale(1,1)"><path fill="none" stroke="#000000" d="M 1493.1298828125 611.64 L 1480.3662464488636 629" stroke-miterlimit="10"/></g><g transform="translate(-454,-118) scale(1,1)"><path fill="none" stroke="#000000" d="M 1493.1298828125 611.64 L 1505.8935191761364 629" stroke-miterlimit="10"/></g><g transform="translate(-454,-118) scale(1,1)"><g><path fill="none" stroke="none"/><text fill="#000000" stroke="none" font-family="Roboto" font-size="14px" font-style="normal" font-weight="bold" text-decoration="none" x="1469.033203125" y="650.5">Thủ thư</text></g></g><g transform="translate(-454,-118) scale(1,1)"><path fill="#ffffff" stroke="none" d="M 1392.4496335227273 953.6800000000001 C 1392.4496335227273 948.8861679360001 1396.3354758476728 945 1401.12890625 945 C 1405.9223366523272 945 1409.8081789772727 948.8861679360001 1409.8081789772727 953.6800000000001 C 1409.8081789772727 958.473832064 1405.9223366523272 962.36 1401.12890625 962.36 C 1396.3354758476728 962.36 1392.4496335227273 958.473832064 1392.4496335227273 953.6800000000001 Z"/></g><g transform="translate(-454,-118) scale(1,1)"><path fill="none" stroke="#000000" d="M 1392.4496335227273 953.6800000000001 C 1392.4496335227273 948.8861679360001 1396.3354758476728 945 1401.12890625 945 C 1405.9223366523272 945 1409.8081789772727 948.8861679360001 1409.8081789772727 953.6800000000001 C 1409.8081789772727 958.473832064 1405.9223366523272 962.36 1401.12890625 962.36 C 1396.3354758476728 962.36 1392.4496335227273 958.473832064 1392.4496335227273 953.6800000000001 Z" stroke-miterlimit="10"/></g><g transform="translate(-454,-118) scale(1,1)"><path fill="none" stroke="#000000" d="M 1401.12890625 962.36 L 1401.12890625 979.64" stroke-miterlimit="10"/></g><g transform="translate(-454,-118) scale(1,1)"><path fill="none" stroke="#000000" d="M 1391.9390880681817 968.84 L 1410.3187244318183 968.84" stroke-miterlimit="10"/></g><g transform="translate(-454,-118) scale(1,1)"><path fill="none" stroke="#000000" d="M 1401.12890625 979.64 L 1388.3652698863636 997" stroke-miterlimit="10"/></g><g transform="translate(-454,-118) scale(1,1)"><path fill="none" stroke="#000000" d="M 1401.12890625 979.64 L 1413.8925426136364 997" stroke-miterlimit="10"/></g><g transform="translate(-454,-118) scale(1,1)"><g><path fill="none" stroke="none"/><text fill="#000000" stroke="none" font-family="Roboto" font-size="14px" font-style="normal" font-weight="bold" text-decoration="none" x="1372.7734375" y="1018.5">Hệ thống</text></g></g><g transform="translate(-454,-118) scale(1,1)"><path fill="#ffeaad" stroke="none" d="M 1104 825.5 C 1104 815.835016 1126.8334752 808 1155 808 C 1183.1665248 808 1206 815.835016 1206 825.5 C 1206 835.164984 1183.1665248 843 1155 843 C 1126.8334752 843 1104 835.164984 1104 825.5 Z"/></g><g transform="translate(-454,-118) scale(1,1)"><path fill="none" stroke="#000000" d="M 1104 825.5 C 1104 815.835016 1126.8334752 808 1155 808 C 1183.1665248 808 1206 815.835016 1206 825.5 C 1206 835.164984 1183.1665248 843 1155 843 C 1126.8334752 843 1104 835.164984 1104 825.5 Z" stroke-miterlimit="10"/></g><g transform="translate(-454,-118) scale(1,1)"><g><path fill="none" stroke="none"/><text fill="#000000" stroke="none" font-family="Roboto" font-size="14px" font-style="normal" font-weight="bold" text-decoration="none" x="1123.5546875" y="833">Đăng xuất</text></g></g><g transform="translate(-454,-118) scale(1,1)"><path fill="#ffeaad" stroke="none" d="M 1088 337.5 C 1088 327.835016 1110.8334752 320 1139 320 C 1167.1665248 320 1190 327.835016 1190 337.5 C 1190 347.164984 1167.1665248 355 1139 355 C 1110.8334752 355 1088 347.164984 1088 337.5 Z"/></g><g transform="translate(-454,-118) scale(1,1)"><path fill="none" stroke="#000000" d="M 1088 337.5 C 1088 327.835016 1110.8334752 320 1139 320 C 1167.1665248 320 1190 327.835016 1190 337.5 C 1190 347.164984 1167.1665248 355 1139 355 C 1110.8334752 355 1088 347.164984 1088 337.5 Z" stroke-miterlimit="10"/></g><g transform="translate(-454,-118) scale(1,1)"><g><path fill="none" stroke="none"/><text fill="#000000" stroke="none" font-family="Roboto" font-size="14px" font-style="normal" font-weight="bold" text-decoration="none" x="1110.2890625" y="345">Tìm sách</text></g></g><g transform="translate(-454,-118) scale(1,1)"><path fill="#ffeaad" stroke="none" d="M 1048 1041.5 C 1048 1031.835016 1098.1441024 1024 1160 1024 C 1221.8558976 1024 1272 1031.835016 1272 1041.5 C 1272 1051.164984 1221.8558976 1059 1160 1059 C 1098.1441024 1059 1048 1051.164984 1048 1041.5 Z"/></g><g transform="translate(-454,-118) scale(1,1)"><path fill="none" stroke="#000000" d="M 1048 1041.5 C 1048 1031.835016 1098.1441024 1024 1160 1024 C 1221.8558976 1024 1272 1031.835016 1272 1041.5 C 1272 1051.164984 1221.8558976 1059 1160 1059 C 1098.1441024 1059 1048 1051.164984 1048 1041.5 Z" stroke-miterlimit="10"/></g><g transform="translate(-454,-118) scale(1,1)"><g><path fill="none" stroke="none"/><text fill="#000000" stroke="none" font-family="Roboto" font-size="14px" font-style="normal" font-weight="bold" text-decoration="none" x="1086.294921875" y="1049">Xem thông tin tài khoản</text></g></g><g transform="translate(-454,-118) scale(1,1)"><path fill="none" stroke="#000000" d="M 865 607 L 1115 735" stroke-miterlimit="10"/></g><g transform="translate(-454,-118) scale(1,1)"><path fill="none" stroke="#000000" d="M 1104.0356242344337 734.1154300075962 L 1115 735 L 1107.8725009847535 726.6215301046277" stroke-miterlimit="10"/></g><g transform="translate(-454,-118) scale(1,1)"><path fill="none" stroke="#000000" d="M 1463 628 L 1195 735" stroke-miterlimit="10"/></g><g transform="translate(-454,-118) scale(1,1)"><path fill="none" stroke="#000000" d="M 1202.877373307001 727.3223056988347 L 1195 735 L 1205.9990937875498 735.1411943790871" stroke-miterlimit="10"/></g><g transform="translate(-454,-118) scale(1,1)"><path fill="none" stroke="#000000" d="M 865 613 L 1130 807" stroke-miterlimit="10"/></g><g transform="translate(-454,-118) scale(1,1)"><path fill="none" stroke="#000000" d="M 1119.3132754626602 804.3934853418755 L 1130 807 L 1124.2864288009964 797.6002604209523" stroke-miterlimit="10"/></g><g transform="translate(-454,-118) scale(1,1)"><path fill="none" stroke="#000000" d="M 1463 635 L 1184 807" stroke-miterlimit="10"/></g><g transform="translate(-454,-118) scale(1,1)"><path fill="none" stroke="#000000" d="M 1190.4418023171693 798.0835442631889 L 1184 807 L 1194.8599284171826 805.2501557858847" stroke-miterlimit="10"/></g><g transform="translate(-454,-118) scale(1,1)"><path fill="none" stroke="#000000" d="M 865 619 L 1141 871" stroke-miterlimit="10"/></g><g transform="translate(-454,-118) scale(1,1)"><path fill="none" stroke="#000000" d="M 1130.656663177951 867.2562874862449 L 1141 871 L 1136.3333608983219 861.0389518877435" stroke-miterlimit="10"/></g><g transform="translate(-454,-118) scale(1,1)"><path fill="none" stroke="#000000" d="M 1463 641 L 1183 871" stroke-miterlimit="10"/></g><g transform="translate(-454,-118) scale(1,1)"><path fill="none" stroke="#000000" d="M 1188.1810188056124 861.2965447321126 L 1183 871 L 1193.524912551767 867.80215451004" stroke-miterlimit="10"/></g><g transform="translate(-454,-118) scale(1,1)"><path fill="none" stroke="#000000" d="M 865 567 L 1116 356" stroke-miterlimit="10"/></g><g transform="translate(-454,-118) scale(1,1)"><path fill="none" stroke="#000000" d="M 1110.9295657631808 365.76169537785785 L 1116 356 L 1105.512100570024 359.31722256514536" stroke-miterlimit="10"/></g><g transform="translate(-454,-118) scale(1,1)"><path fill="none" stroke="#000000" d="M 1463 592 L 1163 356" stroke-miterlimit="10"/></g><g transform="translate(-454,-118) scale(1,1)"><path fill="none" stroke="#000000" d="M 1173.5900792494986 358.97493218230926 L 1163 356 L 1168.3847221309425 365.5919115703044" stroke-miterlimit="10"/></g><g transform="translate(-454,-118) scale(1,1)"><path fill="none" stroke="#000000" d="M 865 626 L 1139 943" stroke-miterlimit="10"/></g><g transform="translate(-454,-118) scale(1,1)"><path fill="none" stroke="#000000" d="M 1129.1695868336512 938.0641133543328 L 1139 943 L 1135.5390471065286 932.5586492698899" stroke-miterlimit="10"/></g><g transform="translate(-454,-118) scale(1,1)"><path fill="none" stroke="#000000" d="M 1463 647 L 1173 943" stroke-miterlimit="10"/></g><g transform="translate(-454,-118) scale(1,1)"><path fill="none" stroke="#000000" d="M 1177.1052478829695 932.7947591983641 L 1173 943 L 1183.1190435909778 938.6866536420209" stroke-miterlimit="10"/></g><g transform="translate(-454,-118) scale(1,1)"><path fill="none" stroke="#000000" d="M 865 632 L 1147 1023" stroke-miterlimit="10"/></g><g transform="translate(-454,-118) scale(1,1)"><path fill="none" stroke="#000000" d="M 1137.6410592594216 1017.2198418521341 L 1147 1023 L 1144.4694185603005 1012.2950405149272" stroke-miterlimit="10"/></g><g transform="translate(-454,-118) scale(1,1)"><path fill="none" stroke="#000000" d="M 1463 654 L 1174 1023" stroke-miterlimit="10"/></g><g transform="translate(-454,-118) scale(1,1)"><path fill="none" stroke="#000000" d="M 1176.9521948088727 1012.4035597576136 L 1174 1023 L 1183.580331720567 1017.5947022169081" stroke-miterlimit="10"/></g><g transform="translate(-454,-118) scale(1,1)"><path fill="#ffeaad" stroke="none" d="M 1072 961.5 C 1072 951.835016 1109.1603616 944 1155 944 C 1200.8396384 944 1238 951.835016 1238 961.5 C 1238 971.164984 1200.8396384 979 1155 979 C 1109.1603616 979 1072 971.164984 1072 961.5 Z"/></g><g transform="translate(-454,-118) scale(1,1)"><path fill="none" stroke="#000000" d="M 1072 961.5 C 1072 951.835016 1109.1603616 944 1155 944 C 1200.8396384 944 1238 951.835016 1238 961.5 C 1238 971.164984 1200.8396384 979 1155 979 C 1109.1603616 979 1072 971.164984 1072 961.5 Z" stroke-miterlimit="10"/></g><g transform="translate(-454,-118) scale(1,1)"><g><path fill="none" stroke="none"/><text fill="#000000" stroke="none" font-family="Roboto" font-size="14px" font-style="normal" font-weight="bold" text-decoration="none" x="1101.5224609375" y="969">Xem chi tiết sách</text></g></g><g transform="translate(-454,-118) scale(1,1)"><path fill="#ffeaad" stroke="none" d="M 872 281.5 C 872 271.835016 899.9822 264 934.5 264 C 969.0178 264 997 271.835016 997 281.5 C 997 291.164984 969.0178 299 934.5 299 C 899.9822 299 872 291.164984 872 281.5 Z"/></g><g transform="translate(-454,-118) scale(1,1)"><path fill="none" stroke="#000000" d="M 872 281.5 C 872 271.835016 899.9822 264 934.5 264 C 969.0178 264 997 271.835016 997 281.5 C 997 291.164984 969.0178 299 934.5 299 C 899.9822 299 872 291.164984 872 281.5 Z" stroke-miterlimit="10"/></g><g transform="translate(-454,-118) scale(1,1)"><g><path fill="none" stroke="none"/><text fill="#000000" stroke="none" font-family="Roboto" font-size="14px" font-style="normal" font-weight="bold" text-decoration="none" x="895.29248046875" y="289">Tìm theo tên</text></g></g><g transform="translate(-454,-118) scale(1,1)"><path fill="#ffeaad" stroke="none" d="M 1056 185.5 C 1056 175.835016 1091.1456432 168 1134.5 168 C 1177.8543568 168 1213 175.835016 1213 185.5 C 1213 195.164984 1177.8543568 203 1134.5 203 C 1091.1456432 203 1056 195.164984 1056 185.5 Z"/></g><g transform="translate(-454,-118) scale(1,1)"><path fill="none" stroke="#000000" d="M 1056 185.5 C 1056 175.835016 1091.1456432 168 1134.5 168 C 1177.8543568 168 1213 175.835016 1213 185.5 C 1213 195.164984 1177.8543568 203 1134.5 203 C 1091.1456432 203 1056 195.164984 1056 185.5 Z" stroke-miterlimit="10"/></g><g transform="translate(-454,-118) scale(1,1)"><g><path fill="none" stroke="none"/><text fill="#000000" stroke="none" font-family="Roboto" font-size="14px" font-style="normal" font-weight="bold" text-decoration="none" x="1084.22509765625" y="193">Tìm theo tác giả</text></g></g><g transform="translate(-454,-118) scale(1,1)"><path fill="#ffeaad" stroke="none" d="M 1248 265.5 C 1248 255.835016 1284.4887888 248 1329.5 248 C 1374.5112112 248 1411 255.835016 1411 265.5 C 1411 275.164984 1374.5112112 283 1329.5 283 C 1284.4887888 283 1248 275.164984 1248 265.5 Z"/></g><g transform="translate(-454,-118) scale(1,1)"><path fill="none" stroke="#000000" d="M 1248 265.5 C 1248 255.835016 1284.4887888 248 1329.5 248 C 1374.5112112 248 1411 255.835016 1411 265.5 C 1411 275.164984 1374.5112112 283 1329.5 283 C 1284.4887888 283 1248 275.164984 1248 265.5 Z" stroke-miterlimit="10"/></g><g transform="translate(-454,-118) scale(1,1)"><g><path fill="none" stroke="none"/><text fill="#000000" stroke="none" font-family="Roboto" font-size="14px" font-style="normal" font-weight="bold" text-decoration="none" x="1277.369140625" y="273">Tìm theo thể loại</text></g></g><g transform="translate(-454,-118) scale(1,1)"><path fill="#ffeaad" stroke="none" d="M 864 201.5 C 864 191.835016 911.2339536 184 969.5 184 C 1027.7660464 184 1075 191.835016 1075 201.5 C 1075 211.164984 1027.7660464 219 969.5 219 C 911.2339536 219 864 211.164984 864 201.5 Z"/></g><g transform="translate(-454,-118) scale(1,1)"><path fill="none" stroke="#000000" d="M 864 201.5 C 864 191.835016 911.2339536 184 969.5 184 C 1027.7660464 184 1075 191.835016 1075 201.5 C 1075 211.164984 1027.7660464 219 969.5 219 C 911.2339536 219 864 211.164984 864 201.5 Z" stroke-miterlimit="10"/></g><g transform="translate(-454,-118) scale(1,1)"><g><path fill="none" stroke="none"/><text fill="#000000" stroke="none" font-family="Roboto" font-size="14px" font-style="normal" font-weight="bold" text-decoration="none" x="900.13916015625" y="209">Tìm theo nhà xuất bản</text></g></g><g transform="translate(-454,-118) scale(1,1)"><path fill="#ffeaad" stroke="none" d="M 1256 353.5 C 1256 343.835016 1304.5770992 336 1364.5 336 C 1424.4229008 336 1473 343.835016 1473 353.5 C 1473 363.164984 1424.4229008 371 1364.5 371 C 1304.5770992 371 1256 363.164984 1256 353.5 Z"/></g><g transform="translate(-454,-118) scale(1,1)"><path fill="none" stroke="#000000" d="M 1256 353.5 C 1256 343.835016 1304.5770992 336 1364.5 336 C 1424.4229008 336 1473 343.835016 1473 353.5 C 1473 363.164984 1424.4229008 371 1364.5 371 C 1304.5770992 371 1256 363.164984 1256 353.5 Z" stroke-miterlimit="10"/></g><g transform="translate(-454,-118) scale(1,1)"><g><path fill="none" stroke="none"/><text fill="#000000" stroke="none" font-family="Roboto" font-size="14px" font-style="normal" font-weight="bold" text-decoration="none" x="1292.859375" y="361">Tìm theo năm xuất bản</text></g></g><g transform="translate(-454,-118) scale(1,1)"><path fill="#ffeaad" stroke="none" d="M 1184 145.5 C 1184 135.835016 1215.7877792 128 1255 128 C 1294.2122208 128 1326 135.835016 1326 145.5 C 1326 155.164984 1294.2122208 163 1255 163 C 1215.7877792 163 1184 155.164984 1184 145.5 Z"/></g><g transform="translate(-454,-118) scale(1,1)"><path fill="none" stroke="#000000" d="M 1184 145.5 C 1184 135.835016 1215.7877792 128 1255 128 C 1294.2122208 128 1326 135.835016 1326 145.5 C 1326 155.164984 1294.2122208 163 1255 163 C 1215.7877792 163 1184 155.164984 1184 145.5 Z" stroke-miterlimit="10"/></g><g transform="translate(-454,-118) scale(1,1)"><g><path fill="none" stroke="none"/><text fill="#000000" stroke="none" font-family="Roboto" font-size="14px" font-style="normal" font-weight="bold" text-decoration="none" x="1210.2451171875" y="153">Tìm theo ISBN</text></g></g><g transform="translate(-454,-118) scale(1,1)"><path fill="none" stroke="#000000" d="M 998 298 L 1087 323" stroke-miterlimit="10" stroke-dasharray="3"/></g><g transform="translate(-454,-118) scale(1,1)"><path fill="none" stroke="#000000" d="M 1076.0776070574593 324.30435133638764 L 1087 323 L 1078.354386208536 316.19901755855483" stroke-miterlimit="10"/></g><g transform="translate(-454,-118) scale(1,1)"><g><path fill="none" stroke="none"/><text fill="#000000" stroke="none" font-family="Roboto" font-size="14px" font-style="normal" font-weight="normal" text-decoration="none" x="1022.5" y="287.5">«extend»</text></g></g><g transform="translate(-454,-118) scale(1,1)"><path fill="none" stroke="#000000" d="M 993 220 L 1117 319" stroke-miterlimit="10" stroke-dasharray="3"/></g><g transform="translate(-454,-118) scale(1,1)"><path fill="none" stroke="#000000" d="M 1106.4316111283972 315.94890893964407 L 1117 319 L 1111.6844677414686 309.36957338387793" stroke-miterlimit="10"/></g><g transform="translate(-454,-118) scale(1,1)"><g><path fill="none" stroke="none"/><text fill="#000000" stroke="none" font-family="Roboto" font-size="14px" font-style="normal" font-weight="normal" text-decoration="none" x="1045.5" y="251.5">«extend»</text></g></g><g transform="translate(-454,-118) scale(1,1)"><path fill="none" stroke="#000000" d="M 1135 204 L 1138 319" stroke-miterlimit="10" stroke-dasharray="3"/></g><g transform="translate(-454,-118) scale(1,1)"><path fill="none" stroke="#000000" d="M 1133.5268907689165 308.95055753751507 L 1138 319 L 1141.9430630420798 308.73100521734557" stroke-miterlimit="10"/></g><g transform="translate(-454,-118) scale(1,1)"><g><path fill="none" stroke="none"/><text fill="#000000" stroke="none" font-family="Roboto" font-size="14px" font-style="normal" font-weight="normal" text-decoration="none" x="1137.5" y="265.5">«extend»</text></g></g><g transform="translate(-454,-118) scale(1,1)"><path fill="none" stroke="#000000" d="M 1244 164 L 1150 319" stroke-miterlimit="10" stroke-dasharray="3"/></g><g transform="translate(-454,-118) scale(1,1)"><path fill="none" stroke="#000000" d="M 1151.6704700564594 308.12757939599135 L 1150 319 L 1158.8691630416984 312.4932383676846" stroke-miterlimit="10"/></g><g transform="translate(-454,-118) scale(1,1)"><g><path fill="none" stroke="none"/><text fill="#000000" stroke="none" font-family="Roboto" font-size="14px" font-style="normal" font-weight="normal" text-decoration="none" x="1194.5" y="262.5">«extend»</text></g></g><g transform="translate(-454,-118) scale(1,1)"><path fill="none" stroke="#000000" d="M 1279 284 L 1187 319" stroke-miterlimit="10" stroke-dasharray="3"/></g><g transform="translate(-454,-118) scale(1,1)"><path fill="none" stroke="#000000" d="M 1195.0017394657134 311.45200917310814 L 1187 319 L 1197.995319735523 319.3208487394649" stroke-miterlimit="10"/></g><g transform="translate(-454,-118) scale(1,1)"><g><path fill="none" stroke="none"/><text fill="#000000" stroke="none" font-family="Roboto" font-size="14px" font-style="normal" font-weight="normal" text-decoration="none" x="1215.5" y="334.5">«extend»</text></g></g><g transform="translate(-454,-118) scale(1,1)"><path fill="none" stroke="#000000" d="M 1255 345 L 1191 341" stroke-miterlimit="10" stroke-dasharray="3"/></g><g transform="translate(-454,-118) scale(1,1)"><path fill="none" stroke="#000000" d="M 1201.4054663490951 337.4326101898097 L 1191 341 L 1200.8803013427748 345.8352502909322" stroke-miterlimit="10"/></g><g transform="translate(-454,-118) scale(1,1)"><g><path fill="none" stroke="none"/><text fill="#000000" stroke="none" font-family="Roboto" font-size="14px" font-style="normal" font-weight="normal" text-decoration="none" x="1193.5" y="378.5">«extend»</text></g></g><g transform="translate(-454,-118) scale(1,1)"><path fill="#ffeaad" stroke="none" d="M 1080 425.5 C 1080 415.835016 1105.0720512 408 1136 408 C 1166.9279488 408 1192 415.835016 1192 425.5 C 1192 435.164984 1166.9279488 443 1136 443 C 1105.0720512 443 1080 435.164984 1080 425.5 Z"/></g><g transform="translate(-454,-118) scale(1,1)"><path fill="none" stroke="#000000" d="M 1080 425.5 C 1080 415.835016 1105.0720512 408 1136 408 C 1166.9279488 408 1192 415.835016 1192 425.5 C 1192 435.164984 1166.9279488 443 1136 443 C 1105.0720512 443 1080 435.164984 1080 425.5 Z" stroke-miterlimit="10"/></g><g transform="translate(-454,-118) scale(1,1)"><g><path fill="none" stroke="none"/><text fill="#000000" stroke="none" font-family="Roboto" font-size="14px" font-style="normal" font-weight="bold" text-decoration="none" x="1101.02734375" y="433">Mượn sách</text></g></g><g transform="translate(-454,-118) scale(1,1)"><path fill="none" stroke="#000000" d="M 1137 407 L 1138 356" stroke-miterlimit="10" stroke-dasharray="3"/></g><g transform="translate(-454,-118) scale(1,1)"><path fill="none" stroke="#000000" d="M 1142.0094789384243 366.24324551313356 L 1138 356 L 1133.592061382689 366.07819811007994" stroke-miterlimit="10"/></g><g transform="translate(-454,-118) scale(1,1)"><g><path fill="none" stroke="none"/><text fill="#000000" stroke="none" font-family="Roboto" font-size="14px" font-style="normal" font-weight="normal" text-decoration="none" x="1077.5" y="385.5">«include»</text></g></g><g transform="translate(-454,-118) scale(1,1)"><path fill="none" stroke="#000000" d="M 865 576 L 1102 444" stroke-miterlimit="10"/></g><g transform="translate(-454,-118) scale(1,1)"><path fill="none" stroke="#000000" d="M 1095.169804028646 452.6225531597608 L 1102 444 L 1091.0732563014142 445.2673879222309" stroke-miterlimit="10"/></g><g transform="translate(-454,-118) scale(1,1)"><path fill="#ffeaad" stroke="none" d="M 1096 889.5 C 1096 879.835016 1125.101488 872 1161 872 C 1196.898512 872 1226 879.835016 1226 889.5 C 1226 899.164984 1196.898512 907 1161 907 C 1125.101488 907 1096 899.164984 1096 889.5 Z"/></g><g transform="translate(-454,-118) scale(1,1)"><path fill="none" stroke="#000000" d="M 1096 889.5 C 1096 879.835016 1125.101488 872 1161 872 C 1196.898512 872 1226 879.835016 1226 889.5 C 1226 899.164984 1196.898512 907 1161 907 C 1125.101488 907 1096 899.164984 1096 889.5 Z" stroke-miterlimit="10"/></g><g transform="translate(-454,-118) scale(1,1)"><g><path fill="none" stroke="none"/><text fill="#000000" stroke="none" font-family="Roboto" font-size="14px" font-style="normal" font-weight="bold" text-decoration="none" x="1119.85107421875" y="897">Đổi mật khẩu</text></g></g><g transform="translate(-454,-118) scale(1,1)"><path fill="#ffeaad" stroke="none" d="M 1096 753.5 C 1096 743.835016 1120.1766208 736 1150 736 C 1179.8233792 736 1204 743.835016 1204 753.5 C 1204 763.164984 1179.8233792 771 1150 771 C 1120.1766208 771 1096 763.164984 1096 753.5 Z"/></g><g transform="translate(-454,-118) scale(1,1)"><path fill="none" stroke="#000000" d="M 1096 753.5 C 1096 743.835016 1120.1766208 736 1150 736 C 1179.8233792 736 1204 743.835016 1204 753.5 C 1204 763.164984 1179.8233792 771 1150 771 C 1120.1766208 771 1096 763.164984 1096 753.5 Z" stroke-miterlimit="10"/></g><g transform="translate(-454,-118) scale(1,1)"><g><path fill="none" stroke="none"/><text fill="#000000" stroke="none" font-family="Roboto" font-size="14px" font-style="normal" font-weight="bold" text-decoration="none" x="1116.5244140625" y="761">Đăng nhập</text></g></g><g transform="translate(-454,-118) scale(1,1)"><path fill="#ffeaad" stroke="none" d="M 1096 665.5 C 1096 655.835016 1118.8334752 648 1147 648 C 1175.1665248 648 1198 655.835016 1198 665.5 C 1198 675.164984 1175.1665248 683 1147 683 C 1118.8334752 683 1096 675.164984 1096 665.5 Z"/></g><g transform="translate(-454,-118) scale(1,1)"><path fill="none" stroke="#000000" d="M 1096 665.5 C 1096 655.835016 1118.8334752 648 1147 648 C 1175.1665248 648 1198 655.835016 1198 665.5 C 1198 675.164984 1175.1665248 683 1147 683 C 1118.8334752 683 1096 675.164984 1096 665.5 Z" stroke-miterlimit="10"/></g><g transform="translate(-454,-118) scale(1,1)"><g><path fill="none" stroke="none"/><text fill="#000000" stroke="none" font-family="Roboto" font-size="14px" font-style="normal" font-weight="bold" text-decoration="none" x="1120.37060546875" y="673">Trả sách</text></g></g><g transform="translate(-454,-118) scale(1,1)"><path fill="#ffeaad" stroke="none" d="M 1072 497.5 C 1072 487.835016 1100.4299152 480 1135.5 480 C 1170.5700848 480 1199 487.835016 1199 497.5 C 1199 507.164984 1170.5700848 515 1135.5 515 C 1100.4299152 515 1072 507.164984 1072 497.5 Z"/></g><g transform="translate(-454,-118) scale(1,1)"><path fill="none" stroke="#000000" d="M 1072 497.5 C 1072 487.835016 1100.4299152 480 1135.5 480 C 1170.5700848 480 1199 487.835016 1199 497.5 C 1199 507.164984 1170.5700848 515 1135.5 515 C 1100.4299152 515 1072 507.164984 1072 497.5 Z" stroke-miterlimit="10"/></g><g transform="translate(-454,-118) scale(1,1)"><g><path fill="none" stroke="none"/><text fill="#000000" stroke="none" font-family="Roboto" font-size="14px" font-style="normal" font-weight="bold" text-decoration="none" x="1095.2978515625" y="505">Gia hạn sách</text></g></g><g transform="translate(-454,-118) scale(1,1)"><path fill="#ffeaad" stroke="none" d="M 672 457.5 C 672 447.835016 730.8745488 440 803.5 440 C 876.1254512 440 935 447.835016 935 457.5 C 935 467.164984 876.1254512 475 803.5 475 C 730.8745488 475 672 467.164984 672 457.5 Z"/></g><g transform="translate(-454,-118) scale(1,1)"><path fill="none" stroke="#000000" d="M 672 457.5 C 672 447.835016 730.8745488 440 803.5 440 C 876.1254512 440 935 447.835016 935 457.5 C 935 467.164984 876.1254512 475 803.5 475 C 730.8745488 475 672 467.164984 672 457.5 Z" stroke-miterlimit="10"/></g><g transform="translate(-454,-118) scale(1,1)"><g><path fill="none" stroke="none"/><text fill="#000000" stroke="none" font-family="Roboto" font-size="14px" font-style="normal" font-weight="bold" text-decoration="none" x="716.1025390625" y="465">Cập nhật thông tin tài khoản</text></g></g><g transform="translate(-454,-118) scale(1,1)"><path fill="#ffeaad" stroke="none" d="M 464 569.5 C 464 559.835016 530.4857072 552 612.5 552 C 694.5142928 552 761 559.835016 761 569.5 C 761 579.164984 694.5142928 587 612.5 587 C 530.4857072 587 464 579.164984 464 569.5 Z"/></g><g transform="translate(-454,-118) scale(1,1)"><path fill="none" stroke="#000000" d="M 464 569.5 C 464 559.835016 530.4857072 552 612.5 552 C 694.5142928 552 761 559.835016 761 569.5 C 761 579.164984 694.5142928 587 612.5 587 C 530.4857072 587 464 579.164984 464 569.5 Z" stroke-miterlimit="10"/></g><g transform="translate(-454,-118) scale(1,1)"><g><path fill="none" stroke="none"/><text fill="#000000" stroke="none" font-family="Roboto" font-size="14px" font-style="normal" font-weight="bold" text-decoration="none" x="512.93115234375" y="577">Xem tình trạng sách đang mượn</text></g></g><g transform="translate(-454,-118) scale(1,1)"><path fill="#ffeaad" stroke="none" d="M 656 721.5 C 656 711.835016 705.4725296 704 766.5 704 C 827.5274704 704 877 711.835016 877 721.5 C 877 731.164984 827.5274704 739 766.5 739 C 705.4725296 739 656 731.164984 656 721.5 Z"/></g><g transform="translate(-454,-118) scale(1,1)"><path fill="none" stroke="#000000" d="M 656 721.5 C 656 711.835016 705.4725296 704 766.5 704 C 827.5274704 704 877 711.835016 877 721.5 C 877 731.164984 827.5274704 739 766.5 739 C 705.4725296 739 656 731.164984 656 721.5 Z" stroke-miterlimit="10"/></g><g transform="translate(-454,-118) scale(1,1)"><g><path fill="none" stroke="none"/><text fill="#000000" stroke="none" font-family="Roboto" font-size="14px" font-style="normal" font-weight="bold" text-decoration="none" x="693.30419921875" y="729">Xem lịch sử mượn sách</text></g></g><g transform="translate(-454,-118) scale(1,1)"><path fill="none" stroke="#000000" d="M 814 633 L 776 703" stroke-miterlimit="10"/></g><g transform="translate(-454,-118) scale(1,1)"><path fill="none" stroke="#000000" d="M 777.1489803543816 692.0601716583283 L 776 703 L 784.5480786054462 696.0768249946204" stroke-miterlimit="10"/></g><g transform="translate(-454,-118) scale(1,1)"><path fill="none" stroke="#000000" d="M 807 589 L 762 584" stroke-miterlimit="10"/></g><g transform="translate(-454,-118) scale(1,1)"><path fill="none" stroke="#000000" d="M 772.5653807116051 580.9385084650058 L 762 584 L 771.6356537719332 589.3060509220539" stroke-miterlimit="10"/></g><g transform="translate(-454,-118) scale(1,1)"><path fill="none" stroke="#000000" d="M 826 551 L 808 476" stroke-miterlimit="10"/></g><g transform="translate(-454,-118) scale(1,1)"><path fill="none" stroke="#000000" d="M 814.464975049982 484.89966839849166 L 808 476 L 806.278411823159 486.86444357292913" stroke-miterlimit="10"/></g><g transform="translate(-454,-118) scale(1,1)"><path fill="none" stroke="#000000" d="M 865 599 L 1095 653" stroke-miterlimit="10"/></g><g transform="translate(-454,-118) scale(1,1)"><path fill="none" stroke="#000000" d="M 1084.1441919072688 654.7752269302241 L 1095 653 L 1086.0685094818634 646.5790594828765" stroke-miterlimit="10"/></g><g transform="translate(-454,-118) scale(1,1)"><path fill="none" stroke="#000000" d="M 865 583 L 1075 516" stroke-miterlimit="10"/></g><g transform="translate(-454,-118) scale(1,1)"><path fill="none" stroke="#000000" d="M 1066.597643849402 523.09932469454 L 1075 516 L 1064.0386563546133 515.0786176213219" stroke-miterlimit="10"/></g><g transform="translate(-454,-118) scale(1,1)"><path fill="#ffeaad" stroke="none" d="M 1072 593.5 C 1072 583.835016 1104.0116368 576 1143.5 576 C 1182.9883632 576 1215 583.835016 1215 593.5 C 1215 603.164984 1182.9883632 611 1143.5 611 C 1104.0116368 611 1072 603.164984 1072 593.5 Z"/></g><g transform="translate(-454,-118) scale(1,1)"><path fill="none" stroke="#000000" d="M 1072 593.5 C 1072 583.835016 1104.0116368 576 1143.5 576 C 1182.9883632 576 1215 583.835016 1215 593.5 C 1215 603.164984 1182.9883632 611 1143.5 611 C 1104.0116368 611 1072 603.164984 1072 593.5 Z" stroke-miterlimit="10"/></g><g transform="translate(-454,-118) scale(1,1)"><g><path fill="none" stroke="none"/><text fill="#000000" stroke="none" font-family="Roboto" font-size="14px" font-style="normal" font-weight="bold" text-decoration="none" x="1098.12646484375" y="601">Đóng tiền phạt</text></g></g><g transform="translate(-454,-118) scale(1,1)"><path fill="none" stroke="#000000" d="M 1144 612 L 1146 647" stroke-miterlimit="10" stroke-dasharray="3"/></g><g transform="translate(-454,-118) scale(1,1)"><path fill="none" stroke="#000000" d="M 1141.2175596687064 637.0940288473256 L 1146 647 L 1149.6228833874166 636.6137246348279" stroke-miterlimit="10"/></g><g transform="translate(-454,-118) scale(1,1)"><g><path fill="none" stroke="none"/><text fill="#000000" stroke="none" font-family="Roboto" font-size="14px" font-style="normal" font-weight="normal" text-decoration="none" x="1146.5" y="633.5">«extend»</text></g></g><g transform="translate(-454,-118) scale(1,1)"><path fill="#ffeaad" stroke="none" d="M 1360 433.5 C 1360 423.835016 1413.725824 416 1480 416 C 1546.274176 416 1600 423.835016 1600 433.5 C 1600 443.164984 1546.274176 451 1480 451 C 1413.725824 451 1360 443.164984 1360 433.5 Z"/></g><g transform="translate(-454,-118) scale(1,1)"><path fill="none" stroke="#000000" d="M 1360 433.5 C 1360 423.835016 1413.725824 416 1480 416 C 1546.274176 416 1600 423.835016 1600 433.5 C 1600 443.164984 1546.274176 451 1480 451 C 1413.725824 451 1360 443.164984 1360 433.5 Z" stroke-miterlimit="10"/></g><g transform="translate(-454,-118) scale(1,1)"><g><path fill="none" stroke="none"/><text fill="#000000" stroke="none" font-family="Roboto" font-size="14px" font-style="normal" font-weight="bold" text-decoration="none" x="1400.23486328125" y="441">Tạo tài khoản cho đọc giả</text></g></g><g transform="translate(-454,-118) scale(1,1)"><path fill="#ffeaad" stroke="none" d="M 1624 433.5 C 1624 423.835016 1681.9791184 416 1753.5 416 C 1825.0208816 416 1883 423.835016 1883 433.5 C 1883 443.164984 1825.0208816 451 1753.5 451 C 1681.9791184 451 1624 443.164984 1624 433.5 Z"/></g><g transform="translate(-454,-118) scale(1,1)"><path fill="none" stroke="#000000" d="M 1624 433.5 C 1624 423.835016 1681.9791184 416 1753.5 416 C 1825.0208816 416 1883 423.835016 1883 433.5 C 1883 443.164984 1825.0208816 451 1753.5 451 C 1681.9791184 451 1624 443.164984 1624 433.5 Z" stroke-miterlimit="10"/></g><g transform="translate(-454,-118) scale(1,1)"><g><path fill="none" stroke="none"/><text fill="#000000" stroke="none" font-family="Roboto" font-size="14px" font-style="normal" font-weight="bold" text-decoration="none" x="1703.009765625" y="441">Đặt lại mật khẩu</text></g></g><g transform="translate(-454,-118) scale(1,1)"><path fill="#ffeaad" stroke="none" d="M 1656 513.5 C 1656 503.835016 1701.6669504 496 1758 496 C 1814.3330496 496 1860 503.835016 1860 513.5 C 1860 523.164984 1814.3330496 531 1758 531 C 1701.6669504 531 1656 523.164984 1656 513.5 Z"/></g><g transform="translate(-454,-118) scale(1,1)"><path fill="none" stroke="#000000" d="M 1656 513.5 C 1656 503.835016 1701.6669504 496 1758 496 C 1814.3330496 496 1860 503.835016 1860 513.5 C 1860 523.164984 1814.3330496 531 1758 531 C 1701.6669504 531 1656 523.164984 1656 513.5 Z" stroke-miterlimit="10"/></g><g transform="translate(-454,-118) scale(1,1)"><g><path fill="none" stroke="none"/><text fill="#000000" stroke="none" font-family="Roboto" font-size="14px" font-style="normal" font-weight="bold" text-decoration="none" x="1690.953125" y="521">Xóa tài khoản đọc giả</text></g></g><g transform="translate(-454,-118) scale(1,1)"><path fill="#ffeaad" stroke="none" d="M 1792 681.5 C 1792 671.835016 1816.8481936 664 1847.5 664 C 1878.1518064 664 1903 671.835016 1903 681.5 C 1903 691.164984 1878.1518064 699 1847.5 699 C 1816.8481936 699 1792 691.164984 1792 681.5 Z"/></g><g transform="translate(-454,-118) scale(1,1)"><path fill="none" stroke="#000000" d="M 1792 681.5 C 1792 671.835016 1816.8481936 664 1847.5 664 C 1878.1518064 664 1903 671.835016 1903 681.5 C 1903 691.164984 1878.1518064 699 1847.5 699 C 1816.8481936 699 1792 691.164984 1792 681.5 Z" stroke-miterlimit="10"/></g><g transform="translate(-454,-118) scale(1,1)"><g><path fill="none" stroke="none"/><text fill="#000000" stroke="none" font-family="Roboto" font-size="14px" font-style="normal" font-weight="bold" text-decoration="none" x="1812.95458984375" y="689">Thêm sách</text></g></g><g transform="translate(-454,-118) scale(1,1)"><path fill="#ffeaad" stroke="none" d="M 1592 737.5 C 1592 727.835016 1614.8334752 720 1643 720 C 1671.1665248 720 1694 727.835016 1694 737.5 C 1694 747.164984 1671.1665248 755 1643 755 C 1614.8334752 755 1592 747.164984 1592 737.5 Z"/></g><g transform="translate(-454,-118) scale(1,1)"><path fill="none" stroke="#000000" d="M 1592 737.5 C 1592 727.835016 1614.8334752 720 1643 720 C 1671.1665248 720 1694 727.835016 1694 737.5 C 1694 747.164984 1671.1665248 755 1643 755 C 1614.8334752 755 1592 747.164984 1592 737.5 Z" stroke-miterlimit="10"/></g><g transform="translate(-454,-118) scale(1,1)"><g><path fill="none" stroke="none"/><text fill="#000000" stroke="none" font-family="Roboto" font-size="14px" font-style="normal" font-weight="bold" text-decoration="none" x="1614.2138671875" y="745">Xóa sách</text></g></g><g transform="translate(-454,-118) scale(1,1)"><path fill="#ffeaad" stroke="none" d="M 1704 753.5 C 1704 743.835016 1756.1588208 736 1820.5 736 C 1884.8411792 736 1937 743.835016 1937 753.5 C 1937 763.164984 1884.8411792 771 1820.5 771 C 1756.1588208 771 1704 763.164984 1704 753.5 Z"/></g><g transform="translate(-454,-118) scale(1,1)"><path fill="none" stroke="#000000" d="M 1704 753.5 C 1704 743.835016 1756.1588208 736 1820.5 736 C 1884.8411792 736 1937 743.835016 1937 753.5 C 1937 763.164984 1884.8411792 771 1820.5 771 C 1756.1588208 771 1704 763.164984 1704 753.5 Z" stroke-miterlimit="10"/></g><g transform="translate(-454,-118) scale(1,1)"><g><path fill="none" stroke="none"/><text fill="#000000" stroke="none" font-family="Roboto" font-size="14px" font-style="normal" font-weight="bold" text-decoration="none" x="1743.25390625" y="761">Chỉnh sửa thông tin sách</text></g></g><g transform="translate(-454,-118) scale(1,1)"><path fill="#ffeaad" stroke="none" d="M 1744 609.5 C 1744 599.835016 1793.0248144 592 1853.5 592 C 1913.9751856 592 1963 599.835016 1963 609.5 C 1963 619.164984 1913.9751856 627 1853.5 627 C 1793.0248144 627 1744 619.164984 1744 609.5 Z"/></g><g transform="translate(-454,-118) scale(1,1)"><path fill="none" stroke="#000000" d="M 1744 609.5 C 1744 599.835016 1793.0248144 592 1853.5 592 C 1913.9751856 592 1963 599.835016 1963 609.5 C 1963 619.164984 1913.9751856 627 1853.5 627 C 1793.0248144 627 1744 619.164984 1744 609.5 Z" stroke-miterlimit="10"/></g><g transform="translate(-454,-118) scale(1,1)"><g><path fill="none" stroke="none"/><text fill="#000000" stroke="none" font-family="Roboto" font-size="14px" font-style="normal" font-weight="bold" text-decoration="none" x="1780.875" y="617">Xem danh sách đọc giả</text></g></g><g transform="translate(-454,-118) scale(1,1)"><path fill="#ffeaad" stroke="none" d="M 1792 561.5 C 1792 551.835016 1818.1913392 544 1850.5 544 C 1882.8086608 544 1909 551.835016 1909 561.5 C 1909 571.164984 1882.8086608 579 1850.5 579 C 1818.1913392 579 1792 571.164984 1792 561.5 Z"/></g><g transform="translate(-454,-118) scale(1,1)"><path fill="none" stroke="#000000" d="M 1792 561.5 C 1792 551.835016 1818.1913392 544 1850.5 544 C 1882.8086608 544 1909 551.835016 1909 561.5 C 1909 571.164984 1882.8086608 579 1850.5 579 C 1818.1913392 579 1792 571.164984 1792 561.5 Z" stroke-miterlimit="10"/></g><g transform="translate(-454,-118) scale(1,1)"><g><path fill="none" stroke="none"/><text fill="#000000" stroke="none" font-family="Roboto" font-size="14px" font-style="normal" font-weight="bold" text-decoration="none" x="1813.8525390625" y="569">Tìm đọc giả</text></g></g><g transform="translate(-454,-118) scale(1,1)"><path fill="none" stroke="#000000" d="M 1490 575 L 1481 452" stroke-miterlimit="10"/></g><g transform="translate(-454,-118) scale(1,1)"><path fill="none" stroke="#000000" d="M 1485.9399217028204 461.8283861121755 L 1481 452 L 1477.543333666556 462.44277060263386" stroke-miterlimit="10"/></g><g transform="translate(-454,-118) scale(1,1)"><path fill="none" stroke="#000000" d="M 1523 595 L 1726 452" stroke-miterlimit="10"/></g><g transform="translate(-454,-118) scale(1,1)"><path fill="none" stroke="#000000" d="M 1720.1159830371596 461.2939950710664 L 1726 452 L 1715.2675247658935 454.4112186440243" stroke-miterlimit="10"/></g><g transform="translate(-454,-118) scale(1,1)"><path fill="none" stroke="#000000" d="M 1523 604 L 1709 532" stroke-miterlimit="10"/></g><g transform="translate(-454,-118) scale(1,1)"><path fill="none" stroke="#000000" d="M 1701.0422247191814 539.5943276581927 L 1709 532 L 1698.0030025501137 531.743003721435" stroke-miterlimit="10"/></g><g transform="translate(-454,-118) scale(1,1)"><path fill="none" stroke="#000000" d="M 1523 622 L 1791 671" stroke-miterlimit="10"/></g><g transform="translate(-454,-118) scale(1,1)"><path fill="none" stroke="#000000" d="M 1780.2459452170308 673.3130727884995 L 1791 671 L 1781.7601454835847 665.031324391837" stroke-miterlimit="10"/></g><g transform="translate(-454,-118) scale(1,1)"><path fill="none" stroke="#000000" d="M 1523 640 L 1621 719" stroke-miterlimit="10"/></g><g transform="translate(-454,-118) scale(1,1)"><path fill="none" stroke="#000000" d="M 1610.446087524412 715.8992047056234 L 1621 719 L 1615.7298503001875 709.3446635407374" stroke-miterlimit="10"/></g><g transform="translate(-454,-118) scale(1,1)"><path fill="none" stroke="#000000" d="M 1523 629 L 1777 735" stroke-miterlimit="10"/></g><g transform="translate(-454,-118) scale(1,1)"><path fill="none" stroke="#000000" d="M 1766.000038653158 734.9708389303686 L 1777 735 L 1769.242472728941 727.2012327487752" stroke-miterlimit="10"/></g><g transform="translate(-454,-118) scale(1,1)"><path fill="none" stroke="#000000" d="M 1523 615 L 1743 611" stroke-miterlimit="10"/></g><g transform="translate(-454,-118) scale(1,1)"><path fill="none" stroke="#000000" d="M 1732.9155285459008 615.3935675130193 L 1743 611 L 1732.7624804680675 606.9759232321812" stroke-miterlimit="10"/></g><g transform="translate(-454,-118) scale(1,1)"><path fill="none" stroke="#000000" d="M 1523 611 L 1791 570" stroke-miterlimit="10"/></g><g transform="translate(-454,-118) scale(1,1)"><path fill="none" stroke="#000000" d="M 1781.5907903128912 575.6979621852041 L 1791 570 L 1780.3176163245369 567.3757517247416" stroke-miterlimit="10"/></g><g transform="translate(-454,-118) scale(1,1)"><path fill="#ffeaad" stroke="none" d="M 1496 865.5 C 1496 855.835016 1558.4562704 848 1635.5 848 C 1712.5437296 848 1775 855.835016 1775 865.5 C 1775 875.164984 1712.5437296 883 1635.5 883 C 1558.4562704 883 1496 875.164984 1496 865.5 Z"/></g><g transform="translate(-454,-118) scale(1,1)"><path fill="none" stroke="#000000" d="M 1496 865.5 C 1496 855.835016 1558.4562704 848 1635.5 848 C 1712.5437296 848 1775 855.835016 1775 865.5 C 1775 875.164984 1712.5437296 883 1635.5 883 C 1558.4562704 883 1496 875.164984 1496 865.5 Z" stroke-miterlimit="10"/></g><g transform="translate(-454,-118) scale(1,1)"><g><path fill="none" stroke="none"/><text fill="#000000" stroke="none" font-family="Roboto" font-size="14px" font-style="normal" font-weight="bold" text-decoration="none" x="1542.6064453125" y="873">Chỉnh sửa trạng thái tài khoản</text></g></g><g transform="translate(-454,-118) scale(1,1)"><path fill="none" stroke="#000000" d="M 1516 657 L 1625 847" stroke-miterlimit="10"/></g><g transform="translate(-454,-118) scale(1,1)"><path fill="none" stroke="#000000" d="M 1616.2915875334907 840.2796166543012 L 1625 847 L 1623.5942511274786 836.0901938556451" stroke-miterlimit="10"/></g><g transform="translate(-454,-118) scale(1,1)"><path fill="#ffeaad" stroke="none" d="M 1440 801.5 C 1440 791.835016 1470.2207760000001 784 1507.5 784 C 1544.7792239999999 784 1575 791.835016 1575 801.5 C 1575 811.164984 1544.7792239999999 819 1507.5 819 C 1470.2207760000001 819 1440 811.164984 1440 801.5 Z"/></g><g transform="translate(-454,-118) scale(1,1)"><path fill="none" stroke="#000000" d="M 1440 801.5 C 1440 791.835016 1470.2207760000001 784 1507.5 784 C 1544.7792239999999 784 1575 791.835016 1575 801.5 C 1575 811.164984 1544.7792239999999 819 1507.5 819 C 1470.2207760000001 819 1440 811.164984 1440 801.5 Z" stroke-miterlimit="10"/></g><g transform="translate(-454,-118) scale(1,1)"><g><path fill="none" stroke="none"/><text fill="#000000" stroke="none" font-family="Roboto" font-size="14px" font-style="normal" font-weight="bold" text-decoration="none" x="1464.77880859375" y="809">Xem thống kê</text></g></g><g transform="translate(-454,-118) scale(1,1)"><path fill="none" stroke="#000000" d="M 1496 657 L 1506 783" stroke-miterlimit="10"/></g><g transform="translate(-454,-118) scale(1,1)"><path fill="none" stroke="#000000" d="M 1500.99964418661 773.2022226122707 L 1506 783 L 1509.3922893274262 772.5361396645869" stroke-miterlimit="10"/></g><g transform="translate(-454,-118) scale(1,1)"><path fill="#ffeaad" stroke="none" d="M 1544 993.5 C 1544 983.835016 1602.6506912 976 1675 976 C 1747.3493088 976 1806 983.835016 1806 993.5 C 1806 1003.164984 1747.3493088 1011 1675 1011 C 1602.6506912 1011 1544 1003.164984 1544 993.5 Z"/></g><g transform="translate(-454,-118) scale(1,1)"><path fill="none" stroke="#000000" d="M 1544 993.5 C 1544 983.835016 1602.6506912 976 1675 976 C 1747.3493088 976 1806 983.835016 1806 993.5 C 1806 1003.164984 1747.3493088 1011 1675 1011 C 1602.6506912 1011 1544 1003.164984 1544 993.5 Z" stroke-miterlimit="10"/></g><g transform="translate(-454,-118) scale(1,1)"><g><path fill="none" stroke="none"/><text fill="#000000" stroke="none" font-family="Roboto" font-size="14px" font-style="normal" font-weight="bold" text-decoration="none" x="1587.58544921875" y="1001">Thông báo khi sách quá hạn</text></g></g><g transform="translate(-454,-118) scale(1,1)"><path fill="none" stroke="#000000" d="M 1435 985 L 1543 989" stroke-miterlimit="10"/></g><g transform="translate(-454,-118) scale(1,1)"><path fill="none" stroke="#000000" d="M 1532.6884870219317 992.8304960648887 L 1543 989 L 1533.0000895061237 984.417228991706" stroke-miterlimit="10"/></g><g transform="translate(-454,-118) scale(1,1)"><path fill="none" stroke="#000000" d="M 1142 575 L 1137 516" stroke-miterlimit="10" stroke-dasharray="3"/></g><g transform="translate(-454,-118) scale(1,1)"><path fill="none" stroke="#000000" d="M 1142.0526501743996 525.770912250918 L 1137 516 L 1133.6636848902785 526.4818415122842" stroke-miterlimit="10"/></g><g transform="translate(-454,-118) scale(1,1)"><g><path fill="none" stroke="none"/><text fill="#000000" stroke="none" font-family="Roboto" font-size="14px" font-style="normal" font-weight="normal" text-decoration="none" x="1081.5" y="553.5">«extend»</text></g></g><g transform="translate(-454,-118) scale(1,1)"><path fill="none" stroke="#000000" d="M 1463 606 L 1192 516" stroke-miterlimit="10"/></g><g transform="translate(-454,-118) scale(1,1)"><path fill="none" stroke="#000000" d="M 1202.9714560264822 515.2080702941767 L 1192 516 L 1200.3179698210265 523.1980120906048" stroke-miterlimit="10"/></g><g transform="translate(-454,-118) scale(1,1)"><path fill="none" stroke="#000000" d="M 1463 600 L 1172 444" stroke-miterlimit="10"/></g><g transform="translate(-454,-118) scale(1,1)"><path fill="none" stroke="#000000" d="M 1182.9457069668988 445.0915580583664 L 1172 444 L 1178.9679355160451 452.51163172630464" stroke-miterlimit="10"/></g><g transform="translate(-454,-118) scale(1,1)"><path fill="none" stroke="#000000" d="M 1463 620 L 1199 658" stroke-miterlimit="10"/></g><g transform="translate(-454,-118) scale(1,1)"><path fill="none" stroke="#000000" d="M 1208.459270609577 652.3855365764134 L 1199 658 L 1209.6587395526524 660.7186892335686" stroke-miterlimit="10"/></g><g transform="translate(-454,-118) scale(1,1)"><path fill="#C0C0C0" stroke="none" d="M 1343 872.5 C 1343 862.835016 1371.6537728 855 1407 855 C 1442.3462272 855 1471 862.835016 1471 872.5 C 1471 882.164984 1442.3462272 890 1407 890 C 1371.6537728 890 1343 882.164984 1343 872.5 Z" opacity="0.2"/></g><g transform="translate(-454,-118) scale(1,1)"><path fill="#ffeaad" stroke="none" d="M 1336 865.5 C 1336 855.835016 1364.6537728 848 1400 848 C 1435.3462272 848 1464 855.835016 1464 865.5 C 1464 875.164984 1435.3462272 883 1400 883 C 1364.6537728 883 1336 875.164984 1336 865.5 Z"/></g><g transform="translate(-454,-118) scale(1,1)"><path fill="none" stroke="#000000" d="M 1336 865.5 C 1336 855.835016 1364.6537728 848 1400 848 C 1435.3462272 848 1464 855.835016 1464 865.5 C 1464 875.164984 1435.3462272 883 1400 883 C 1364.6537728 883 1336 875.164984 1336 865.5 Z" stroke-miterlimit="10"/></g><g transform="translate(-454,-118) scale(1,1)"><g><path fill="none" stroke="none"/><text fill="#000000" stroke="none" font-family="Roboto" font-size="14px" font-style="normal" font-weight="bold" text-decoration="none" x="1359.0732421875" y="873">Xuất báo cáo</text></g></g><g transform="translate(-454,-118) scale(1,1)"><path fill="none" stroke="#000000" d="M 1478 657 L 1407 847" stroke-miterlimit="10"/></g><g transform="translate(-454,-118) scale(1,1)"><path fill="none" stroke="#000000" d="M 1406.6141718872443 836.0067685975685 L 1407 847 L 1414.5005667969103 838.9537898532857" stroke-miterlimit="10"/></g></g></svg>