<svg version="1.1" xmlns="http://www.w3.org/2000/svg" xmlns:xlink="http://www.w3.org/1999/xlink" width="2505" height="1127"><defs/><g><g transform="translate(-166,-54) scale(1,1)"><path fill="#a3e0ff" stroke="none" d="M 643.4286374289773 633.6800000000001 C 643.4286374289773 628.8861679360001 647.3144797539227 625 652.10791015625 625 C 656.9013405585773 625 660.7871828835227 628.8861679360001 660.7871828835227 633.6800000000001 C 660.7871828835227 638.473832064 656.9013405585773 642.36 652.10791015625 642.36 C 647.3144797539227 642.36 643.4286374289773 638.473832064 643.4286374289773 633.6800000000001 Z"/></g><g transform="translate(-166,-54) scale(1,1)"><path fill="none" stroke="#000000" d="M 643.4286374289773 633.6800000000001 C 643.4286374289773 628.8861679360001 647.3144797539227 625 652.10791015625 625 C 656.9013405585773 625 660.7871828835227 628.8861679360001 660.7871828835227 633.6800000000001 C 660.7871828835227 638.473832064 656.9013405585773 642.36 652.10791015625 642.36 C 647.3144797539227 642.36 643.4286374289773 638.473832064 643.4286374289773 633.6800000000001 Z" stroke-miterlimit="10"/></g><g transform="translate(-166,-54) scale(1,1)"><path fill="none" stroke="#000000" d="M 652.10791015625 642.36 L 652.10791015625 659.64" stroke-miterlimit="10"/></g><g transform="translate(-166,-54) scale(1,1)"><path fill="none" stroke="#000000" d="M 642.9180919744318 648.84 L 661.2977283380682 648.84" stroke-miterlimit="10"/></g><g transform="translate(-166,-54) scale(1,1)"><path fill="none" stroke="#000000" d="M 652.10791015625 659.64 L 639.3442737926136 677" stroke-miterlimit="10"/></g><g transform="translate(-166,-54) scale(1,1)"><path fill="none" stroke="#000000" d="M 652.10791015625 659.64 L 664.8715465198864 677" stroke-miterlimit="10"/></g><g transform="translate(-166,-54) scale(1,1)"><g><path fill="none" stroke="none"/><text fill="#000000" stroke="none" font-family="Roboto" font-size="14px" font-style="normal" font-weight="bold" text-decoration="none" x="628.59228515625" y="698.5">Đọc giả</text></g></g><g transform="translate(-166,-54) scale(1,1)"><path fill="#ffdf82" stroke="none" d="M 1484.4506100852273 585.6800000000001 C 1484.4506100852273 580.8861679360001 1488.3364524101728 577 1493.1298828125 577 C 1497.9233132148272 577 1501.8091555397727 580.8861679360001 1501.8091555397727 585.6800000000001 C 1501.8091555397727 590.473832064 1497.9233132148272 594.36 1493.1298828125 594.36 C 1488.3364524101728 594.36 1484.4506100852273 590.473832064 1484.4506100852273 585.6800000000001 Z"/></g><g transform="translate(-166,-54) scale(1,1)"><path fill="none" stroke="#000000" d="M 1484.4506100852273 585.6800000000001 C 1484.4506100852273 580.8861679360001 1488.3364524101728 577 1493.1298828125 577 C 1497.9233132148272 577 1501.8091555397727 580.8861679360001 1501.8091555397727 585.6800000000001 C 1501.8091555397727 590.473832064 1497.9233132148272 594.36 1493.1298828125 594.36 C 1488.3364524101728 594.36 1484.4506100852273 590.473832064 1484.4506100852273 585.6800000000001 Z" stroke-miterlimit="10"/></g><g transform="translate(-166,-54) scale(1,1)"><path fill="none" stroke="#000000" d="M 1493.1298828125 594.36 L 1493.1298828125 611.64" stroke-miterlimit="10"/></g><g transform="translate(-166,-54) scale(1,1)"><path fill="none" stroke="#000000" d="M 1483.9400646306817 600.84 L 1502.3197009943183 600.84" stroke-miterlimit="10"/></g><g transform="translate(-166,-54) scale(1,1)"><path fill="none" stroke="#000000" d="M 1493.1298828125 611.64 L 1480.3662464488636 629" stroke-miterlimit="10"/></g><g transform="translate(-166,-54) scale(1,1)"><path fill="none" stroke="#000000" d="M 1493.1298828125 611.64 L 1505.8935191761364 629" stroke-miterlimit="10"/></g><g transform="translate(-166,-54) scale(1,1)"><g><path fill="none" stroke="none"/><text fill="#000000" stroke="none" font-family="Roboto" font-size="14px" font-style="normal" font-weight="bold" text-decoration="none" x="1469.033203125" y="650.5">Thủ thư</text></g></g><g transform="translate(-166,-54) scale(1,1)"><path fill="#ff8282" stroke="none" d="M 304.44963352272725 937.6800000000001 C 304.44963352272725 932.8861679360001 308.33547584767274 929 313.12890625 929 C 317.92233665232726 929 321.80817897727275 932.8861679360001 321.80817897727275 937.6800000000001 C 321.80817897727275 942.473832064 317.92233665232726 946.36 313.12890625 946.36 C 308.33547584767274 946.36 304.44963352272725 942.473832064 304.44963352272725 937.6800000000001 Z"/></g><g transform="translate(-166,-54) scale(1,1)"><path fill="none" stroke="#000000" d="M 304.44963352272725 937.6800000000001 C 304.44963352272725 932.8861679360001 308.33547584767274 929 313.12890625 929 C 317.92233665232726 929 321.80817897727275 932.8861679360001 321.80817897727275 937.6800000000001 C 321.80817897727275 942.473832064 317.92233665232726 946.36 313.12890625 946.36 C 308.33547584767274 946.36 304.44963352272725 942.473832064 304.44963352272725 937.6800000000001 Z" stroke-miterlimit="10"/></g><g transform="translate(-166,-54) scale(1,1)"><path fill="none" stroke="#000000" d="M 313.12890625 946.36 L 313.12890625 963.64" stroke-miterlimit="10"/></g><g transform="translate(-166,-54) scale(1,1)"><path fill="none" stroke="#000000" d="M 303.93908806818183 952.84 L 322.31872443181817 952.84" stroke-miterlimit="10"/></g><g transform="translate(-166,-54) scale(1,1)"><path fill="none" stroke="#000000" d="M 313.12890625 963.64 L 300.36526988636365 981" stroke-miterlimit="10"/></g><g transform="translate(-166,-54) scale(1,1)"><path fill="none" stroke="#000000" d="M 313.12890625 963.64 L 325.89254261363635 981" stroke-miterlimit="10"/></g><g transform="translate(-166,-54) scale(1,1)"><g><path fill="none" stroke="none"/><text fill="#000000" stroke="none" font-family="Roboto" font-size="14px" font-style="normal" font-weight="bold" text-decoration="none" x="284.7734375" y="1002.5">Hệ thống</text></g></g><g transform="translate(-166,-54) scale(1,1)"><path fill="#ebd8ff" stroke="none" d="M 1104 825.5 C 1104 815.835016 1126.8334752 808 1155 808 C 1183.1665248 808 1206 815.835016 1206 825.5 C 1206 835.164984 1183.1665248 843 1155 843 C 1126.8334752 843 1104 835.164984 1104 825.5 Z"/></g><g transform="translate(-166,-54) scale(1,1)"><path fill="none" stroke="#000000" d="M 1104 825.5 C 1104 815.835016 1126.8334752 808 1155 808 C 1183.1665248 808 1206 815.835016 1206 825.5 C 1206 835.164984 1183.1665248 843 1155 843 C 1126.8334752 843 1104 835.164984 1104 825.5 Z" stroke-miterlimit="10"/></g><g transform="translate(-166,-54) scale(1,1)"><g><path fill="none" stroke="none"/><text fill="#000000" stroke="none" font-family="Roboto" font-size="14px" font-style="normal" font-weight="bold" text-decoration="none" x="1123.5546875" y="833">Đăng xuất</text></g></g><g transform="translate(-166,-54) scale(1,1)"><path fill="#ebd8ff" stroke="none" d="M 736 257.5 C 736 247.835016 758.8334752 240 787 240 C 815.1665248 240 838 247.835016 838 257.5 C 838 267.164984 815.1665248 275 787 275 C 758.8334752 275 736 267.164984 736 257.5 Z"/></g><g transform="translate(-166,-54) scale(1,1)"><path fill="none" stroke="#000000" d="M 736 257.5 C 736 247.835016 758.8334752 240 787 240 C 815.1665248 240 838 247.835016 838 257.5 C 838 267.164984 815.1665248 275 787 275 C 758.8334752 275 736 267.164984 736 257.5 Z" stroke-miterlimit="10"/></g><g transform="translate(-166,-54) scale(1,1)"><g><path fill="none" stroke="none"/><text fill="#000000" stroke="none" font-family="Roboto" font-size="14px" font-style="normal" font-weight="bold" text-decoration="none" x="758.2890625" y="265">Tìm sách</text></g></g><g transform="translate(-166,-54) scale(1,1)"><path fill="none" stroke="#000000" d="M 681 669 L 1095 743" stroke-miterlimit="10"/></g><g transform="translate(-166,-54) scale(1,1)"><path fill="none" stroke="#000000" d="M 1084.2551948068278 745.3556657998923 L 1095 743 L 1085.7365681240665 737.0679826466927" stroke-miterlimit="10"/></g><g transform="translate(-166,-54) scale(1,1)"><path fill="none" stroke="#000000" d="M 1463 628 L 1195 735" stroke-miterlimit="10"/></g><g transform="translate(-166,-54) scale(1,1)"><path fill="none" stroke="#000000" d="M 1202.877373307001 727.3223056988347 L 1195 735 L 1205.9990937875498 735.1411943790871" stroke-miterlimit="10"/></g><g transform="translate(-166,-54) scale(1,1)"><path fill="none" stroke="#000000" d="M 681 673 L 1103 808" stroke-miterlimit="10"/></g><g transform="translate(-166,-54) scale(1,1)"><path fill="none" stroke="#000000" d="M 1092.0379426812642 808.9128523104805 L 1103 808 L 1094.6031708752037 800.8941389931289" stroke-miterlimit="10"/></g><g transform="translate(-166,-54) scale(1,1)"><path fill="none" stroke="#000000" d="M 1463 635 L 1184 807" stroke-miterlimit="10"/></g><g transform="translate(-166,-54) scale(1,1)"><path fill="none" stroke="#000000" d="M 1190.4418023171693 798.0835442631889 L 1184 807 L 1194.8599284171826 805.2501557858847" stroke-miterlimit="10"/></g><g transform="translate(-166,-54) scale(1,1)"><path fill="none" stroke="#000000" d="M 681 677 L 1120 871" stroke-miterlimit="10"/></g><g transform="translate(-166,-54) scale(1,1)"><path fill="none" stroke="#000000" d="M 1109.0030139510789 870.7425163309398 L 1120 871 L 1112.4060250406312 863.0418881437568" stroke-miterlimit="10"/></g><g transform="translate(-166,-54) scale(1,1)"><path fill="none" stroke="#000000" d="M 1463 641 L 1183 871" stroke-miterlimit="10"/></g><g transform="translate(-166,-54) scale(1,1)"><path fill="none" stroke="#000000" d="M 1188.1810188056124 861.2965447321126 L 1183 871 L 1193.524912551767 867.80215451004" stroke-miterlimit="10"/></g><g transform="translate(-166,-54) scale(1,1)"><path fill="none" stroke="#000000" d="M 666 623 L 781 276" stroke-miterlimit="10"/></g><g transform="translate(-166,-54) scale(1,1)"><path fill="none" stroke="#000000" d="M 781.7987612890381 286.9709607784886 L 781 276 L 773.8071687614273 284.3224502866291" stroke-miterlimit="10"/></g><g transform="translate(-166,-54) scale(1,1)"><path fill="none" stroke="#000000" d="M 1463 601 L 824 276" stroke-miterlimit="10"/></g><g transform="translate(-166,-54) scale(1,1)"><path fill="none" stroke="#000000" d="M 834.966717145671 276.85505265735185 L 824 276 L 831.1500265287738 284.35925359334385" stroke-miterlimit="10"/></g><g transform="translate(-166,-54) scale(1,1)"><path fill="none" stroke="#000000" d="M 681 681 L 1125 943" stroke-miterlimit="10"/></g><g transform="translate(-166,-54) scale(1,1)"><path fill="none" stroke="#000000" d="M 1114.108241755596 941.4606487257743 L 1125 943 L 1118.3868496109708 934.2098781617044" stroke-miterlimit="10"/></g><g transform="translate(-166,-54) scale(1,1)"><path fill="none" stroke="#000000" d="M 1463 647 L 1173 943" stroke-miterlimit="10"/></g><g transform="translate(-166,-54) scale(1,1)"><path fill="none" stroke="#000000" d="M 1177.1052478829695 932.7947591983641 L 1173 943 L 1183.1190435909778 938.6866536420209" stroke-miterlimit="10"/></g><g transform="translate(-166,-54) scale(1,1)"><path fill="none" stroke="#000000" d="M 681 685 L 1159 1023" stroke-miterlimit="10"/></g><g transform="translate(-166,-54) scale(1,1)"><path fill="none" stroke="#000000" d="M 1148.2718545446787 1020.5695895224329 L 1159 1023 L 1153.1326153287412 1013.6954958692321" stroke-miterlimit="10"/></g><g transform="translate(-166,-54) scale(1,1)"><path fill="none" stroke="#000000" d="M 1463 657 L 1197 1023" stroke-miterlimit="10"/></g><g transform="translate(-166,-54) scale(1,1)"><path fill="none" stroke="#000000" d="M 1199.5695329449704 1012.3043232825262 L 1197 1023 L 1206.3799197061755 1017.253948633566" stroke-miterlimit="10"/></g><g transform="translate(-166,-54) scale(1,1)"><path fill="#ebd8ff" stroke="none" d="M 672 129.5 C 672 119.835016 699.9822 112 734.5 112 C 769.0178 112 797 119.835016 797 129.5 C 797 139.164984 769.0178 147 734.5 147 C 699.9822 147 672 139.164984 672 129.5 Z"/></g><g transform="translate(-166,-54) scale(1,1)"><path fill="none" stroke="#000000" d="M 672 129.5 C 672 119.835016 699.9822 112 734.5 112 C 769.0178 112 797 119.835016 797 129.5 C 797 139.164984 769.0178 147 734.5 147 C 699.9822 147 672 139.164984 672 129.5 Z" stroke-miterlimit="10"/></g><g transform="translate(-166,-54) scale(1,1)"><g><path fill="none" stroke="none"/><text fill="#000000" stroke="none" font-family="Roboto" font-size="14px" font-style="normal" font-weight="bold" text-decoration="none" x="695.29248046875" y="137">Tìm theo tên</text></g></g><g transform="translate(-166,-54) scale(1,1)"><path fill="#ebd8ff" stroke="none" d="M 832 105.5 C 832 95.835016 867.1456432 88 910.5 88 C 953.8543568 88 989 95.835016 989 105.5 C 989 115.164984 953.8543568 123 910.5 123 C 867.1456432 123 832 115.164984 832 105.5 Z"/></g><g transform="translate(-166,-54) scale(1,1)"><path fill="none" stroke="#000000" d="M 832 105.5 C 832 95.835016 867.1456432 88 910.5 88 C 953.8543568 88 989 95.835016 989 105.5 C 989 115.164984 953.8543568 123 910.5 123 C 867.1456432 123 832 115.164984 832 105.5 Z" stroke-miterlimit="10"/></g><g transform="translate(-166,-54) scale(1,1)"><g><path fill="none" stroke="none"/><text fill="#000000" stroke="none" font-family="Roboto" font-size="14px" font-style="normal" font-weight="bold" text-decoration="none" x="860.22509765625" y="113">Tìm theo tác giả</text></g></g><g transform="translate(-166,-54) scale(1,1)"><path fill="#ebd8ff" stroke="none" d="M 1192 153.5 C 1192 143.835016 1239.2339536 136 1297.5 136 C 1355.7660464 136 1403 143.835016 1403 153.5 C 1403 163.164984 1355.7660464 171 1297.5 171 C 1239.2339536 171 1192 163.164984 1192 153.5 Z"/></g><g transform="translate(-166,-54) scale(1,1)"><path fill="none" stroke="#000000" d="M 1192 153.5 C 1192 143.835016 1239.2339536 136 1297.5 136 C 1355.7660464 136 1403 143.835016 1403 153.5 C 1403 163.164984 1355.7660464 171 1297.5 171 C 1239.2339536 171 1192 163.164984 1192 153.5 Z" stroke-miterlimit="10"/></g><g transform="translate(-166,-54) scale(1,1)"><g><path fill="none" stroke="none"/><text fill="#000000" stroke="none" font-family="Roboto" font-size="14px" font-style="normal" font-weight="bold" text-decoration="none" x="1228.5390625" y="161">Phân loại theo thể loại</text></g></g><g transform="translate(-166,-54) scale(1,1)"><path fill="#ebd8ff" stroke="none" d="M 1072 81.5 C 1072 71.835016 1129.9791184 64 1201.5 64 C 1273.0208816 64 1331 71.835016 1331 81.5 C 1331 91.164984 1273.0208816 99 1201.5 99 C 1129.9791184 99 1072 91.164984 1072 81.5 Z"/></g><g transform="translate(-166,-54) scale(1,1)"><path fill="none" stroke="#000000" d="M 1072 81.5 C 1072 71.835016 1129.9791184 64 1201.5 64 C 1273.0208816 64 1331 71.835016 1331 81.5 C 1331 91.164984 1273.0208816 99 1201.5 99 C 1129.9791184 99 1072 91.164984 1072 81.5 Z" stroke-miterlimit="10"/></g><g transform="translate(-166,-54) scale(1,1)"><g><path fill="none" stroke="none"/><text fill="#000000" stroke="none" font-family="Roboto" font-size="14px" font-style="normal" font-weight="bold" text-decoration="none" x="1115.30908203125" y="89">Phân loại theo nhà xuất bản</text></g></g><g transform="translate(-166,-54) scale(1,1)"><path fill="#ebd8ff" stroke="none" d="M 1192 297.5 C 1192 287.835016 1251.322264 280 1324.5 280 C 1397.677736 280 1457 287.835016 1457 297.5 C 1457 307.164984 1397.677736 315 1324.5 315 C 1251.322264 315 1192 307.164984 1192 297.5 Z"/></g><g transform="translate(-166,-54) scale(1,1)"><path fill="none" stroke="#000000" d="M 1192 297.5 C 1192 287.835016 1251.322264 280 1324.5 280 C 1397.677736 280 1457 287.835016 1457 297.5 C 1457 307.164984 1397.677736 315 1324.5 315 C 1251.322264 315 1192 307.164984 1192 297.5 Z" stroke-miterlimit="10"/></g><g transform="translate(-166,-54) scale(1,1)"><g><path fill="none" stroke="none"/><text fill="#000000" stroke="none" font-family="Roboto" font-size="14px" font-style="normal" font-weight="bold" text-decoration="none" x="1236.029296875" y="305">Phân loại theo năm xuất bản</text></g></g><g transform="translate(-166,-54) scale(1,1)"><path fill="#ebd8ff" stroke="none" d="M 904 145.5 C 904 135.835016 935.7877792 128 975 128 C 1014.2122208 128 1046 135.835016 1046 145.5 C 1046 155.164984 1014.2122208 163 975 163 C 935.7877792 163 904 155.164984 904 145.5 Z"/></g><g transform="translate(-166,-54) scale(1,1)"><path fill="none" stroke="#000000" d="M 904 145.5 C 904 135.835016 935.7877792 128 975 128 C 1014.2122208 128 1046 135.835016 1046 145.5 C 1046 155.164984 1014.2122208 163 975 163 C 935.7877792 163 904 155.164984 904 145.5 Z" stroke-miterlimit="10"/></g><g transform="translate(-166,-54) scale(1,1)"><g><path fill="none" stroke="none"/><text fill="#000000" stroke="none" font-family="Roboto" font-size="14px" font-style="normal" font-weight="bold" text-decoration="none" x="930.2451171875" y="153">Tìm theo ISBN</text></g></g><g transform="translate(-166,-54) scale(1,1)"><path fill="none" stroke="#000000" d="M 742 148 L 780 239" stroke-miterlimit="10" stroke-dasharray="3"/></g><g transform="translate(-166,-54) scale(1,1)"><path fill="none" stroke="#000000" d="M 772.1995180633978 231.24419691090972 L 780 239 L 779.9684072839487 228.00004536826208" stroke-miterlimit="10"/></g><g transform="translate(-166,-54) scale(1,1)"><g><path fill="none" stroke="none"/><text fill="#000000" stroke="none" font-family="Roboto" font-size="14px" font-style="normal" font-weight="normal" text-decoration="none" x="760.5" y="187.5">«extend»</text></g></g><g transform="translate(-166,-54) scale(1,1)"><path fill="none" stroke="#000000" d="M 895 124 L 802 239" stroke-miterlimit="10" stroke-dasharray="3"/></g><g transform="translate(-166,-54) scale(1,1)"><path fill="none" stroke="#000000" d="M 805.1172315114519 228.45093048160118 L 802 239 L 811.6635341319442 233.74489694860793" stroke-miterlimit="10"/></g><g transform="translate(-166,-54) scale(1,1)"><g><path fill="none" stroke="none"/><text fill="#000000" stroke="none" font-family="Roboto" font-size="14px" font-style="normal" font-weight="normal" text-decoration="none" x="843.5" y="205.5">«extend»</text></g></g><g transform="translate(-166,-54) scale(1,1)"><path fill="none" stroke="#000000" d="M 943 164 L 817 239" stroke-miterlimit="10" stroke-dasharray="3"/></g><g transform="translate(-166,-54) scale(1,1)"><path fill="none" stroke="#000000" d="M 823.5796138021182 230.18474718371755 L 817 239 L 827.8858145813335 237.41916449279927" stroke-miterlimit="10"/></g><g transform="translate(-166,-54) scale(1,1)"><g><path fill="none" stroke="none"/><text fill="#000000" stroke="none" font-family="Roboto" font-size="14px" font-style="normal" font-weight="normal" text-decoration="none" x="867.5" y="232.5">«extend»</text></g></g><g transform="translate(-166,-54) scale(1,1)"><path fill="#ebd8ff" stroke="none" d="M 968 425.5 C 968 415.835016 1002.9217856 408 1046 408 C 1089.0782144 408 1124 415.835016 1124 425.5 C 1124 435.164984 1089.0782144 443 1046 443 C 1002.9217856 443 968 435.164984 968 425.5 Z"/></g><g transform="translate(-166,-54) scale(1,1)"><path fill="none" stroke="#000000" d="M 968 425.5 C 968 415.835016 1002.9217856 408 1046 408 C 1089.0782144 408 1124 415.835016 1124 425.5 C 1124 435.164984 1089.0782144 443 1046 443 C 1002.9217856 443 968 435.164984 968 425.5 Z" stroke-miterlimit="10"/></g><g transform="translate(-166,-54) scale(1,1)"><g><path fill="none" stroke="none"/><text fill="#000000" stroke="none" font-family="Roboto" font-size="14px" font-style="normal" font-weight="bold" text-decoration="none" x="995.65673828125" y="433">Lập phiếu mượn</text></g></g><g transform="translate(-166,-54) scale(1,1)"><path fill="none" stroke="#000000" d="M 1018 407 L 816 276" stroke-miterlimit="10" stroke-dasharray="3"/></g><g transform="translate(-166,-54) scale(1,1)"><path fill="none" stroke="#000000" d="M 826.8170610975741 277.9977960885307 L 816 276 L 822.2361620929759 285.0614724162319" stroke-miterlimit="10"/></g><g transform="translate(-166,-54) scale(1,1)"><g><path fill="none" stroke="none"/><text fill="#000000" stroke="none" font-family="Roboto" font-size="14px" font-style="normal" font-weight="normal" text-decoration="none" x="870.5" y="372.5">«include»</text></g></g><g transform="translate(-166,-54) scale(1,1)"><path fill="#ebd8ff" stroke="none" d="M 1096 889.5 C 1096 879.835016 1125.101488 872 1161 872 C 1196.898512 872 1226 879.835016 1226 889.5 C 1226 899.164984 1196.898512 907 1161 907 C 1125.101488 907 1096 899.164984 1096 889.5 Z"/></g><g transform="translate(-166,-54) scale(1,1)"><path fill="none" stroke="#000000" d="M 1096 889.5 C 1096 879.835016 1125.101488 872 1161 872 C 1196.898512 872 1226 879.835016 1226 889.5 C 1226 899.164984 1196.898512 907 1161 907 C 1125.101488 907 1096 899.164984 1096 889.5 Z" stroke-miterlimit="10"/></g><g transform="translate(-166,-54) scale(1,1)"><g><path fill="none" stroke="none"/><text fill="#000000" stroke="none" font-family="Roboto" font-size="14px" font-style="normal" font-weight="bold" text-decoration="none" x="1119.85107421875" y="897">Đổi mật khẩu</text></g></g><g transform="translate(-166,-54) scale(1,1)"><path fill="#ebd8ff" stroke="none" d="M 1096 753.5 C 1096 743.835016 1120.1766208 736 1150 736 C 1179.8233792 736 1204 743.835016 1204 753.5 C 1204 763.164984 1179.8233792 771 1150 771 C 1120.1766208 771 1096 763.164984 1096 753.5 Z"/></g><g transform="translate(-166,-54) scale(1,1)"><path fill="none" stroke="#000000" d="M 1096 753.5 C 1096 743.835016 1120.1766208 736 1150 736 C 1179.8233792 736 1204 743.835016 1204 753.5 C 1204 763.164984 1179.8233792 771 1150 771 C 1120.1766208 771 1096 763.164984 1096 753.5 Z" stroke-miterlimit="10"/></g><g transform="translate(-166,-54) scale(1,1)"><g><path fill="none" stroke="none"/><text fill="#000000" stroke="none" font-family="Roboto" font-size="14px" font-style="normal" font-weight="bold" text-decoration="none" x="1116.5244140625" y="761">Đăng nhập</text></g></g><g transform="translate(-166,-54) scale(1,1)"><path fill="#ebd8ff" stroke="none" d="M 1016 593.5 C 1016 583.835016 1046.4446336 576 1084 576 C 1121.5553664 576 1152 583.835016 1152 593.5 C 1152 603.164984 1121.5553664 611 1084 611 C 1046.4446336 611 1016 603.164984 1016 593.5 Z"/></g><g transform="translate(-166,-54) scale(1,1)"><path fill="none" stroke="#000000" d="M 1016 593.5 C 1016 583.835016 1046.4446336 576 1084 576 C 1121.5553664 576 1152 583.835016 1152 593.5 C 1152 603.164984 1121.5553664 611 1084 611 C 1046.4446336 611 1016 603.164984 1016 593.5 Z" stroke-miterlimit="10"/></g><g transform="translate(-166,-54) scale(1,1)"><g><path fill="none" stroke="none"/><text fill="#000000" stroke="none" font-family="Roboto" font-size="14px" font-style="normal" font-weight="bold" text-decoration="none" x="1040.755859375" y="601">Nhận trả sách</text></g></g><g transform="translate(-166,-54) scale(1,1)"><path fill="#ebd8ff" stroke="none" d="M 1000 497.5 C 1000 487.835016 1028.4299152 480 1063.5 480 C 1098.5700848 480 1127 487.835016 1127 497.5 C 1127 507.164984 1098.5700848 515 1063.5 515 C 1028.4299152 515 1000 507.164984 1000 497.5 Z"/></g><g transform="translate(-166,-54) scale(1,1)"><path fill="none" stroke="#000000" d="M 1000 497.5 C 1000 487.835016 1028.4299152 480 1063.5 480 C 1098.5700848 480 1127 487.835016 1127 497.5 C 1127 507.164984 1098.5700848 515 1063.5 515 C 1028.4299152 515 1000 507.164984 1000 497.5 Z" stroke-miterlimit="10"/></g><g transform="translate(-166,-54) scale(1,1)"><g><path fill="none" stroke="none"/><text fill="#000000" stroke="none" font-family="Roboto" font-size="14px" font-style="normal" font-weight="bold" text-decoration="none" x="1023.2978515625" y="505">Gia hạn sách</text></g></g><g transform="translate(-166,-54) scale(1,1)"><path fill="#ebd8ff" stroke="none" d="M 176 641.5 C 176 631.835016 242.48570719999998 624 324.5 624 C 406.5142928 624 473 631.835016 473 641.5 C 473 651.164984 406.5142928 659 324.5 659 C 242.48570719999998 659 176 651.164984 176 641.5 Z"/></g><g transform="translate(-166,-54) scale(1,1)"><path fill="none" stroke="#000000" d="M 176 641.5 C 176 631.835016 242.48570719999998 624 324.5 624 C 406.5142928 624 473 631.835016 473 641.5 C 473 651.164984 406.5142928 659 324.5 659 C 242.48570719999998 659 176 651.164984 176 641.5 Z" stroke-miterlimit="10"/></g><g transform="translate(-166,-54) scale(1,1)"><g><path fill="none" stroke="none"/><text fill="#000000" stroke="none" font-family="Roboto" font-size="14px" font-style="normal" font-weight="bold" text-decoration="none" x="224.93115234375" y="649">Xem tình trạng sách đang mượn</text></g></g><g transform="translate(-166,-54) scale(1,1)"><path fill="#ebd8ff" stroke="none" d="M 288 713.5 C 288 703.835016 337.4725296 696 398.5 696 C 459.5274704 696 509 703.835016 509 713.5 C 509 723.164984 459.5274704 731 398.5 731 C 337.4725296 731 288 723.164984 288 713.5 Z"/></g><g transform="translate(-166,-54) scale(1,1)"><path fill="none" stroke="#000000" d="M 288 713.5 C 288 703.835016 337.4725296 696 398.5 696 C 459.5274704 696 509 703.835016 509 713.5 C 509 723.164984 459.5274704 731 398.5 731 C 337.4725296 731 288 723.164984 288 713.5 Z" stroke-miterlimit="10"/></g><g transform="translate(-166,-54) scale(1,1)"><g><path fill="none" stroke="none"/><text fill="#000000" stroke="none" font-family="Roboto" font-size="14px" font-style="normal" font-weight="bold" text-decoration="none" x="325.30419921875" y="721">Xem lịch sử mượn sách</text></g></g><g transform="translate(-166,-54) scale(1,1)"><path fill="none" stroke="#000000" d="M 623 670 L 491 695" stroke-miterlimit="10"/></g><g transform="translate(-166,-54) scale(1,1)"><path fill="none" stroke="#000000" d="M 500.20183646762814 688.9728775005789 L 491 695 L 501.76850015601224 697.2448617752468" stroke-miterlimit="10"/></g><g transform="translate(-166,-54) scale(1,1)"><path fill="none" stroke="#000000" d="M 623 662 L 474 652" stroke-miterlimit="10"/></g><g transform="translate(-166,-54) scale(1,1)"><path fill="none" stroke="#000000" d="M 484.4217478511732 648.4804585914404 L 474 652 L 483.8579801740403 656.8805969807216" stroke-miterlimit="10"/></g><g transform="translate(-166,-54) scale(1,1)"><path fill="#ebd8ff" stroke="none" d="M 856 545.5 C 856 535.835016 888.0116368 528 927.5 528 C 966.9883632 528 999 535.835016 999 545.5 C 999 555.164984 966.9883632 563 927.5 563 C 888.0116368 563 856 555.164984 856 545.5 Z"/></g><g transform="translate(-166,-54) scale(1,1)"><path fill="none" stroke="#000000" d="M 856 545.5 C 856 535.835016 888.0116368 528 927.5 528 C 966.9883632 528 999 535.835016 999 545.5 C 999 555.164984 966.9883632 563 927.5 563 C 888.0116368 563 856 555.164984 856 545.5 Z" stroke-miterlimit="10"/></g><g transform="translate(-166,-54) scale(1,1)"><g><path fill="none" stroke="none"/><text fill="#000000" stroke="none" font-family="Roboto" font-size="14px" font-style="normal" font-weight="bold" text-decoration="none" x="882.12646484375" y="553">Đóng tiền phạt</text></g></g><g transform="translate(-166,-54) scale(1,1)"><path fill="none" stroke="#000000" d="M 989 564 L 1025 575" stroke-miterlimit="10" stroke-dasharray="3"/></g><g transform="translate(-166,-54) scale(1,1)"><path fill="none" stroke="#000000" d="M 1014.0508108195861 576.0560569546705 L 1025 575 L 1016.5110090480682 568.0044991160017" stroke-miterlimit="10"/></g><g transform="translate(-166,-54) scale(1,1)"><g><path fill="none" stroke="none"/><text fill="#000000" stroke="none" font-family="Roboto" font-size="14px" font-style="normal" font-weight="normal" text-decoration="none" x="988.5" y="546.5">«extend»</text></g></g><g transform="translate(-166,-54) scale(1,1)"><path fill="#ebd8ff" stroke="none" d="M 1328 401.5 C 1328 391.835016 1381.9496816 384 1448.5 384 C 1515.0503184 384 1569 391.835016 1569 401.5 C 1569 411.164984 1515.0503184 419 1448.5 419 C 1381.9496816 419 1328 411.164984 1328 401.5 Z"/></g><g transform="translate(-166,-54) scale(1,1)"><path fill="none" stroke="#000000" d="M 1328 401.5 C 1328 391.835016 1381.9496816 384 1448.5 384 C 1515.0503184 384 1569 391.835016 1569 401.5 C 1569 411.164984 1515.0503184 419 1448.5 419 C 1381.9496816 419 1328 411.164984 1328 401.5 Z" stroke-miterlimit="10"/></g><g transform="translate(-166,-54) scale(1,1)"><g><path fill="none" stroke="none"/><text fill="#000000" stroke="none" font-family="Roboto" font-size="14px" font-style="normal" font-weight="bold" text-decoration="none" x="1368.68701171875" y="409">Đăng ký tài khoản đọc giả</text></g></g><g transform="translate(-166,-54) scale(1,1)"><path fill="#ebd8ff" stroke="none" d="M 2024 785.5 C 2024 775.835016 2081.9791184 768 2153.5 768 C 2225.0208816 768 2283 775.835016 2283 785.5 C 2283 795.164984 2225.0208816 803 2153.5 803 C 2081.9791184 803 2024 795.164984 2024 785.5 Z"/></g><g transform="translate(-166,-54) scale(1,1)"><path fill="none" stroke="#000000" d="M 2024 785.5 C 2024 775.835016 2081.9791184 768 2153.5 768 C 2225.0208816 768 2283 775.835016 2283 785.5 C 2283 795.164984 2225.0208816 803 2153.5 803 C 2081.9791184 803 2024 795.164984 2024 785.5 Z" stroke-miterlimit="10"/></g><g transform="translate(-166,-54) scale(1,1)"><g><path fill="none" stroke="none"/><text fill="#000000" stroke="none" font-family="Roboto" font-size="14px" font-style="normal" font-weight="bold" text-decoration="none" x="2067.21337890625" y="793">Nhập sách mới vào thư viện</text></g></g><g transform="translate(-166,-54) scale(1,1)"><path fill="#ebd8ff" stroke="none" d="M 2120 873.5 C 2120 863.835016 2142.8334752 856 2171 856 C 2199.1665248 856 2222 863.835016 2222 873.5 C 2222 883.164984 2199.1665248 891 2171 891 C 2142.8334752 891 2120 883.164984 2120 873.5 Z"/></g><g transform="translate(-166,-54) scale(1,1)"><path fill="none" stroke="#000000" d="M 2120 873.5 C 2120 863.835016 2142.8334752 856 2171 856 C 2199.1665248 856 2222 863.835016 2222 873.5 C 2222 883.164984 2199.1665248 891 2171 891 C 2142.8334752 891 2120 883.164984 2120 873.5 Z" stroke-miterlimit="10"/></g><g transform="translate(-166,-54) scale(1,1)"><g><path fill="none" stroke="none"/><text fill="#000000" stroke="none" font-family="Roboto" font-size="14px" font-style="normal" font-weight="bold" text-decoration="none" x="2142.2138671875" y="881">Xóa sách</text></g></g><g transform="translate(-166,-54) scale(1,1)"><path fill="#ebd8ff" stroke="none" d="M 2096 937.5 C 2096 927.835016 2148.1588208 920 2212.5 920 C 2276.8411792 920 2329 927.835016 2329 937.5 C 2329 947.164984 2276.8411792 955 2212.5 955 C 2148.1588208 955 2096 947.164984 2096 937.5 Z"/></g><g transform="translate(-166,-54) scale(1,1)"><path fill="none" stroke="#000000" d="M 2096 937.5 C 2096 927.835016 2148.1588208 920 2212.5 920 C 2276.8411792 920 2329 927.835016 2329 937.5 C 2329 947.164984 2276.8411792 955 2212.5 955 C 2148.1588208 955 2096 947.164984 2096 937.5 Z" stroke-miterlimit="10"/></g><g transform="translate(-166,-54) scale(1,1)"><g><path fill="none" stroke="none"/><text fill="#000000" stroke="none" font-family="Roboto" font-size="14px" font-style="normal" font-weight="bold" text-decoration="none" x="2135.25390625" y="945">Chỉnh sửa thông tin sách</text></g></g><g transform="translate(-166,-54) scale(1,1)"><path fill="#ebd8ff" stroke="none" d="M 2056 705.5 C 2056 695.835016 2105.0248144 688 2165.5 688 C 2225.9751856 688 2275 695.835016 2275 705.5 C 2275 715.164984 2225.9751856 723 2165.5 723 C 2105.0248144 723 2056 715.164984 2056 705.5 Z"/></g><g transform="translate(-166,-54) scale(1,1)"><path fill="none" stroke="#000000" d="M 2056 705.5 C 2056 695.835016 2105.0248144 688 2165.5 688 C 2225.9751856 688 2275 695.835016 2275 705.5 C 2275 715.164984 2225.9751856 723 2165.5 723 C 2105.0248144 723 2056 715.164984 2056 705.5 Z" stroke-miterlimit="10"/></g><g transform="translate(-166,-54) scale(1,1)"><g><path fill="none" stroke="none"/><text fill="#000000" stroke="none" font-family="Roboto" font-size="14px" font-style="normal" font-weight="bold" text-decoration="none" x="2092.875" y="713">Xem danh sách đọc giả</text></g></g><g transform="translate(-166,-54) scale(1,1)"><path fill="#ebd8ff" stroke="none" d="M 2072 625.5 C 2072 615.835016 2098.1913392 608 2130.5 608 C 2162.8086608 608 2189 615.835016 2189 625.5 C 2189 635.164984 2162.8086608 643 2130.5 643 C 2098.1913392 643 2072 635.164984 2072 625.5 Z"/></g><g transform="translate(-166,-54) scale(1,1)"><path fill="none" stroke="#000000" d="M 2072 625.5 C 2072 615.835016 2098.1913392 608 2130.5 608 C 2162.8086608 608 2189 615.835016 2189 625.5 C 2189 635.164984 2162.8086608 643 2130.5 643 C 2098.1913392 643 2072 635.164984 2072 625.5 Z" stroke-miterlimit="10"/></g><g transform="translate(-166,-54) scale(1,1)"><g><path fill="none" stroke="none"/><text fill="#000000" stroke="none" font-family="Roboto" font-size="14px" font-style="normal" font-weight="bold" text-decoration="none" x="2093.8525390625" y="633">Tìm đọc giả</text></g></g><g transform="translate(-166,-54) scale(1,1)"><path fill="none" stroke="#000000" d="M 1484 575 L 1452 420" stroke-miterlimit="10"/></g><g transform="translate(-166,-54) scale(1,1)"><path fill="none" stroke="#000000" d="M 1458.1773457710497 429.10167013382136 L 1452 420 L 1449.932190412695 430.80389575619137" stroke-miterlimit="10"/></g><g transform="translate(-166,-54) scale(1,1)"><path fill="none" stroke="#000000" d="M 1523 575 L 1582 492" stroke-miterlimit="10"/></g><g transform="translate(-166,-54) scale(1,1)"><path fill="none" stroke="#000000" d="M 1579.5429638825333 502.7220787871319 L 1582 492 L 1572.6809584809216 497.8442677185164" stroke-miterlimit="10"/></g><g transform="translate(-166,-54) scale(1,1)"><path fill="none" stroke="#000000" d="M 1523 646 L 1668 791" stroke-miterlimit="10"/></g><g transform="translate(-166,-54) scale(1,1)"><path fill="none" stroke="#000000" d="M 1657.837325142376 786.790482243984 L 1668 791 L 1663.7904822439841 780.8373251423759" stroke-miterlimit="10"/></g><g transform="translate(-166,-54) scale(1,1)"><path fill="none" stroke="#000000" d="M 1523 624 L 2083 767" stroke-miterlimit="10"/></g><g transform="translate(-166,-54) scale(1,1)"><path fill="none" stroke="#000000" d="M 2072.1117843797197 768.5642124556103 L 2083 767 L 2074.1948036653002 760.4069341344572" stroke-miterlimit="10"/></g><g transform="translate(-166,-54) scale(1,1)"><path fill="none" stroke="#000000" d="M 1523 627 L 2124 855" stroke-miterlimit="10"/></g><g transform="translate(-166,-54) scale(1,1)"><path fill="none" stroke="#000000" d="M 2113.004984230352 855.3311015330605 L 2124 855 L 2115.9912256507405 847.4594739293174" stroke-miterlimit="10"/></g><g transform="translate(-166,-54) scale(1,1)"><path fill="none" stroke="#000000" d="M 1523 630 L 2172 919" stroke-miterlimit="10"/></g><g transform="translate(-166,-54) scale(1,1)"><path fill="none" stroke="#000000" d="M 2161.0037866932607 918.7113948845061 L 2172 919 L 2164.428577637682 911.0204283691801" stroke-miterlimit="10"/></g><g transform="translate(-166,-54) scale(1,1)"><path fill="none" stroke="#000000" d="M 1523 620 L 2055 690" stroke-miterlimit="10"/></g><g transform="translate(-166,-54) scale(1,1)"><path fill="none" stroke="#000000" d="M 2044.3750217711847 692.8477776663918 L 2055 690 L 2045.473322945228 684.5006887436625" stroke-miterlimit="10"/></g><g transform="translate(-166,-54) scale(1,1)"><path fill="none" stroke="#000000" d="M 1523 616 L 2071 624" stroke-miterlimit="10"/></g><g transform="translate(-166,-54) scale(1,1)"><path fill="none" stroke="#000000" d="M 2060.776961623934 628.0607248566583 L 2071 624 L 2060.8998541572773 619.6425863226294" stroke-miterlimit="10"/></g><g transform="translate(-166,-54) scale(1,1)"><path fill="#ebd8ff" stroke="none" d="M 1488 865.5 C 1488 855.835016 1550.4562704 848 1627.5 848 C 1704.5437296 848 1767 855.835016 1767 865.5 C 1767 875.164984 1704.5437296 883 1627.5 883 C 1550.4562704 883 1488 875.164984 1488 865.5 Z"/></g><g transform="translate(-166,-54) scale(1,1)"><path fill="none" stroke="#000000" d="M 1488 865.5 C 1488 855.835016 1550.4562704 848 1627.5 848 C 1704.5437296 848 1767 855.835016 1767 865.5 C 1767 875.164984 1704.5437296 883 1627.5 883 C 1550.4562704 883 1488 875.164984 1488 865.5 Z" stroke-miterlimit="10"/></g><g transform="translate(-166,-54) scale(1,1)"><g><path fill="none" stroke="none"/><text fill="#000000" stroke="none" font-family="Roboto" font-size="14px" font-style="normal" font-weight="bold" text-decoration="none" x="1534.6064453125" y="873">Chỉnh sửa trạng thái tài khoản</text></g></g><g transform="translate(-166,-54) scale(1,1)"><path fill="none" stroke="#000000" d="M 1515 657 L 1617 847" stroke-miterlimit="10"/></g><g transform="translate(-166,-54) scale(1,1)"><path fill="none" stroke="#000000" d="M 1608.4842595716264 840.0370864606429 L 1617 847 L 1615.9019855767676 836.0549388157775" stroke-miterlimit="10"/></g><g transform="translate(-166,-54) scale(1,1)"><path fill="#ebd8ff" stroke="none" d="M 1448 929.5 C 1448 919.835016 1478.2207760000001 912 1515.5 912 C 1552.7792239999999 912 1583 919.835016 1583 929.5 C 1583 939.164984 1552.7792239999999 947 1515.5 947 C 1478.2207760000001 947 1448 939.164984 1448 929.5 Z"/></g><g transform="translate(-166,-54) scale(1,1)"><path fill="none" stroke="#000000" d="M 1448 929.5 C 1448 919.835016 1478.2207760000001 912 1515.5 912 C 1552.7792239999999 912 1583 919.835016 1583 929.5 C 1583 939.164984 1552.7792239999999 947 1515.5 947 C 1478.2207760000001 947 1448 939.164984 1448 929.5 Z" stroke-miterlimit="10"/></g><g transform="translate(-166,-54) scale(1,1)"><g><path fill="none" stroke="none"/><text fill="#000000" stroke="none" font-family="Roboto" font-size="14px" font-style="normal" font-weight="bold" text-decoration="none" x="1472.77880859375" y="937">Xem thống kê</text></g></g><g transform="translate(-166,-54) scale(1,1)"><path fill="none" stroke="#000000" d="M 1496 657 L 1514 911" stroke-miterlimit="10"/></g><g transform="translate(-166,-54) scale(1,1)"><path fill="none" stroke="#000000" d="M 1509.0826247774435 901.1603139826219 L 1514 911 L 1517.480599342126 900.565181926857" stroke-miterlimit="10"/></g><g transform="translate(-166,-54) scale(1,1)"><path fill="#ebd8ff" stroke="none" d="M 392 1040.5 C 392 1030.835016 450.6506912 1023 523 1023 C 595.3493088 1023 654 1030.835016 654 1040.5 C 654 1050.164984 595.3493088 1058 523 1058 C 450.6506912 1058 392 1050.164984 392 1040.5 Z"/></g><g transform="translate(-166,-54) scale(1,1)"><path fill="none" stroke="#000000" d="M 392 1040.5 C 392 1030.835016 450.6506912 1023 523 1023 C 595.3493088 1023 654 1030.835016 654 1040.5 C 654 1050.164984 595.3493088 1058 523 1058 C 450.6506912 1058 392 1050.164984 392 1040.5 Z" stroke-miterlimit="10"/></g><g transform="translate(-166,-54) scale(1,1)"><g><path fill="none" stroke="none"/><text fill="#000000" stroke="none" font-family="Roboto" font-size="14px" font-style="normal" font-weight="bold" text-decoration="none" x="435.58544921875" y="1048">Thông báo khi sách quá hạn</text></g></g><g transform="translate(-166,-54) scale(1,1)"><path fill="none" stroke="#000000" d="M 347 980 L 471 1022" stroke-miterlimit="10"/></g><g transform="translate(-166,-54) scale(1,1)"><path fill="none" stroke="#000000" d="M 460.02403473019973 1022.7267643332868 L 471 1022 L 462.72492053926453 1014.7527205160478" stroke-miterlimit="10"/></g><g transform="translate(-166,-54) scale(1,1)"><path fill="none" stroke="#000000" d="M 978 527 L 1009 516" stroke-miterlimit="10" stroke-dasharray="3"/></g><g transform="translate(-166,-54) scale(1,1)"><path fill="none" stroke="#000000" d="M 1000.8301174269033 523.3656648540243 L 1009 516 L 998.0147090648375 515.4313321972935" stroke-miterlimit="10"/></g><g transform="translate(-166,-54) scale(1,1)"><g><path fill="none" stroke="none"/><text fill="#000000" stroke="none" font-family="Roboto" font-size="14px" font-style="normal" font-weight="normal" text-decoration="none" x="956.5" y="498.5">«extend»</text></g></g><g transform="translate(-166,-54) scale(1,1)"><path fill="none" stroke="#000000" d="M 1463 608 L 1128 515" stroke-miterlimit="10"/></g><g transform="translate(-166,-54) scale(1,1)"><path fill="none" stroke="#000000" d="M 1138.9183650107616 513.662350759063 L 1128 515 L 1136.666310787695 521.7745890894638" stroke-miterlimit="10"/></g><g transform="translate(-166,-54) scale(1,1)"><path fill="none" stroke="#000000" d="M 1463 603 L 1090 444" stroke-miterlimit="10"/></g><g transform="translate(-166,-54) scale(1,1)"><path fill="none" stroke="#000000" d="M 1100.9994221949244 444.11274474623457 L 1090 444 L 1097.6980434485592 451.85748859777055" stroke-miterlimit="10"/></g><g transform="translate(-166,-54) scale(1,1)"><path fill="none" stroke="#000000" d="M 1463 614 L 1153 597" stroke-miterlimit="10"/></g><g transform="translate(-166,-54) scale(1,1)"><path fill="none" stroke="#000000" d="M 1163.3779264076222 593.3532694810314 L 1153 597 L 1162.9169300166072 601.7596742583619" stroke-miterlimit="10"/></g><g transform="translate(-166,-54) scale(1,1)"><path fill="#C0C0C0" stroke="none" d="M 1359 888.5 C 1359 878.835016 1387.6537728 871 1423 871 C 1458.3462272 871 1487 878.835016 1487 888.5 C 1487 898.164984 1458.3462272 906 1423 906 C 1387.6537728 906 1359 898.164984 1359 888.5 Z" opacity="0.2"/></g><g transform="translate(-166,-54) scale(1,1)"><path fill="#ebd8ff" stroke="none" d="M 1352 881.5 C 1352 871.835016 1380.6537728 864 1416 864 C 1451.3462272 864 1480 871.835016 1480 881.5 C 1480 891.164984 1451.3462272 899 1416 899 C 1380.6537728 899 1352 891.164984 1352 881.5 Z"/></g><g transform="translate(-166,-54) scale(1,1)"><path fill="none" stroke="#000000" d="M 1352 881.5 C 1352 871.835016 1380.6537728 864 1416 864 C 1451.3462272 864 1480 871.835016 1480 881.5 C 1480 891.164984 1451.3462272 899 1416 899 C 1380.6537728 899 1352 891.164984 1352 881.5 Z" stroke-miterlimit="10"/></g><g transform="translate(-166,-54) scale(1,1)"><g><path fill="none" stroke="none"/><text fill="#000000" stroke="none" font-family="Roboto" font-size="14px" font-style="normal" font-weight="bold" text-decoration="none" x="1375.0732421875" y="889">Xuất báo cáo</text></g></g><g transform="translate(-166,-54) scale(1,1)"><path fill="none" stroke="#000000" d="M 1481 657 L 1421 863" stroke-miterlimit="10"/></g><g transform="translate(-166,-54) scale(1,1)"><path fill="none" stroke="#000000" d="M 1419.8003348788695 852.0656137073386 L 1421 863 L 1427.88348735335 854.4199299620416" stroke-miterlimit="10"/></g><g transform="translate(-166,-54) scale(1,1)"><path fill="#C0C0C0" stroke="none" d="M 543 168.5 C 543 158.835016 568.2959088 151 599.5 151 C 630.7040912 151 656 158.835016 656 168.5 C 656 178.164984 630.7040912 186 599.5 186 C 568.2959088 186 543 178.164984 543 168.5 Z" opacity="0.2"/></g><g transform="translate(-166,-54) scale(1,1)"><path fill="#ebd8ff" stroke="none" d="M 536 161.5 C 536 151.835016 561.2959088 144 592.5 144 C 623.7040912 144 649 151.835016 649 161.5 C 649 171.164984 623.7040912 179 592.5 179 C 561.2959088 179 536 171.164984 536 161.5 Z"/></g><g transform="translate(-166,-54) scale(1,1)"><path fill="none" stroke="#000000" d="M 536 161.5 C 536 151.835016 561.2959088 144 592.5 144 C 623.7040912 144 649 151.835016 649 161.5 C 649 171.164984 623.7040912 179 592.5 179 C 561.2959088 179 536 171.164984 536 161.5 Z" stroke-miterlimit="10"/></g><g transform="translate(-166,-54) scale(1,1)"><g><path fill="none" stroke="none"/><text fill="#000000" stroke="none" font-family="Roboto" font-size="14px" font-style="normal" font-weight="bold" text-decoration="none" x="557.50341796875" y="169">Tìm theo id</text></g></g><g transform="translate(-166,-54) scale(1,1)"><path fill="none" stroke="#000000" d="M 631 180 L 750 239" stroke-miterlimit="10" stroke-dasharray="3"/></g><g transform="translate(-166,-54) scale(1,1)"><path fill="none" stroke="#000000" d="M 739.0251103932015 238.25716884920755 L 750 239 L 742.764842080261 230.7143201922571" stroke-miterlimit="10"/></g><g transform="translate(-166,-54) scale(1,1)"><g><path fill="none" stroke="none"/><text fill="#000000" stroke="none" font-family="Roboto" font-size="14px" font-style="normal" font-weight="normal" text-decoration="none" x="675.5" y="188.5">«extend»</text></g></g><g transform="translate(-166,-54) scale(1,1)"><path fill="#C0C0C0" stroke="none" d="M 1255 216.5 C 1255 206.835016 1311.4121152 199 1381 199 C 1450.5878848 199 1507 206.835016 1507 216.5 C 1507 226.164984 1450.5878848 234 1381 234 C 1311.4121152 234 1255 226.164984 1255 216.5 Z" opacity="0.2"/></g><g transform="translate(-166,-54) scale(1,1)"><path fill="#ebd8ff" stroke="none" d="M 1248 209.5 C 1248 199.835016 1304.4121152 192 1374 192 C 1443.5878848 192 1500 199.835016 1500 209.5 C 1500 219.164984 1443.5878848 227 1374 227 C 1304.4121152 227 1248 219.164984 1248 209.5 Z"/></g><g transform="translate(-166,-54) scale(1,1)"><path fill="none" stroke="#000000" d="M 1248 209.5 C 1248 199.835016 1304.4121152 192 1374 192 C 1443.5878848 192 1500 199.835016 1500 209.5 C 1500 219.164984 1443.5878848 227 1374 227 C 1304.4121152 227 1248 219.164984 1248 209.5 Z" stroke-miterlimit="10"/></g><g transform="translate(-166,-54) scale(1,1)"><g><path fill="none" stroke="none"/><text fill="#000000" stroke="none" font-family="Roboto" font-size="14px" font-style="normal" font-weight="bold" text-decoration="none" x="1290.2802734375" y="217">Phân loại sách theo chủ đề</text></g></g><g transform="translate(-166,-54) scale(1,1)"><path fill="#C0C0C0" stroke="none" d="M 1047 264.5 C 1047 254.835016 1069.6096176 247 1097.5 247 C 1125.3903824 247 1148 254.835016 1148 264.5 C 1148 274.164984 1125.3903824 282 1097.5 282 C 1069.6096176 282 1047 274.164984 1047 264.5 Z" opacity="0.2"/></g><g transform="translate(-166,-54) scale(1,1)"><path fill="#ebd8ff" stroke="none" d="M 1040 257.5 C 1040 247.835016 1062.6096176 240 1090.5 240 C 1118.3903824 240 1141 247.835016 1141 257.5 C 1141 267.164984 1118.3903824 275 1090.5 275 C 1062.6096176 275 1040 267.164984 1040 257.5 Z"/></g><g transform="translate(-166,-54) scale(1,1)"><path fill="none" stroke="#000000" d="M 1040 257.5 C 1040 247.835016 1062.6096176 240 1090.5 240 C 1118.3903824 240 1141 247.835016 1141 257.5 C 1141 267.164984 1118.3903824 275 1090.5 275 C 1062.6096176 275 1040 267.164984 1040 257.5 Z" stroke-miterlimit="10"/></g><g transform="translate(-166,-54) scale(1,1)"><g><path fill="none" stroke="none"/><text fill="#000000" stroke="none" font-family="Roboto" font-size="14px" font-style="normal" font-weight="bold" text-decoration="none" x="1061.62841796875" y="265">Phân loại</text></g></g><g transform="translate(-166,-54) scale(1,1)"><path fill="none" stroke="#000000" d="M 1039 257 L 839 257" stroke-miterlimit="10" stroke-dasharray="3"/></g><g transform="translate(-166,-54) scale(1,1)"><path fill="none" stroke="#000000" d="M 849.1626748576241 252.790482243984 L 839 257 L 849.1626748576241 261.209517756016" stroke-miterlimit="10"/></g><g transform="translate(-166,-54) scale(1,1)"><g><path fill="none" stroke="none"/><text fill="#000000" stroke="none" font-family="Roboto" font-size="14px" font-style="normal" font-weight="normal" text-decoration="none" x="910.5" y="293.5">«extend»</text></g></g><g transform="translate(-166,-54) scale(1,1)"><path fill="none" stroke="#000000" d="M 1189 100 L 1101 239" stroke-miterlimit="10" stroke-dasharray="3"/></g><g transform="translate(-166,-54) scale(1,1)"><path fill="none" stroke="#000000" d="M 1102.8794242311915 228.1617453176625 L 1101 239 L 1109.9927570007094 232.66515023649407" stroke-miterlimit="10"/></g><g transform="translate(-166,-54) scale(1,1)"><g><path fill="none" stroke="none"/><text fill="#000000" stroke="none" font-family="Roboto" font-size="14px" font-style="normal" font-weight="normal" text-decoration="none" x="1142.5" y="190.5">«extend»</text></g></g><g transform="translate(-166,-54) scale(1,1)"><path fill="none" stroke="#000000" d="M 1219 279 L 1142 266" stroke-miterlimit="10" stroke-dasharray="3"/></g><g transform="translate(-166,-54) scale(1,1)"><path fill="none" stroke="#000000" d="M 1152.7216416557978 263.541057096096 L 1142 266 L 1151.3200807221679 271.84261031836576" stroke-miterlimit="10"/></g><g transform="translate(-166,-54) scale(1,1)"><g><path fill="none" stroke="none"/><text fill="#000000" stroke="none" font-family="Roboto" font-size="14px" font-style="normal" font-weight="normal" text-decoration="none" x="1147.5" y="307.5">«extend»</text></g></g><g transform="translate(-166,-54) scale(1,1)"><path fill="none" stroke="#000000" d="M 1262 228 L 1142 248" stroke-miterlimit="10" stroke-dasharray="3"/></g><g transform="translate(-166,-54) scale(1,1)"><path fill="none" stroke="#000000" d="M 1151.3323602733092 242.17702380829527 L 1142 248 L 1152.7164411855751 250.48150928189065" stroke-miterlimit="10"/></g><g transform="translate(-166,-54) scale(1,1)"><g><path fill="none" stroke="none"/><text fill="#000000" stroke="none" font-family="Roboto" font-size="14px" font-style="normal" font-weight="normal" text-decoration="none" x="1178.5" y="273.5">«extend»</text></g></g><g transform="translate(-166,-54) scale(1,1)"><path fill="none" stroke="#000000" d="M 1259 172 L 1126 239" stroke-miterlimit="10" stroke-dasharray="3"/></g><g transform="translate(-166,-54) scale(1,1)"><path fill="none" stroke="#000000" d="M 1133.1822318348036 230.6684007614905 L 1126 239 L 1136.9699351541224 238.18727451476482" stroke-miterlimit="10"/></g><g transform="translate(-166,-54) scale(1,1)"><g><path fill="none" stroke="none"/><text fill="#000000" stroke="none" font-family="Roboto" font-size="14px" font-style="normal" font-weight="normal" text-decoration="none" x="1177.5" y="237.5">«extend»</text></g></g><g transform="translate(-166,-54) scale(1,1)"><path fill="none" stroke="#000000" d="M 681 689 L 1147 1079" stroke-miterlimit="10"/></g><g transform="translate(-166,-54) scale(1,1)"><path fill="none" stroke="#000000" d="M 1136.504867148125 1075.705734312249 L 1147 1079 L 1141.9082179978245 1069.2494227841464" stroke-miterlimit="10"/></g><g transform="translate(-166,-54) scale(1,1)"><path fill="none" stroke="#000000" d="M 1465 657 L 1180 1079" stroke-miterlimit="10"/></g><g transform="translate(-166,-54) scale(1,1)"><path fill="none" stroke="#000000" d="M 1182.1993190007574 1068.2221061457765 L 1180 1079 L 1189.176275210658 1072.9340315481977" stroke-miterlimit="10"/></g><g transform="translate(-166,-54) scale(1,1)"><path fill="#C0C0C0" stroke="none" d="M 1063 1160.5 C 1063 1150.835016 1118.2928272 1143 1186.5 1143 C 1254.7071728 1143 1310 1150.835016 1310 1160.5 C 1310 1170.164984 1254.7071728 1178 1186.5 1178 C 1118.2928272 1178 1063 1170.164984 1063 1160.5 Z" opacity="0.2"/></g><g transform="translate(-166,-54) scale(1,1)"><path fill="#ebd8ff" stroke="none" d="M 1056 1153.5 C 1056 1143.835016 1111.2928272 1136 1179.5 1136 C 1247.7071728 1136 1303 1143.835016 1303 1153.5 C 1303 1163.164984 1247.7071728 1171 1179.5 1171 C 1111.2928272 1171 1056 1163.164984 1056 1153.5 Z"/></g><g transform="translate(-166,-54) scale(1,1)"><path fill="none" stroke="#000000" d="M 1056 1153.5 C 1056 1143.835016 1111.2928272 1136 1179.5 1136 C 1247.7071728 1136 1303 1143.835016 1303 1153.5 C 1303 1163.164984 1247.7071728 1171 1179.5 1171 C 1111.2928272 1171 1056 1163.164984 1056 1153.5 Z" stroke-miterlimit="10"/></g><g transform="translate(-166,-54) scale(1,1)"><g><path fill="none" stroke="none"/><text fill="#000000" stroke="none" font-family="Roboto" font-size="14px" font-style="normal" font-weight="bold" text-decoration="none" x="1096.744140625" y="1161">Xem danh sách phòng đọc</text></g></g><g transform="translate(-166,-54) scale(1,1)"><path fill="none" stroke="#000000" d="M 681 691 L 1160 1135" stroke-miterlimit="10"/></g><g transform="translate(-166,-54) scale(1,1)"><path fill="none" stroke="#000000" d="M 1149.685114250281 1131.1785955500306 L 1160 1135 L 1155.4084153394392 1125.0041333389795" stroke-miterlimit="10"/></g><g transform="translate(-166,-54) scale(1,1)"><path fill="none" stroke="#000000" d="M 1469 657 L 1190 1135" stroke-miterlimit="10"/></g><g transform="translate(-166,-54) scale(1,1)"><path fill="none" stroke="#000000" d="M 1191.4874197838476 1124.1010283794012 L 1190 1135 L 1198.758501356515 1128.3450278747446" stroke-miterlimit="10"/></g><g transform="translate(-166,-54) scale(1,1)"><path fill="#C0C0C0" stroke="none" d="M 1047 1104.5 C 1047 1094.835016 1104.5314032 1087 1175.5 1087 C 1246.4685968 1087 1304 1094.835016 1304 1104.5 C 1304 1114.164984 1246.4685968 1122 1175.5 1122 C 1104.5314032 1122 1047 1114.164984 1047 1104.5 Z" opacity="0.2"/></g><g transform="translate(-166,-54) scale(1,1)"><path fill="#ebd8ff" stroke="none" d="M 1040 1097.5 C 1040 1087.835016 1097.5314032 1080 1168.5 1080 C 1239.4685968 1080 1297 1087.835016 1297 1097.5 C 1297 1107.164984 1239.4685968 1115 1168.5 1115 C 1097.5314032 1115 1040 1107.164984 1040 1097.5 Z"/></g><g transform="translate(-166,-54) scale(1,1)"><path fill="none" stroke="#000000" d="M 1040 1097.5 C 1040 1087.835016 1097.5314032 1080 1168.5 1080 C 1239.4685968 1080 1297 1087.835016 1297 1097.5 C 1297 1107.164984 1239.4685968 1115 1168.5 1115 C 1097.5314032 1115 1040 1107.164984 1040 1097.5 Z" stroke-miterlimit="10"/></g><g transform="translate(-166,-54) scale(1,1)"><g><path fill="none" stroke="none"/><text fill="#000000" stroke="none" font-family="Roboto" font-size="14px" font-style="normal" font-weight="bold" text-decoration="none" x="1083.3173828125" y="1105">Chỉnh sửa thông tin đọc giả</text></g></g><g transform="translate(-166,-54) scale(1,1)"><path fill="#ebd8ff" stroke="none" d="M 1048 1041.5 C 1048 1031.835016 1109.1131248 1024 1184.5 1024 C 1259.8868752 1024 1321 1031.835016 1321 1041.5 C 1321 1051.164984 1259.8868752 1059 1184.5 1059 C 1109.1131248 1059 1048 1051.164984 1048 1041.5 Z"/></g><g transform="translate(-166,-54) scale(1,1)"><path fill="none" stroke="#000000" d="M 1048 1041.5 C 1048 1031.835016 1109.1131248 1024 1184.5 1024 C 1259.8868752 1024 1321 1031.835016 1321 1041.5 C 1321 1051.164984 1259.8868752 1059 1184.5 1059 C 1109.1131248 1059 1048 1051.164984 1048 1041.5 Z" stroke-miterlimit="10"/></g><g transform="translate(-166,-54) scale(1,1)"><g><path fill="none" stroke="none"/><text fill="#000000" stroke="none" font-family="Roboto" font-size="14px" font-style="normal" font-weight="bold" text-decoration="none" x="1093.8486328125" y="1049">Xem thông tin chi tiết đọc giả</text></g></g><g transform="translate(-166,-54) scale(1,1)"><path fill="#ebd8ff" stroke="none" d="M 1072 961.5 C 1072 951.835016 1109.1603616 944 1155 944 C 1200.8396384 944 1238 951.835016 1238 961.5 C 1238 971.164984 1200.8396384 979 1155 979 C 1109.1603616 979 1072 971.164984 1072 961.5 Z"/></g><g transform="translate(-166,-54) scale(1,1)"><path fill="none" stroke="#000000" d="M 1072 961.5 C 1072 951.835016 1109.1603616 944 1155 944 C 1200.8396384 944 1238 951.835016 1238 961.5 C 1238 971.164984 1200.8396384 979 1155 979 C 1109.1603616 979 1072 971.164984 1072 961.5 Z" stroke-miterlimit="10"/></g><g transform="translate(-166,-54) scale(1,1)"><g><path fill="none" stroke="none"/><text fill="#000000" stroke="none" font-family="Roboto" font-size="14px" font-style="normal" font-weight="bold" text-decoration="none" x="1101.5224609375" y="969">Xem chi tiết sách</text></g></g><g transform="translate(-166,-54) scale(1,1)"><path fill="#C0C0C0" stroke="none" d="M 1071 688.5 C 1071 678.835016 1114.4283744 671 1168 671 C 1221.5716256 671 1265 678.835016 1265 688.5 C 1265 698.164984 1221.5716256 706 1168 706 C 1114.4283744 706 1071 698.164984 1071 688.5 Z" opacity="0.2"/></g><g transform="translate(-166,-54) scale(1,1)"><path fill="#ebd8ff" stroke="none" d="M 1064 681.5 C 1064 671.835016 1107.4283744 664 1161 664 C 1214.5716256 664 1258 671.835016 1258 681.5 C 1258 691.164984 1214.5716256 699 1161 699 C 1107.4283744 699 1064 691.164984 1064 681.5 Z"/></g><g transform="translate(-166,-54) scale(1,1)"><path fill="none" stroke="#000000" d="M 1064 681.5 C 1064 671.835016 1107.4283744 664 1161 664 C 1214.5716256 664 1258 671.835016 1258 681.5 C 1258 691.164984 1214.5716256 699 1161 699 C 1107.4283744 699 1064 691.164984 1064 681.5 Z" stroke-miterlimit="10"/></g><g transform="translate(-166,-54) scale(1,1)"><g><path fill="none" stroke="none"/><text fill="#000000" stroke="none" font-family="Roboto" font-size="14px" font-style="normal" font-weight="bold" text-decoration="none" x="1098.4306640625" y="689">Chỉnh sửa ngôn ngữ</text></g></g><g transform="translate(-166,-54) scale(1,1)"><path fill="none" stroke="#000000" d="M 681 665 L 1063 678" stroke-miterlimit="10"/></g><g transform="translate(-166,-54) scale(1,1)"><path fill="none" stroke="#000000" d="M 1052.7000319642357 681.8614321776039 L 1063 678 L 1052.9863778780307 673.4472676337821" stroke-miterlimit="10"/></g><g transform="translate(-166,-54) scale(1,1)"><path fill="none" stroke="#000000" d="M 1463 622 L 1253 663" stroke-miterlimit="10"/></g><g transform="translate(-166,-54) scale(1,1)"><path fill="none" stroke="#000000" d="M 1262.1677234445658 656.921114670932 L 1253 663 L 1263.7809804539347 665.184138377456" stroke-miterlimit="10"/></g><g transform="translate(-166,-54) scale(1,1)"><path fill="#C0C0C0" stroke="none" d="M 1167 384.5 C 1167 374.835016 1212.6669504 367 1269 367 C 1325.3330496 367 1371 374.835016 1371 384.5 C 1371 394.164984 1325.3330496 402 1269 402 C 1212.6669504 402 1167 394.164984 1167 384.5 Z" opacity="0.2"/></g><g transform="translate(-166,-54) scale(1,1)"><path fill="#ebd8ff" stroke="none" d="M 1160 377.5 C 1160 367.835016 1205.6669504 360 1262 360 C 1318.3330496 360 1364 367.835016 1364 377.5 C 1364 387.164984 1318.3330496 395 1262 395 C 1205.6669504 395 1160 387.164984 1160 377.5 Z"/></g><g transform="translate(-166,-54) scale(1,1)"><path fill="none" stroke="#000000" d="M 1160 377.5 C 1160 367.835016 1205.6669504 360 1262 360 C 1318.3330496 360 1364 367.835016 1364 377.5 C 1364 387.164984 1318.3330496 395 1262 395 C 1205.6669504 395 1160 387.164984 1160 377.5 Z" stroke-miterlimit="10"/></g><g transform="translate(-166,-54) scale(1,1)"><g><path fill="none" stroke="none"/><text fill="#000000" stroke="none" font-family="Roboto" font-size="14px" font-style="normal" font-weight="bold" text-decoration="none" x="1195.322265625" y="385">Cập nhật phiểu mượn</text></g></g><g transform="translate(-166,-54) scale(1,1)"><path fill="none" stroke="#000000" d="M 1463 585 L 1280 396" stroke-miterlimit="10"/></g><g transform="translate(-166,-54) scale(1,1)"><path fill="none" stroke="#000000" d="M 1290.0934666094454 400.37286311288267 L 1280 396 L 1284.045077524899 406.2292398455387" stroke-miterlimit="10"/></g><g transform="translate(-166,-54) scale(1,1)"><path fill="none" stroke="#000000" d="M 1093 479 L 1230 396" stroke-miterlimit="10" stroke-dasharray="3"/></g><g transform="translate(-166,-54) scale(1,1)"><path fill="none" stroke="#000000" d="M 1223.4892682546292 404.86624904566867 L 1230 396 L 1219.1268326084808 397.66560225624283" stroke-miterlimit="10"/></g><g transform="translate(-166,-54) scale(1,1)"><g><path fill="none" stroke="none"/><text fill="#000000" stroke="none" font-family="Roboto" font-size="14px" font-style="normal" font-weight="normal" text-decoration="none" x="1115.5" y="417.5">«include»</text></g></g><g transform="translate(-166,-54) scale(1,1)"><path fill="#C0C0C0" stroke="none" d="M 1471 312.5 C 1471 302.835016 1521.1441024 295 1583 295 C 1644.8558976 295 1695 302.835016 1695 312.5 C 1695 322.164984 1644.8558976 330 1583 330 C 1521.1441024 330 1471 322.164984 1471 312.5 Z" opacity="0.2"/></g><g transform="translate(-166,-54) scale(1,1)"><path fill="#ebd8ff" stroke="none" d="M 1464 305.5 C 1464 295.835016 1514.1441024 288 1576 288 C 1637.8558976 288 1688 295.835016 1688 305.5 C 1688 315.164984 1637.8558976 323 1576 323 C 1514.1441024 323 1464 315.164984 1464 305.5 Z"/></g><g transform="translate(-166,-54) scale(1,1)"><path fill="none" stroke="#000000" d="M 1464 305.5 C 1464 295.835016 1514.1441024 288 1576 288 C 1637.8558976 288 1688 295.835016 1688 305.5 C 1688 315.164984 1637.8558976 323 1576 323 C 1514.1441024 323 1464 315.164984 1464 305.5 Z" stroke-miterlimit="10"/></g><g transform="translate(-166,-54) scale(1,1)"><g><path fill="none" stroke="none"/><text fill="#000000" stroke="none" font-family="Roboto" font-size="14px" font-style="normal" font-weight="bold" text-decoration="none" x="1502.16162109375" y="313">Tìm phiếu mượn theo id</text></g></g><g transform="translate(-166,-54) scale(1,1)"><path fill="none" stroke="#000000" d="M 1341 359 L 1493 324" stroke-miterlimit="10" stroke-dasharray="3"/></g><g transform="translate(-166,-54) scale(1,1)"><path fill="none" stroke="#000000" d="M 1484.0410610692986 330.38258671981544 L 1493 324 L 1482.1519031787723 322.17824388095767" stroke-miterlimit="10"/></g><g transform="translate(-166,-54) scale(1,1)"><g><path fill="none" stroke="none"/><text fill="#000000" stroke="none" font-family="Roboto" font-size="14px" font-style="normal" font-weight="normal" text-decoration="none" x="1380.5" y="317.5">«include»</text></g></g><g transform="translate(-166,-54) scale(1,1)"><path fill="#C0C0C0" stroke="none" d="M 2135 992.5 C 2135 982.835016 2173.7273648 975 2221.5 975 C 2269.2726352 975 2308 982.835016 2308 992.5 C 2308 1002.164984 2269.2726352 1010 2221.5 1010 C 2173.7273648 1010 2135 1002.164984 2135 992.5 Z" opacity="0.2"/></g><g transform="translate(-166,-54) scale(1,1)"><path fill="#ebd8ff" stroke="none" d="M 2128 985.5 C 2128 975.835016 2166.7273648 968 2214.5 968 C 2262.2726352 968 2301 975.835016 2301 985.5 C 2301 995.164984 2262.2726352 1003 2214.5 1003 C 2166.7273648 1003 2128 995.164984 2128 985.5 Z"/></g><g transform="translate(-166,-54) scale(1,1)"><path fill="none" stroke="#000000" d="M 2128 985.5 C 2128 975.835016 2166.7273648 968 2214.5 968 C 2262.2726352 968 2301 975.835016 2301 985.5 C 2301 995.164984 2262.2726352 1003 2214.5 1003 C 2166.7273648 1003 2128 995.164984 2128 985.5 Z" stroke-miterlimit="10"/></g><g transform="translate(-166,-54) scale(1,1)"><g><path fill="none" stroke="none"/><text fill="#000000" stroke="none" font-family="Roboto" font-size="14px" font-style="normal" font-weight="bold" text-decoration="none" x="2158.58203125" y="993">Cập nhật quy định</text></g></g><g transform="translate(-166,-54) scale(1,1)"><path fill="none" stroke="#000000" d="M 1523 631 L 2179 967" stroke-miterlimit="10"/></g><g transform="translate(-166,-54) scale(1,1)"><path fill="none" stroke="#000000" d="M 2168.0357611052696 966.1137351077252 L 2179 967 L 2171.873796242242 958.6204284117317" stroke-miterlimit="10"/></g><g transform="translate(-166,-54) scale(1,1)"><path fill="#C0C0C0" stroke="none" d="M 2135 328.5 C 2135 318.835016 2157.6096176 311 2185.5 311 C 2213.3903824 311 2236 318.835016 2236 328.5 C 2236 338.164984 2213.3903824 346 2185.5 346 C 2157.6096176 346 2135 338.164984 2135 328.5 Z" opacity="0.2"/></g><g transform="translate(-166,-54) scale(1,1)"><path fill="#ebd8ff" stroke="none" d="M 2128 321.5 C 2128 311.835016 2150.6096176 304 2178.5 304 C 2206.3903824 304 2229 311.835016 2229 321.5 C 2229 331.164984 2206.3903824 339 2178.5 339 C 2150.6096176 339 2128 331.164984 2128 321.5 Z"/></g><g transform="translate(-166,-54) scale(1,1)"><path fill="none" stroke="#000000" d="M 2128 321.5 C 2128 311.835016 2150.6096176 304 2178.5 304 C 2206.3903824 304 2229 311.835016 2229 321.5 C 2229 331.164984 2206.3903824 339 2178.5 339 C 2150.6096176 339 2128 331.164984 2128 321.5 Z" stroke-miterlimit="10"/></g><g transform="translate(-166,-54) scale(1,1)"><g><path fill="none" stroke="none"/><text fill="#000000" stroke="none" font-family="Roboto" font-size="14px" font-style="normal" font-weight="bold" text-decoration="none" x="2151.1767578125" y="329">Theo tên</text></g></g><g transform="translate(-166,-54) scale(1,1)"><path fill="#C0C0C0" stroke="none" d="M 2279 432.5 C 2279 422.835016 2301.6096176 415 2329.5 415 C 2357.3903824 415 2380 422.835016 2380 432.5 C 2380 442.164984 2357.3903824 450 2329.5 450 C 2301.6096176 450 2279 442.164984 2279 432.5 Z" opacity="0.2"/></g><g transform="translate(-166,-54) scale(1,1)"><path fill="#ebd8ff" stroke="none" d="M 2272 425.5 C 2272 415.835016 2294.6096176 408 2322.5 408 C 2350.3903824 408 2373 415.835016 2373 425.5 C 2373 435.164984 2350.3903824 443 2322.5 443 C 2294.6096176 443 2272 435.164984 2272 425.5 Z"/></g><g transform="translate(-166,-54) scale(1,1)"><path fill="none" stroke="#000000" d="M 2272 425.5 C 2272 415.835016 2294.6096176 408 2322.5 408 C 2350.3903824 408 2373 415.835016 2373 425.5 C 2373 435.164984 2350.3903824 443 2322.5 443 C 2294.6096176 443 2272 435.164984 2272 425.5 Z" stroke-miterlimit="10"/></g><g transform="translate(-166,-54) scale(1,1)"><g><path fill="none" stroke="none"/><text fill="#000000" stroke="none" font-family="Roboto" font-size="14px" font-style="normal" font-weight="bold" text-decoration="none" x="2299.3876953125" y="433">Theo id</text></g></g><g transform="translate(-166,-54) scale(1,1)"><path fill="none" stroke="#000000" d="M 2175 340 L 2133 607" stroke-miterlimit="10" stroke-dasharray="3"/></g><g transform="translate(-166,-54) scale(1,1)"><path fill="none" stroke="#000000" d="M 2130.4208203248627 596.3066454186088 L 2133 607 L 2138.737588099946 597.614901023678" stroke-miterlimit="10"/></g><g transform="translate(-166,-54) scale(1,1)"><g><path fill="none" stroke="none"/><text fill="#000000" stroke="none" font-family="Roboto" font-size="14px" font-style="normal" font-weight="normal" text-decoration="none" x="2155.5" y="483.5">«extend»</text></g></g><g transform="translate(-166,-54) scale(1,1)"><path fill="none" stroke="#000000" d="M 2304 444 L 2147 607" stroke-miterlimit="10" stroke-dasharray="3"/></g><g transform="translate(-166,-54) scale(1,1)"><path fill="none" stroke="#000000" d="M 2151.0182613295055 596.7601964917387 L 2147 607 L 2157.0819743333823 602.6007053359637" stroke-miterlimit="10"/></g><g transform="translate(-166,-54) scale(1,1)"><g><path fill="none" stroke="none"/><text fill="#000000" stroke="none" font-family="Roboto" font-size="14px" font-style="normal" font-weight="normal" text-decoration="none" x="2218.5" y="551.5">«extend»</text></g></g><g transform="translate(-166,-54) scale(1,1)"><path fill="#C0C0C0" stroke="none" d="M 1815 880.5 C 1815 870.835016 1852.3842192 863 1898.5 863 C 1944.6157808 863 1982 870.835016 1982 880.5 C 1982 890.164984 1944.6157808 898 1898.5 898 C 1852.3842192 898 1815 890.164984 1815 880.5 Z" opacity="0.2"/></g><g transform="translate(-166,-54) scale(1,1)"><path fill="#ebd8ff" stroke="none" d="M 1808 873.5 C 1808 863.835016 1845.3842192 856 1891.5 856 C 1937.6157808 856 1975 863.835016 1975 873.5 C 1975 883.164984 1937.6157808 891 1891.5 891 C 1845.3842192 891 1808 883.164984 1808 873.5 Z"/></g><g transform="translate(-166,-54) scale(1,1)"><path fill="none" stroke="#000000" d="M 1808 873.5 C 1808 863.835016 1845.3842192 856 1891.5 856 C 1937.6157808 856 1975 863.835016 1975 873.5 C 1975 883.164984 1937.6157808 891 1891.5 891 C 1845.3842192 891 1808 883.164984 1808 873.5 Z" stroke-miterlimit="10"/></g><g transform="translate(-166,-54) scale(1,1)"><g><path fill="none" stroke="none"/><text fill="#000000" stroke="none" font-family="Roboto" font-size="14px" font-style="normal" font-weight="bold" text-decoration="none" x="1837.64306640625" y="881">Gia hạn tài khoản</text></g></g><g transform="translate(-166,-54) scale(1,1)"><path fill="none" stroke="#000000" d="M 1523 636 L 1863 855" stroke-miterlimit="10"/></g><g transform="translate(-166,-54) scale(1,1)"><path fill="none" stroke="#000000" d="M 1852.176794590906 853.0357635904618 L 1863 855 L 1856.7357629460926 845.9579131760166" stroke-miterlimit="10"/></g><g transform="translate(-166,-54) scale(1,1)"><path fill="#ebd8ff" stroke="none" d="M 1584 809.5 C 1584 799.835016 1629.6669504 792 1686 792 C 1742.3330496 792 1788 799.835016 1788 809.5 C 1788 819.164984 1742.3330496 827 1686 827 C 1629.6669504 827 1584 819.164984 1584 809.5 Z"/></g><g transform="translate(-166,-54) scale(1,1)"><path fill="none" stroke="#000000" d="M 1584 809.5 C 1584 799.835016 1629.6669504 792 1686 792 C 1742.3330496 792 1788 799.835016 1788 809.5 C 1788 819.164984 1742.3330496 827 1686 827 C 1629.6669504 827 1584 819.164984 1584 809.5 Z" stroke-miterlimit="10"/></g><g transform="translate(-166,-54) scale(1,1)"><g><path fill="none" stroke="none"/><text fill="#000000" stroke="none" font-family="Roboto" font-size="14px" font-style="normal" font-weight="bold" text-decoration="none" x="1618.953125" y="817">Xóa tài khoản đọc giả</text></g></g><g transform="translate(-166,-54) scale(1,1)"><path fill="#C0C0C0" stroke="none" d="M 1287 992.5 C 1287 982.835016 1335.8009568 975 1396 975 C 1456.1990432 975 1505 982.835016 1505 992.5 C 1505 1002.164984 1456.1990432 1010 1396 1010 C 1335.8009568 1010 1287 1002.164984 1287 992.5 Z" opacity="0.2"/></g><g transform="translate(-166,-54) scale(1,1)"><path fill="#ebd8ff" stroke="none" d="M 1280 985.5 C 1280 975.835016 1328.8009568 968 1389 968 C 1449.1990432 968 1498 975.835016 1498 985.5 C 1498 995.164984 1449.1990432 1003 1389 1003 C 1328.8009568 1003 1280 995.164984 1280 985.5 Z"/></g><g transform="translate(-166,-54) scale(1,1)"><path fill="none" stroke="#000000" d="M 1280 985.5 C 1280 975.835016 1328.8009568 968 1389 968 C 1449.1990432 968 1498 975.835016 1498 985.5 C 1498 995.164984 1449.1990432 1003 1389 1003 C 1328.8009568 1003 1280 995.164984 1280 985.5 Z" stroke-miterlimit="10"/></g><g transform="translate(-166,-54) scale(1,1)"><g><path fill="none" stroke="none"/><text fill="#000000" stroke="none" font-family="Roboto" font-size="14px" font-style="normal" font-weight="bold" text-decoration="none" x="1317.3798828125" y="993">Xem thống kê tiền phạt</text></g></g><g transform="translate(-166,-54) scale(1,1)"><path fill="#C0C0C0" stroke="none" d="M 1655 960.5 C 1655 950.835016 1730.8877264 943 1824.5 943 C 1918.1122736 943 1994 950.835016 1994 960.5 C 1994 970.164984 1918.1122736 978 1824.5 978 C 1730.8877264 978 1655 970.164984 1655 960.5 Z" opacity="0.2"/></g><g transform="translate(-166,-54) scale(1,1)"><path fill="#ebd8ff" stroke="none" d="M 1648 953.5 C 1648 943.835016 1723.8877264 936 1817.5 936 C 1911.1122736 936 1987 943.835016 1987 953.5 C 1987 963.164984 1911.1122736 971 1817.5 971 C 1723.8877264 971 1648 963.164984 1648 953.5 Z"/></g><g transform="translate(-166,-54) scale(1,1)"><path fill="none" stroke="#000000" d="M 1648 953.5 C 1648 943.835016 1723.8877264 936 1817.5 936 C 1911.1122736 936 1987 943.835016 1987 953.5 C 1987 963.164984 1911.1122736 971 1817.5 971 C 1723.8877264 971 1648 963.164984 1648 953.5 Z" stroke-miterlimit="10"/></g><g transform="translate(-166,-54) scale(1,1)"><g><path fill="none" stroke="none"/><text fill="#000000" stroke="none" font-family="Roboto" font-size="14px" font-style="normal" font-weight="bold" text-decoration="none" x="1703.73291015625" y="961">Xem sách mượn nhiều theo thời gian</text></g></g><g transform="translate(-166,-54) scale(1,1)"><path fill="#C0C0C0" stroke="none" d="M 1719 1048.5 C 1719 1038.835016 1777.6506912 1031 1850 1031 C 1922.3493088 1031 1981 1038.835016 1981 1048.5 C 1981 1058.164984 1922.3493088 1066 1850 1066 C 1777.6506912 1066 1719 1058.164984 1719 1048.5 Z" opacity="0.2"/></g><g transform="translate(-166,-54) scale(1,1)"><path fill="#ebd8ff" stroke="none" d="M 1712 1041.5 C 1712 1031.835016 1770.6506912 1024 1843 1024 C 1915.3493088 1024 1974 1031.835016 1974 1041.5 C 1974 1051.164984 1915.3493088 1059 1843 1059 C 1770.6506912 1059 1712 1051.164984 1712 1041.5 Z"/></g><g transform="translate(-166,-54) scale(1,1)"><path fill="none" stroke="#000000" d="M 1712 1041.5 C 1712 1031.835016 1770.6506912 1024 1843 1024 C 1915.3493088 1024 1974 1031.835016 1974 1041.5 C 1974 1051.164984 1915.3493088 1059 1843 1059 C 1770.6506912 1059 1712 1051.164984 1712 1041.5 Z" stroke-miterlimit="10"/></g><g transform="translate(-166,-54) scale(1,1)"><g><path fill="none" stroke="none"/><text fill="#000000" stroke="none" font-family="Roboto" font-size="14px" font-style="normal" font-weight="bold" text-decoration="none" x="1755.26416015625" y="1049">Xem sách mươn ít theo năm</text></g></g><g transform="translate(-166,-54) scale(1,1)"><path fill="#C0C0C0" stroke="none" d="M 1591 1112.5 C 1591 1102.835016 1651.441552 1095 1726 1095 C 1800.558448 1095 1861 1102.835016 1861 1112.5 C 1861 1122.164984 1800.558448 1130 1726 1130 C 1651.441552 1130 1591 1122.164984 1591 1112.5 Z" opacity="0.2"/></g><g transform="translate(-166,-54) scale(1,1)"><path fill="#ebd8ff" stroke="none" d="M 1584 1105.5 C 1584 1095.835016 1644.441552 1088 1719 1088 C 1793.558448 1088 1854 1095.835016 1854 1105.5 C 1854 1115.164984 1793.558448 1123 1719 1123 C 1644.441552 1123 1584 1115.164984 1584 1105.5 Z"/></g><g transform="translate(-166,-54) scale(1,1)"><path fill="none" stroke="#000000" d="M 1584 1105.5 C 1584 1095.835016 1644.441552 1088 1719 1088 C 1793.558448 1088 1854 1095.835016 1854 1105.5 C 1854 1115.164984 1793.558448 1123 1719 1123 C 1644.441552 1123 1584 1115.164984 1584 1105.5 Z" stroke-miterlimit="10"/></g><g transform="translate(-166,-54) scale(1,1)"><g><path fill="none" stroke="none"/><text fill="#000000" stroke="none" font-family="Roboto" font-size="14px" font-style="normal" font-weight="bold" text-decoration="none" x="1628.85791015625" y="1113">Xem thống kê nhập sách mới</text></g></g><g transform="translate(-166,-54) scale(1,1)"><path fill="#C0C0C0" stroke="none" d="M 1311 1072.5 C 1311 1062.835016 1386.6638688 1055 1480 1055 C 1573.3361312 1055 1649 1062.835016 1649 1072.5 C 1649 1082.164984 1573.3361312 1090 1480 1090 C 1386.6638688 1090 1311 1082.164984 1311 1072.5 Z" opacity="0.2"/></g><g transform="translate(-166,-54) scale(1,1)"><path fill="#ebd8ff" stroke="none" d="M 1304 1065.5 C 1304 1055.835016 1379.6638688 1048 1473 1048 C 1566.3361312 1048 1642 1055.835016 1642 1065.5 C 1642 1075.164984 1566.3361312 1083 1473 1083 C 1379.6638688 1083 1304 1075.164984 1304 1065.5 Z"/></g><g transform="translate(-166,-54) scale(1,1)"><path fill="none" stroke="#000000" d="M 1304 1065.5 C 1304 1055.835016 1379.6638688 1048 1473 1048 C 1566.3361312 1048 1642 1055.835016 1642 1065.5 C 1642 1075.164984 1566.3361312 1083 1473 1083 C 1379.6638688 1083 1304 1075.164984 1304 1065.5 Z" stroke-miterlimit="10"/></g><g transform="translate(-166,-54) scale(1,1)"><g><path fill="none" stroke="none"/><text fill="#000000" stroke="none" font-family="Roboto" font-size="14px" font-style="normal" font-weight="bold" text-decoration="none" x="1359.52001953125" y="1073">Xem thống kê sách có trong thư viện</text></g></g><g transform="translate(-166,-54) scale(1,1)"><path fill="none" stroke="#000000" d="M 1472 948 L 1430 967" stroke-miterlimit="10"/></g><g transform="translate(-166,-54) scale(1,1)"><path fill="none" stroke="#000000" d="M 1437.5242656133958 958.9759469730647 L 1430 967 L 1440.9943215466274 966.6465969307344" stroke-miterlimit="10"/></g><g transform="translate(-166,-54) scale(1,1)"><path fill="none" stroke="#000000" d="M 1584 934 L 1647 939" stroke-miterlimit="10"/></g><g transform="translate(-166,-54) scale(1,1)"><path fill="none" stroke="#000000" d="M 1636.536139664587 942.392289327426 L 1647 939 L 1637.2022226122708 933.9996441866102" stroke-miterlimit="10"/></g><g transform="translate(-166,-54) scale(1,1)"><path fill="none" stroke="#000000" d="M 1571 948 L 1790 1023" stroke-miterlimit="10"/></g><g transform="translate(-166,-54) scale(1,1)"><path fill="none" stroke="#000000" d="M 1779.0216508609092 1023.6898189474214 L 1790 1023 L 1781.7493592220028 1015.7249105330279" stroke-miterlimit="10"/></g><g transform="translate(-166,-54) scale(1,1)"><path fill="none" stroke="#000000" d="M 1537 948 L 1698 1087" stroke-miterlimit="10"/></g><g transform="translate(-166,-54) scale(1,1)"><path fill="none" stroke="#000000" d="M 1687.5566704742198 1083.545022660571 L 1698 1087 L 1693.058488779711 1077.172412968599" stroke-miterlimit="10"/></g><g transform="translate(-166,-54) scale(1,1)"><path fill="none" stroke="#000000" d="M 1509 948 L 1479 1047" stroke-miterlimit="10"/></g><g transform="translate(-166,-54) scale(1,1)"><path fill="none" stroke="#000000" d="M 1477.918639641163 1036.053280867112 L 1479 1047 L 1485.9758620879697 1038.4948634267505" stroke-miterlimit="10"/></g><g transform="translate(-166,-54) scale(1,1)"><path fill="#C0C0C0" stroke="none" d="M 1791 376.5 C 1791 366.835016 1861.7390016 359 1949 359 C 2036.2609984 359 2107 366.835016 2107 376.5 C 2107 386.164984 2036.2609984 394 1949 394 C 1861.7390016 394 1791 386.164984 1791 376.5 Z" opacity="0.2"/></g><g transform="translate(-166,-54) scale(1,1)"><path fill="#ebd8ff" stroke="none" d="M 1784 369.5 C 1784 359.835016 1854.7390016 352 1942 352 C 2029.2609984 352 2100 359.835016 2100 369.5 C 2100 379.164984 2029.2609984 387 1942 387 C 1854.7390016 387 1784 379.164984 1784 369.5 Z"/></g><g transform="translate(-166,-54) scale(1,1)"><path fill="none" stroke="#000000" d="M 1784 369.5 C 1784 359.835016 1854.7390016 352 1942 352 C 2029.2609984 352 2100 359.835016 2100 369.5 C 2100 379.164984 2029.2609984 387 1942 387 C 1854.7390016 387 1784 379.164984 1784 369.5 Z" stroke-miterlimit="10"/></g><g transform="translate(-166,-54) scale(1,1)"><g><path fill="none" stroke="none"/><text fill="#000000" stroke="none" font-family="Roboto" font-size="14px" font-style="normal" font-weight="bold" text-decoration="none" x="1835.8857421875" y="377">Nhập danh sách sách theo file csv</text></g></g><g transform="translate(-166,-54) scale(1,1)"><path fill="#C0C0C0" stroke="none" d="M 1815 464.5 C 1815 454.835016 1882.8288528 447 1966.5 447 C 2050.1711472 447 2118 454.835016 2118 464.5 C 2118 474.164984 2050.1711472 482 1966.5 482 C 1882.8288528 482 1815 474.164984 1815 464.5 Z" opacity="0.2"/></g><g transform="translate(-166,-54) scale(1,1)"><path fill="#ebd8ff" stroke="none" d="M 1808 457.5 C 1808 447.835016 1875.8288528 440 1959.5 440 C 2043.1711472 440 2111 447.835016 2111 457.5 C 2111 467.164984 2043.1711472 475 1959.5 475 C 1875.8288528 475 1808 467.164984 1808 457.5 Z"/></g><g transform="translate(-166,-54) scale(1,1)"><path fill="none" stroke="#000000" d="M 1808 457.5 C 1808 447.835016 1875.8288528 440 1959.5 440 C 2043.1711472 440 2111 447.835016 2111 457.5 C 2111 467.164984 2043.1711472 475 1959.5 475 C 1875.8288528 475 1808 467.164984 1808 457.5 Z" stroke-miterlimit="10"/></g><g transform="translate(-166,-54) scale(1,1)"><g><path fill="none" stroke="none"/><text fill="#000000" stroke="none" font-family="Roboto" font-size="14px" font-style="normal" font-weight="bold" text-decoration="none" x="1857.84619140625" y="465">Nhập danh sách đọc giả theo file</text></g></g><g transform="translate(-166,-54) scale(1,1)"><path fill="#C0C0C0" stroke="none" d="M 1863 528.5 C 1863 518.835016 1914.487248 511 1978 511 C 2041.512752 511 2093 518.835016 2093 528.5 C 2093 538.164984 2041.512752 546 1978 546 C 1914.487248 546 1863 538.164984 1863 528.5 Z" opacity="0.2"/></g><g transform="translate(-166,-54) scale(1,1)"><path fill="#ebd8ff" stroke="none" d="M 1856 521.5 C 1856 511.835016 1907.487248 504 1971 504 C 2034.512752 504 2086 511.835016 2086 521.5 C 2086 531.164984 2034.512752 539 1971 539 C 1907.487248 539 1856 531.164984 1856 521.5 Z"/></g><g transform="translate(-166,-54) scale(1,1)"><path fill="none" stroke="#000000" d="M 1856 521.5 C 1856 511.835016 1907.487248 504 1971 504 C 2034.512752 504 2086 511.835016 2086 521.5 C 2086 531.164984 2034.512752 539 1971 539 C 1907.487248 539 1856 531.164984 1856 521.5 Z" stroke-miterlimit="10"/></g><g transform="translate(-166,-54) scale(1,1)"><g><path fill="none" stroke="none"/><text fill="#000000" stroke="none" font-family="Roboto" font-size="14px" font-style="normal" font-weight="bold" text-decoration="none" x="1894.51611328125" y="529">Xem danh sách phản hồi</text></g></g><g transform="translate(-166,-54) scale(1,1)"><path fill="#C0C0C0" stroke="none" d="M 1647 416.5 C 1647 406.835016 1683.936504 399 1729.5 399 C 1775.063496 399 1812 406.835016 1812 416.5 C 1812 426.164984 1775.063496 434 1729.5 434 C 1683.936504 434 1647 426.164984 1647 416.5 Z" opacity="0.2"/></g><g transform="translate(-166,-54) scale(1,1)"><path fill="#ebd8ff" stroke="none" d="M 1640 409.5 C 1640 399.835016 1676.936504 392 1722.5 392 C 1768.063496 392 1805 399.835016 1805 409.5 C 1805 419.164984 1768.063496 427 1722.5 427 C 1676.936504 427 1640 419.164984 1640 409.5 Z"/></g><g transform="translate(-166,-54) scale(1,1)"><path fill="none" stroke="#000000" d="M 1640 409.5 C 1640 399.835016 1676.936504 392 1722.5 392 C 1768.063496 392 1805 399.835016 1805 409.5 C 1805 419.164984 1768.063496 427 1722.5 427 C 1676.936504 427 1640 419.164984 1640 409.5 Z" stroke-miterlimit="10"/></g><g transform="translate(-166,-54) scale(1,1)"><g><path fill="none" stroke="none"/><text fill="#000000" stroke="none" font-family="Roboto" font-size="14px" font-style="normal" font-weight="bold" text-decoration="none" x="1669.4599609375" y="417">Mượn phòng đọc</text></g></g><g transform="translate(-166,-54) scale(1,1)"><path fill="#C0C0C0" stroke="none" d="M 1935 584.5 C 1935 574.835016 1966.340064 567 2005 567 C 2043.659936 567 2075 574.835016 2075 584.5 C 2075 594.164984 2043.659936 602 2005 602 C 1966.340064 602 1935 594.164984 1935 584.5 Z" opacity="0.2"/></g><g transform="translate(-166,-54) scale(1,1)"><path fill="#ebd8ff" stroke="none" d="M 1928 577.5 C 1928 567.835016 1959.340064 560 1998 560 C 2036.659936 560 2068 567.835016 2068 577.5 C 2068 587.164984 2036.659936 595 1998 595 C 1959.340064 595 1928 587.164984 1928 577.5 Z"/></g><g transform="translate(-166,-54) scale(1,1)"><path fill="none" stroke="#000000" d="M 1928 577.5 C 1928 567.835016 1959.340064 560 1998 560 C 2036.659936 560 2068 567.835016 2068 577.5 C 2068 587.164984 2036.659936 595 1998 595 C 1959.340064 595 1928 587.164984 1928 577.5 Z" stroke-miterlimit="10"/></g><g transform="translate(-166,-54) scale(1,1)"><g><path fill="none" stroke="none"/><text fill="#000000" stroke="none" font-family="Roboto" font-size="14px" font-style="normal" font-weight="bold" text-decoration="none" x="1953.30322265625" y="585">Trả phòng đọc</text></g></g><g transform="translate(-166,-54) scale(1,1)"><path fill="#C0C0C0" stroke="none" d="M 2383 560.5 C 2383 550.835016 2446.799416 543 2525.5 543 C 2604.200584 543 2668 550.835016 2668 560.5 C 2668 570.164984 2604.200584 578 2525.5 578 C 2446.799416 578 2383 570.164984 2383 560.5 Z" opacity="0.2"/></g><g transform="translate(-166,-54) scale(1,1)"><path fill="#ebd8ff" stroke="none" d="M 2376 553.5 C 2376 543.835016 2439.799416 536 2518.5 536 C 2597.200584 536 2661 543.835016 2661 553.5 C 2661 563.164984 2597.200584 571 2518.5 571 C 2439.799416 571 2376 563.164984 2376 553.5 Z"/></g><g transform="translate(-166,-54) scale(1,1)"><path fill="none" stroke="#000000" d="M 2376 553.5 C 2376 543.835016 2439.799416 536 2518.5 536 C 2597.200584 536 2661 543.835016 2661 553.5 C 2661 563.164984 2597.200584 571 2518.5 571 C 2439.799416 571 2376 563.164984 2376 553.5 Z" stroke-miterlimit="10"/></g><g transform="translate(-166,-54) scale(1,1)"><g><path fill="none" stroke="none"/><text fill="#000000" stroke="none" font-family="Roboto" font-size="14px" font-style="normal" font-weight="bold" text-decoration="none" x="2423.21728515625" y="561">Phân loại đọc giả theo chức vụ</text></g></g><g transform="translate(-166,-54) scale(1,1)"><path fill="none" stroke="#000000" d="M 2474 572 L 2207 687" stroke-miterlimit="10" stroke-dasharray="3"/></g><g transform="translate(-166,-54) scale(1,1)"><path fill="none" stroke="#000000" d="M 2214.6685262887827 679.1137014665783 L 2207 687 L 2217.9989221119495 686.8460117690614" stroke-miterlimit="10"/></g><g transform="translate(-166,-54) scale(1,1)"><g><path fill="none" stroke="none"/><text fill="#000000" stroke="none" font-family="Roboto" font-size="14px" font-style="normal" font-weight="normal" text-decoration="none" x="2323.5" y="662.5">«extend»</text></g></g><g transform="translate(-166,-54) scale(1,1)"><path fill="#C0C0C0" stroke="none" d="M 391 800.5 C 391 790.835016 454.5755584 783 533 783 C 611.4244416 783 675 790.835016 675 800.5 C 675 810.164984 611.4244416 818 533 818 C 454.5755584 818 391 810.164984 391 800.5 Z" opacity="0.2"/></g><g transform="translate(-166,-54) scale(1,1)"><path fill="#ebd8ff" stroke="none" d="M 384 793.5 C 384 783.835016 447.5755584 776 526 776 C 604.4244416 776 668 783.835016 668 793.5 C 668 803.164984 604.4244416 811 526 811 C 447.5755584 811 384 803.164984 384 793.5 Z"/></g><g transform="translate(-166,-54) scale(1,1)"><path fill="none" stroke="#000000" d="M 384 793.5 C 384 783.835016 447.5755584 776 526 776 C 604.4244416 776 668 783.835016 668 793.5 C 668 803.164984 604.4244416 811 526 811 C 447.5755584 811 384 803.164984 384 793.5 Z" stroke-miterlimit="10"/></g><g transform="translate(-166,-54) scale(1,1)"><g><path fill="none" stroke="none"/><text fill="#000000" stroke="none" font-family="Roboto" font-size="14px" font-style="normal" font-weight="bold" text-decoration="none" x="480.16162109375" y="801">Đặt sách trước</text></g></g><g transform="translate(-166,-54) scale(1,1)"><path fill="#C0C0C0" stroke="none" d="M 287 560.5 C 287 550.835016 315.4299152 543 350.5 543 C 385.5700848 543 414 550.835016 414 560.5 C 414 570.164984 385.5700848 578 350.5 578 C 315.4299152 578 287 570.164984 287 560.5 Z" opacity="0.2"/></g><g transform="translate(-166,-54) scale(1,1)"><path fill="#ebd8ff" stroke="none" d="M 280 553.5 C 280 543.835016 308.4299152 536 343.5 536 C 378.5700848 536 407 543.835016 407 553.5 C 407 563.164984 378.5700848 571 343.5 571 C 308.4299152 571 280 563.164984 280 553.5 Z"/></g><g transform="translate(-166,-54) scale(1,1)"><path fill="none" stroke="#000000" d="M 280 553.5 C 280 543.835016 308.4299152 536 343.5 536 C 378.5700848 536 407 543.835016 407 553.5 C 407 563.164984 378.5700848 571 343.5 571 C 308.4299152 571 280 563.164984 280 553.5 Z" stroke-miterlimit="10"/></g><g transform="translate(-166,-54) scale(1,1)"><g><path fill="none" stroke="none"/><text fill="#000000" stroke="none" font-family="Roboto" font-size="14px" font-style="normal" font-weight="bold" text-decoration="none" x="304.23779296875" y="561">Gửi phản hồi</text></g></g><g transform="translate(-166,-54) scale(1,1)"><path fill="#C0C0C0" stroke="none" d="M 247 496.5 C 247 486.835016 299.1588208 479 363.5 479 C 427.8411792 479 480 486.835016 480 496.5 C 480 506.164984 427.8411792 514 363.5 514 C 299.1588208 514 247 506.164984 247 496.5 Z" opacity="0.2"/></g><g transform="translate(-166,-54) scale(1,1)"><path fill="#ebd8ff" stroke="none" d="M 240 489.5 C 240 479.835016 292.1588208 472 356.5 472 C 420.8411792 472 473 479.835016 473 489.5 C 473 499.164984 420.8411792 507 356.5 507 C 292.1588208 507 240 499.164984 240 489.5 Z"/></g><g transform="translate(-166,-54) scale(1,1)"><path fill="none" stroke="#000000" d="M 240 489.5 C 240 479.835016 292.1588208 472 356.5 472 C 420.8411792 472 473 479.835016 473 489.5 C 473 499.164984 420.8411792 507 356.5 507 C 292.1588208 507 240 499.164984 240 489.5 Z" stroke-miterlimit="10"/></g><g transform="translate(-166,-54) scale(1,1)"><g><path fill="none" stroke="none"/><text fill="#000000" stroke="none" font-family="Roboto" font-size="14px" font-style="normal" font-weight="bold" text-decoration="none" x="280.29638671875" y="497">Xem hướng dẫn sử dụng</text></g></g><g transform="translate(-166,-54) scale(1,1)"><path fill="#C0C0C0" stroke="none" d="M 495 968.5 C 495 958.835016 571.7831568 951 666.5 951 C 761.2168432 951 838 958.835016 838 968.5 C 838 978.164984 761.2168432 986 666.5 986 C 571.7831568 986 495 978.164984 495 968.5 Z" opacity="0.2"/></g><g transform="translate(-166,-54) scale(1,1)"><path fill="#ebd8ff" stroke="none" d="M 488 961.5 C 488 951.835016 564.7831568 944 659.5 944 C 754.2168432 944 831 951.835016 831 961.5 C 831 971.164984 754.2168432 979 659.5 979 C 564.7831568 979 488 971.164984 488 961.5 Z"/></g><g transform="translate(-166,-54) scale(1,1)"><path fill="none" stroke="#000000" d="M 488 961.5 C 488 951.835016 564.7831568 944 659.5 944 C 754.2168432 944 831 951.835016 831 961.5 C 831 971.164984 754.2168432 979 659.5 979 C 564.7831568 979 488 971.164984 488 961.5 Z" stroke-miterlimit="10"/></g><g transform="translate(-166,-54) scale(1,1)"><g><path fill="none" stroke="none"/><text fill="#000000" stroke="none" font-family="Roboto" font-size="14px" font-style="normal" font-weight="bold" text-decoration="none" x="543.60693359375" y="969">Thông báo khi có sách mới qua email</text></g></g><g transform="translate(-166,-54) scale(1,1)"><path fill="none" stroke="#000000" d="M 347 967 L 487 964" stroke-miterlimit="10"/></g><g transform="translate(-166,-54) scale(1,1)"><path fill="none" stroke="#000000" d="M 476.92984085527445 968.4262732405377 L 487 964 L 476.74947435736806 960.0091700049056" stroke-miterlimit="10"/></g><g transform="translate(-166,-54) scale(1,1)"><path fill="none" stroke="#000000" d="M 1523 614 L 1927 582" stroke-miterlimit="10"/></g><g transform="translate(-166,-54) scale(1,1)"><path fill="none" stroke="#000000" d="M 1917.2014417922396 586.9988255669837 L 1927 582 L 1916.5366695890586 578.6060765018243" stroke-miterlimit="10"/></g><g transform="translate(-166,-54) scale(1,1)"><path fill="none" stroke="#000000" d="M 1523 610 L 1875 540" stroke-miterlimit="10"/></g><g transform="translate(-166,-54) scale(1,1)"><path fill="none" stroke="#000000" d="M 1865.853547798191 546.1108438140752 L 1875 540 L 1864.2114625245977 537.8535007240066" stroke-miterlimit="10"/></g><g transform="translate(-166,-54) scale(1,1)"><path fill="none" stroke="#000000" d="M 1523 589 L 1701 428" stroke-miterlimit="10"/></g><g transform="translate(-166,-54) scale(1,1)"><path fill="none" stroke="#000000" d="M 1696.2867722046622 437.9390886780054 L 1701 428 L 1690.6392476616077 431.6952416676718" stroke-miterlimit="10"/></g><g transform="translate(-166,-54) scale(1,1)"><path fill="none" stroke="#000000" d="M 1523 606 L 1903 476" stroke-miterlimit="10"/></g><g transform="translate(-166,-54) scale(1,1)"><path fill="none" stroke="#000000" d="M 1894.7470120913442 483.27242673250015 L 1903 476 L 1892.0218740265059 475.30663854297217" stroke-miterlimit="10"/></g><g transform="translate(-166,-54) scale(1,1)"><path fill="none" stroke="#000000" d="M 1523 599 L 1907 388" stroke-miterlimit="10"/></g><g transform="translate(-166,-54) scale(1,1)"><path fill="none" stroke="#000000" d="M 1900.120514630825 396.5832791551544 L 1907 388 L 1896.0661743489559 389.20476413980964" stroke-miterlimit="10"/></g><g transform="translate(-166,-54) scale(1,1)"><path fill="none" stroke="#000000" d="M 623 654 L 396 572" stroke-miterlimit="10"/></g><g transform="translate(-166,-54) scale(1,1)"><path fill="none" stroke="#000000" d="M 406.98833775028135 571.4936073798509 L 396 572 L 404.1280017928423 579.4118544815418" stroke-miterlimit="10"/></g><g transform="translate(-166,-54) scale(1,1)"><path fill="none" stroke="#000000" d="M 623 694 L 544 775" stroke-miterlimit="10"/></g><g transform="translate(-166,-54) scale(1,1)"><path fill="none" stroke="#000000" d="M 548.0821654135796 764.7855041467444 L 544 775 L 554.1092661301061 770.6637875616284" stroke-miterlimit="10"/></g><g transform="translate(-166,-54) scale(1,1)"><path fill="none" stroke="#000000" d="M 640 623 L 611 524" stroke-miterlimit="10"/></g><g transform="translate(-166,-54) scale(1,1)"><path fill="none" stroke="#000000" d="M 617.8966590477706 532.5694862144007 L 611 524 L 609.8171325667228 534.9362161936975" stroke-miterlimit="10"/></g><g transform="translate(-166,-54) scale(1,1)"><path fill="none" stroke="#000000" d="M 623 647 L 388 508" stroke-miterlimit="10"/></g><g transform="translate(-166,-54) scale(1,1)"><path fill="none" stroke="#000000" d="M 398.89015570761546 509.5506478207156 L 388 508 L 394.60402935977214 516.7969765382924" stroke-miterlimit="10"/></g><g transform="translate(-166,-54) scale(1,1)"><path fill="#C0C0C0" stroke="none" d="M 471 512.5 C 471 502.835016 534.5755584 495 613 495 C 691.4244416 495 755 502.835016 755 512.5 C 755 522.164984 691.4244416 530 613 530 C 534.5755584 530 471 522.164984 471 512.5 Z" opacity="0.2"/></g><g transform="translate(-166,-54) scale(1,1)"><path fill="#ebd8ff" stroke="none" d="M 464 505.5 C 464 495.835016 527.5755584 488 606 488 C 684.4244416 488 748 495.835016 748 505.5 C 748 515.164984 684.4244416 523 606 523 C 527.5755584 523 464 515.164984 464 505.5 Z"/></g><g transform="translate(-166,-54) scale(1,1)"><path fill="none" stroke="#000000" d="M 464 505.5 C 464 495.835016 527.5755584 488 606 488 C 684.4244416 488 748 495.835016 748 505.5 C 748 515.164984 684.4244416 523 606 523 C 527.5755584 523 464 515.164984 464 505.5 Z" stroke-miterlimit="10"/></g><g transform="translate(-166,-54) scale(1,1)"><g><path fill="none" stroke="none"/><text fill="#000000" stroke="none" font-family="Roboto" font-size="14px" font-style="normal" font-weight="bold" text-decoration="none" x="511.48291015625" y="513">Danh sách câu hỏi thường gặp</text></g></g><g transform="translate(-166,-54) scale(1,1)"><path fill="#ebd8ff" stroke="none" d="M 1464 473.5 C 1464 463.835016 1523.0984064 456 1596 456 C 1668.9015936 456 1728 463.835016 1728 473.5 C 1728 483.164984 1668.9015936 491 1596 491 C 1523.0984064 491 1464 483.164984 1464 473.5 Z"/></g><g transform="translate(-166,-54) scale(1,1)"><path fill="none" stroke="#000000" d="M 1464 473.5 C 1464 463.835016 1523.0984064 456 1596 456 C 1668.9015936 456 1728 463.835016 1728 473.5 C 1728 483.164984 1668.9015936 491 1596 491 C 1523.0984064 491 1464 483.164984 1464 473.5 Z" stroke-miterlimit="10"/></g><g transform="translate(-166,-54) scale(1,1)"><g><path fill="none" stroke="none"/><text fill="#000000" stroke="none" font-family="Roboto" font-size="14px" font-style="normal" font-weight="bold" text-decoration="none" x="1507.6591796875" y="481">Đặt lại mật khẩu cho đọc giả</text></g></g></g></svg>