<svg version="1.1" xmlns="http://www.w3.org/2000/svg" xmlns:xlink="http://www.w3.org/1999/xlink" width="1030.25390625" height="911"><defs/><g><g transform="translate(-238,-230) scale(1,1)"><rect fill="#C0C0C0" stroke="none" x="255" y="631" width="141.576171875" height="153" opacity="0.2"/></g><g transform="translate(-238,-230) scale(1,1)"><rect fill="#fff5d8" stroke="none" x="248" y="624" width="141.576171875" height="153"/></g><g transform="translate(-238,-230) scale(1,1)"><path fill="none" stroke="#000000" d="M 248 624 L 389.576171875 624 L 389.576171875 777 L 248 777 L 248 624 Z Z" stroke-miterlimit="10"/></g><g transform="translate(-238,-230) scale(1,1)"><path fill="none" stroke="#000000" d="M 248 650 L 389.576171875 650" stroke-miterlimit="10"/></g><g transform="translate(-238,-230) scale(1,1)"><path fill="none" stroke="#000000" d="M 248 722 L 389.576171875 722" stroke-miterlimit="10"/></g><g transform="translate(-238,-230) scale(1,1)"><g><path fill="none" stroke="none"/><text fill="#000000" stroke="none" font-family="Roboto" font-size="14px" font-style="normal" font-weight="bold" text-decoration="none" x="302.89794921875" y="644.5">Book</text></g></g><g transform="translate(-238,-230) scale(1,1)"><g><path fill="none" stroke="none"/><text fill="#000000" stroke="none" font-family="Roboto" font-size="14px" font-style="normal" font-weight="normal" text-decoration="none" x="253" y="668.5">-isbn: string</text></g></g><g transform="translate(-238,-230) scale(1,1)"><g><path fill="none" stroke="none"/><text fill="#000000" stroke="none" font-family="Roboto" font-size="14px" font-style="normal" font-weight="normal" text-decoration="none" x="253" y="684.5">-title: string</text></g></g><g transform="translate(-238,-230) scale(1,1)"><g><path fill="none" stroke="none"/><text fill="#000000" stroke="none" font-family="Roboto" font-size="14px" font-style="normal" font-weight="normal" text-decoration="none" x="253" y="700.5">-category: string</text></g></g><g transform="translate(-238,-230) scale(1,1)"><g><path fill="none" stroke="none"/><text fill="#000000" stroke="none" font-family="Roboto" font-size="14px" font-style="normal" font-weight="normal" text-decoration="none" x="253" y="716.5">-publisher: string</text></g></g><g transform="translate(-238,-230) scale(1,1)"><g><path fill="none" stroke="none"/><text fill="#000000" stroke="none" font-family="Roboto" font-size="14px" font-style="normal" font-weight="normal" text-decoration="none" x="253" y="740.5">+getTitle(): string</text></g></g><g transform="translate(-238,-230) scale(1,1)"><rect fill="#C0C0C0" stroke="none" x="263" y="431" width="126.0791015625" height="89" opacity="0.2"/></g><g transform="translate(-238,-230) scale(1,1)"><rect fill="#fff5d8" stroke="none" x="256" y="424" width="126.0791015625" height="89"/></g><g transform="translate(-238,-230) scale(1,1)"><path fill="none" stroke="#000000" d="M 256 424 L 382.0791015625 424 L 382.0791015625 513 L 256 513 L 256 424 Z Z" stroke-miterlimit="10"/></g><g transform="translate(-238,-230) scale(1,1)"><path fill="none" stroke="#000000" d="M 256 450 L 382.0791015625 450" stroke-miterlimit="10"/></g><g transform="translate(-238,-230) scale(1,1)"><path fill="none" stroke="#000000" d="M 256 490 L 382.0791015625 490" stroke-miterlimit="10"/></g><g transform="translate(-238,-230) scale(1,1)"><g><path fill="none" stroke="none"/><text fill="#000000" stroke="none" font-family="Roboto" font-size="14px" font-style="normal" font-weight="bold" text-decoration="none" x="298.14892578125" y="444.5">Author</text></g></g><g transform="translate(-238,-230) scale(1,1)"><g><path fill="none" stroke="none"/><text fill="#000000" stroke="none" font-family="Roboto" font-size="14px" font-style="normal" font-weight="normal" text-decoration="none" x="261" y="468.5">-name: string</text></g></g><g transform="translate(-238,-230) scale(1,1)"><g><path fill="none" stroke="none"/><text fill="#000000" stroke="none" font-family="Roboto" font-size="14px" font-style="normal" font-weight="normal" text-decoration="none" x="261" y="484.5">-description: string</text></g></g><g transform="translate(-238,-230) scale(1,1)"><g><path fill="none" stroke="none"/><text fill="#000000" stroke="none" font-family="Roboto" font-size="14px" font-style="normal" font-weight="normal" text-decoration="none" x="261" y="508.5">+getName(): string</text></g></g><g transform="translate(-238,-230) scale(1,1)"><path fill="none" stroke="#000000" d="M 319 514 L 318 623" stroke-miterlimit="10"/></g><g transform="translate(-238,-230) scale(1,1)"><g><path fill="none" stroke="none"/><text fill="#000000" stroke="none" font-family="Roboto" font-size="14px" font-style="normal" font-weight="normal" text-decoration="none" x="295.5" y="541.5">1..*</text></g></g><g transform="translate(-238,-230) scale(1,1)"><g><path fill="none" stroke="none"/><text fill="#000000" stroke="none" font-family="Roboto" font-size="14px" font-style="normal" font-weight="normal" text-decoration="none" x="294.5" y="607.5">1..*</text></g></g><g transform="translate(-238,-230) scale(1,1)"><rect fill="#C0C0C0" stroke="none" x="559" y="439" width="140.181640625" height="89" opacity="0.2"/></g><g transform="translate(-238,-230) scale(1,1)"><rect fill="#fff5d8" stroke="none" x="552" y="432" width="140.181640625" height="89"/></g><g transform="translate(-238,-230) scale(1,1)"><path fill="none" stroke="#000000" d="M 552 432 L 692.181640625 432 L 692.181640625 521 L 552 521 L 552 432 Z Z" stroke-miterlimit="10"/></g><g transform="translate(-238,-230) scale(1,1)"><path fill="none" stroke="#000000" d="M 552 458 L 692.181640625 458" stroke-miterlimit="10"/></g><g transform="translate(-238,-230) scale(1,1)"><path fill="none" stroke="#000000" d="M 552 498 L 692.181640625 498" stroke-miterlimit="10"/></g><g transform="translate(-238,-230) scale(1,1)"><g><path fill="none" stroke="none"/><text fill="#000000" stroke="none" font-family="Roboto" font-size="14px" font-style="normal" font-weight="bold" text-decoration="none" x="600.91650390625" y="452.5">Library</text></g></g><g transform="translate(-238,-230) scale(1,1)"><g><path fill="none" stroke="none"/><text fill="#000000" stroke="none" font-family="Roboto" font-size="14px" font-style="normal" font-weight="normal" text-decoration="none" x="557" y="476.5">-name: string</text></g></g><g transform="translate(-238,-230) scale(1,1)"><g><path fill="none" stroke="none"/><text fill="#000000" stroke="none" font-family="Roboto" font-size="14px" font-style="normal" font-weight="normal" text-decoration="none" x="557" y="492.5">-address: string</text></g></g><g transform="translate(-238,-230) scale(1,1)"><g><path fill="none" stroke="none"/><text fill="#000000" stroke="none" font-family="Roboto" font-size="14px" font-style="normal" font-weight="normal" text-decoration="none" x="557" y="516.5">+getAddress(): string</text></g></g><g transform="translate(-238,-230) scale(1,1)"><rect fill="#C0C0C0" stroke="none" x="823" y="439" width="165.3857421875" height="107" opacity="0.2"/></g><g transform="translate(-238,-230) scale(1,1)"><rect fill="#fff5d8" stroke="none" x="816" y="432" width="165.3857421875" height="107"/></g><g transform="translate(-238,-230) scale(1,1)"><path fill="none" stroke="#000000" d="M 816 432 L 981.3857421875 432 L 981.3857421875 539 L 816 539 L 816 432 Z Z" stroke-miterlimit="10"/></g><g transform="translate(-238,-230) scale(1,1)"><path fill="none" stroke="#000000" d="M 816 458 L 981.3857421875 458" stroke-miterlimit="10"/></g><g transform="translate(-238,-230) scale(1,1)"><path fill="none" stroke="#000000" d="M 816 468 L 981.3857421875 468" stroke-miterlimit="10"/></g><g transform="translate(-238,-230) scale(1,1)"><g><path fill="none" stroke="none"/><text fill="#000000" stroke="none" font-family="Roboto" font-size="14px" font-style="normal" font-weight="bold" text-decoration="none" x="871.5234375" y="452.5">Librarian</text></g></g><g transform="translate(-238,-230) scale(1,1)"><g><path fill="none" stroke="none"/><text fill="#000000" stroke="none" font-family="Roboto" font-size="14px" font-style="normal" font-weight="normal" text-decoration="none" x="821" y="486.5">+addBook(): bool</text></g></g><g transform="translate(-238,-230) scale(1,1)"><g><path fill="none" stroke="none"/><text fill="#000000" stroke="none" font-family="Roboto" font-size="14px" font-style="normal" font-weight="normal" text-decoration="none" x="821" y="502.5">+blockMember(): bool</text></g></g><g transform="translate(-238,-230) scale(1,1)"><g><path fill="none" stroke="none"/><text fill="#000000" stroke="none" font-family="Roboto" font-size="14px" font-style="normal" font-weight="normal" text-decoration="none" x="821" y="518.5">+unblockMember(): bool</text></g></g><g transform="translate(-238,-230) scale(1,1)"><g><path fill="none" stroke="none"/><text fill="#000000" stroke="none" font-family="Roboto" font-size="14px" font-style="normal" font-weight="normal" text-decoration="none" x="821" y="534.5">+updateBook(): bool</text></g></g><g transform="translate(-238,-230) scale(1,1)"><rect fill="#C0C0C0" stroke="none" x="1071" y="439" width="194.25390625" height="75" opacity="0.2"/></g><g transform="translate(-238,-230) scale(1,1)"><rect fill="#fff5d8" stroke="none" x="1064" y="432" width="194.25390625" height="75"/></g><g transform="translate(-238,-230) scale(1,1)"><path fill="none" stroke="#000000" d="M 1064 432 L 1258.25390625 432 L 1258.25390625 507 L 1064 507 L 1064 432 Z Z" stroke-miterlimit="10"/></g><g transform="translate(-238,-230) scale(1,1)"><path fill="none" stroke="#000000" d="M 1064 458 L 1258.25390625 458" stroke-miterlimit="10"/></g><g transform="translate(-238,-230) scale(1,1)"><path fill="none" stroke="#000000" d="M 1064 482 L 1258.25390625 482" stroke-miterlimit="10"/></g><g transform="translate(-238,-230) scale(1,1)"><g><path fill="none" stroke="none"/><text fill="#000000" stroke="none" font-family="Roboto" font-size="14px" font-style="normal" font-weight="bold" text-decoration="none" x="1139.27587890625" y="452.5">Reader</text></g></g><g transform="translate(-238,-230) scale(1,1)"><g><path fill="none" stroke="none"/><text fill="#000000" stroke="none" font-family="Roboto" font-size="14px" font-style="normal" font-weight="normal" text-decoration="none" x="1069" y="476.5">-numBookBorrowing: int</text></g></g><g transform="translate(-238,-230) scale(1,1)"><g><path fill="none" stroke="none"/><text fill="#000000" stroke="none" font-family="Roboto" font-size="14px" font-style="normal" font-weight="normal" text-decoration="none" x="1069" y="500.5">+getNumBookBorrowing(): int</text></g></g><g transform="translate(-238,-230) scale(1,1)"><rect fill="#C0C0C0" stroke="none" x="359" y="263" width="101.9482421875" height="95" opacity="0.2"/></g><g transform="translate(-238,-230) scale(1,1)"><rect fill="#ffd8d8" stroke="none" x="352" y="256" width="101.9482421875" height="95"/></g><g transform="translate(-238,-230) scale(1,1)"><path fill="none" stroke="#000000" d="M 352 256 L 453.9482421875 256 L 453.9482421875 351 L 352 351 L 352 256 Z Z" stroke-miterlimit="10"/></g><g transform="translate(-238,-230) scale(1,1)"><path fill="none" stroke="#000000" d="M 352 296 L 453.9482421875 296" stroke-miterlimit="10"/></g><g transform="translate(-238,-230) scale(1,1)"><g><path fill="none" stroke="none"/><text fill="#000000" stroke="none" font-family="Roboto" font-size="14px" font-style="normal" font-weight="normal" text-decoration="none" x="357.25537109375" y="274.5">«enumeration»</text></g></g><g transform="translate(-238,-230) scale(1,1)"><g><path fill="none" stroke="none"/><text fill="#000000" stroke="none" font-family="Roboto" font-size="14px" font-style="normal" font-weight="bold" text-decoration="none" x="357.07763671875" y="290.5">AccountStatus</text></g></g><g transform="translate(-238,-230) scale(1,1)"><g><path fill="none" stroke="none"/><text fill="#000000" stroke="none" font-family="Roboto" font-size="14px" font-style="normal" font-weight="normal" text-decoration="none" x="357" y="314.5">Active</text></g></g><g transform="translate(-238,-230) scale(1,1)"><g><path fill="none" stroke="none"/><text fill="#000000" stroke="none" font-family="Roboto" font-size="14px" font-style="normal" font-weight="normal" text-decoration="none" x="357" y="330.5">Inactive</text></g></g><g transform="translate(-238,-230) scale(1,1)"><g><path fill="none" stroke="none"/><text fill="#000000" stroke="none" font-family="Roboto" font-size="14px" font-style="normal" font-weight="normal" text-decoration="none" x="357" y="346.5">Block</text></g></g><g transform="translate(-238,-230) scale(1,1)"><rect fill="#C0C0C0" stroke="none" x="919" y="247" width="109.1669921875" height="127" opacity="0.2"/></g><g transform="translate(-238,-230) scale(1,1)"><rect fill="#ebd8ff" stroke="none" x="912" y="240" width="109.1669921875" height="127"/></g><g transform="translate(-238,-230) scale(1,1)"><path fill="none" stroke="#000000" d="M 912 240 L 1021.1669921875 240 L 1021.1669921875 367 L 912 367 L 912 240 Z Z" stroke-miterlimit="10"/></g><g transform="translate(-238,-230) scale(1,1)"><path fill="none" stroke="#000000" d="M 912 280 L 1021.1669921875 280" stroke-miterlimit="10"/></g><g transform="translate(-238,-230) scale(1,1)"><g><path fill="none" stroke="none"/><text fill="#000000" stroke="none" font-family="Roboto" font-size="14px" font-style="normal" font-weight="normal" text-decoration="none" x="931.28955078125" y="258.5">«dataType»</text></g></g><g transform="translate(-238,-230) scale(1,1)"><g><path fill="none" stroke="none"/><text fill="#000000" stroke="none" font-family="Roboto" font-size="14px" font-style="normal" font-weight="bold" text-decoration="none" x="944.6708984375" y="274.5">Person</text></g></g><g transform="translate(-238,-230) scale(1,1)"><g><path fill="none" stroke="none"/><text fill="#000000" stroke="none" font-family="Roboto" font-size="14px" font-style="normal" font-weight="normal" text-decoration="none" x="917" y="298.5">-name: string</text></g></g><g transform="translate(-238,-230) scale(1,1)"><g><path fill="none" stroke="none"/><text fill="#000000" stroke="none" font-family="Roboto" font-size="14px" font-style="normal" font-weight="normal" text-decoration="none" x="917" y="314.5">-address: string</text></g></g><g transform="translate(-238,-230) scale(1,1)"><g><path fill="none" stroke="none"/><text fill="#000000" stroke="none" font-family="Roboto" font-size="14px" font-style="normal" font-weight="normal" text-decoration="none" x="917" y="330.5">-email: string</text></g></g><g transform="translate(-238,-230) scale(1,1)"><g><path fill="none" stroke="none"/><text fill="#000000" stroke="none" font-family="Roboto" font-size="14px" font-style="normal" font-weight="normal" text-decoration="none" x="917" y="346.5">-phone: string</text></g></g><g transform="translate(-238,-230) scale(1,1)"><g><path fill="none" stroke="none"/><text fill="#000000" stroke="none" font-family="Roboto" font-size="14px" font-style="normal" font-weight="normal" text-decoration="none" x="917" y="362.5">-cmnd: string</text></g></g><g transform="translate(-238,-230) scale(1,1)"><rect fill="#C0C0C0" stroke="none" x="855" y="647" width="154.5029296875" height="107" opacity="0.2"/></g><g transform="translate(-238,-230) scale(1,1)"><rect fill="#fff5d8" stroke="none" x="848" y="640" width="154.5029296875" height="107"/></g><g transform="translate(-238,-230) scale(1,1)"><path fill="none" stroke="#000000" d="M 848 640 L 1002.5029296875 640 L 1002.5029296875 747 L 848 747 L 848 640 Z Z" stroke-miterlimit="10"/></g><g transform="translate(-238,-230) scale(1,1)"><path fill="none" stroke="#000000" d="M 848 666 L 1002.5029296875 666" stroke-miterlimit="10"/></g><g transform="translate(-238,-230) scale(1,1)"><path fill="none" stroke="#000000" d="M 848 738 L 1002.5029296875 738" stroke-miterlimit="10"/></g><g transform="translate(-238,-230) scale(1,1)"><g><path fill="none" stroke="none"/><text fill="#000000" stroke="none" font-family="Roboto" font-size="14px" font-style="normal" font-weight="bold" text-decoration="none" x="899.35693359375" y="660.5">Account</text></g></g><g transform="translate(-238,-230) scale(1,1)"><g><path fill="none" stroke="none"/><text fill="#000000" stroke="none" font-family="Roboto" font-size="14px" font-style="normal" font-weight="normal" text-decoration="none" x="853" y="684.5">-id: string</text></g></g><g transform="translate(-238,-230) scale(1,1)"><g><path fill="none" stroke="none"/><text fill="#000000" stroke="none" font-family="Roboto" font-size="14px" font-style="normal" font-weight="normal" text-decoration="none" x="853" y="700.5">-password: string</text></g></g><g transform="translate(-238,-230) scale(1,1)"><g><path fill="none" stroke="none"/><text fill="#000000" stroke="none" font-family="Roboto" font-size="14px" font-style="normal" font-weight="normal" text-decoration="none" x="853" y="716.5">-status: AccountStatus</text></g></g><g transform="translate(-238,-230) scale(1,1)"><g><path fill="none" stroke="none"/><text fill="#000000" stroke="none" font-family="Roboto" font-size="14px" font-style="normal" font-weight="normal" text-decoration="none" x="853" y="732.5">-user: Person</text></g></g><g transform="translate(-238,-230) scale(1,1)"><path fill="none" stroke="#000000" d="M 905 540 L 918 639" stroke-miterlimit="10"/></g><g transform="translate(-238,-230) scale(1,1)"><path fill="#FFFFFF" stroke="none" d="M 907.0063565284632 619.943772586875 L 918 639 L 923.7011077789828 617.7515325236755"/></g><g transform="translate(-238,-230) scale(1,1)"><path fill="none" stroke="#000000" d="M 907.0063565284632 619.943772586875 L 918 639 L 923.7011077789828 617.7515325236755 L 907.0063565284632 619.943772586875" stroke-miterlimit="10"/></g><g transform="translate(-238,-230) scale(1,1)"><path fill="none" stroke="#000000" d="M 1120 508 L 982 639" stroke-miterlimit="10"/></g><g transform="translate(-238,-230) scale(1,1)"><path fill="#FFFFFF" stroke="none" d="M 990.9449198981483 618.9005371212137 L 982 639 L 1002.5374800169483 631.112547017354"/></g><g transform="translate(-238,-230) scale(1,1)"><path fill="none" stroke="#000000" d="M 990.9449198981483 618.9005371212137 L 982 639 L 1002.5374800169483 631.112547017354 L 990.9449198981483 618.9005371212137" stroke-miterlimit="10"/></g><g transform="translate(-238,-230) scale(1,1)"><rect fill="#C0C0C0" stroke="none" x="559" y="631" width="134.494140625" height="139" opacity="0.2"/></g><g transform="translate(-238,-230) scale(1,1)"><rect fill="#fff5d8" stroke="none" x="552" y="624" width="134.494140625" height="139"/></g><g transform="translate(-238,-230) scale(1,1)"><path fill="none" stroke="#000000" d="M 552 624 L 686.494140625 624 L 686.494140625 763 L 552 763 L 552 624 Z Z" stroke-miterlimit="10"/></g><g transform="translate(-238,-230) scale(1,1)"><path fill="none" stroke="#000000" d="M 552 650 L 686.494140625 650" stroke-miterlimit="10"/></g><g transform="translate(-238,-230) scale(1,1)"><path fill="none" stroke="#000000" d="M 552 754 L 686.494140625 754" stroke-miterlimit="10"/></g><g transform="translate(-238,-230) scale(1,1)"><g><path fill="none" stroke="none"/><text fill="#000000" stroke="none" font-family="Roboto" font-size="14px" font-style="normal" font-weight="bold" text-decoration="none" x="589.32275390625" y="644.5">BookItem</text></g></g><g transform="translate(-238,-230) scale(1,1)"><g><path fill="none" stroke="none"/><text fill="#000000" stroke="none" font-family="Roboto" font-size="14px" font-style="normal" font-weight="normal" text-decoration="none" x="557" y="668.5">-barcode: string</text></g></g><g transform="translate(-238,-230) scale(1,1)"><g><path fill="none" stroke="none"/><text fill="#000000" stroke="none" font-family="Roboto" font-size="14px" font-style="normal" font-weight="normal" text-decoration="none" x="557" y="684.5">-canBorrowed: bool</text></g></g><g transform="translate(-238,-230) scale(1,1)"><g><path fill="none" stroke="none"/><text fill="#000000" stroke="none" font-family="Roboto" font-size="14px" font-style="normal" font-weight="normal" text-decoration="none" x="557" y="700.5">-borrowDate: date</text></g></g><g transform="translate(-238,-230) scale(1,1)"><g><path fill="none" stroke="none"/><text fill="#000000" stroke="none" font-family="Roboto" font-size="14px" font-style="normal" font-weight="normal" text-decoration="none" x="557" y="716.5">-dueDate: date</text></g></g><g transform="translate(-238,-230) scale(1,1)"><g><path fill="none" stroke="none"/><text fill="#000000" stroke="none" font-family="Roboto" font-size="14px" font-style="normal" font-weight="normal" text-decoration="none" x="557" y="732.5">-status: BookStatus</text></g></g><g transform="translate(-238,-230) scale(1,1)"><g><path fill="none" stroke="none"/><text fill="#000000" stroke="none" font-family="Roboto" font-size="14px" font-style="normal" font-weight="normal" text-decoration="none" x="557" y="748.5">-publishDate: date</text></g></g><g transform="translate(-238,-230) scale(1,1)"><rect fill="#C0C0C0" stroke="none" x="535" y="271" width="100.4375" height="79" opacity="0.2"/></g><g transform="translate(-238,-230) scale(1,1)"><rect fill="#ffd8d8" stroke="none" x="528" y="264" width="100.4375" height="79"/></g><g transform="translate(-238,-230) scale(1,1)"><path fill="none" stroke="#000000" d="M 528 264 L 628.4375 264 L 628.4375 343 L 528 343 L 528 264 Z Z" stroke-miterlimit="10"/></g><g transform="translate(-238,-230) scale(1,1)"><path fill="none" stroke="#000000" d="M 528 304 L 628.4375 304" stroke-miterlimit="10"/></g><g transform="translate(-238,-230) scale(1,1)"><g><path fill="none" stroke="none"/><text fill="#000000" stroke="none" font-family="Roboto" font-size="14px" font-style="normal" font-weight="normal" text-decoration="none" x="532.5" y="282.5">«enumeration»</text></g></g><g transform="translate(-238,-230) scale(1,1)"><g><path fill="none" stroke="none"/><text fill="#000000" stroke="none" font-family="Roboto" font-size="14px" font-style="normal" font-weight="bold" text-decoration="none" x="542.32666015625" y="298.5">BookStatus</text></g></g><g transform="translate(-238,-230) scale(1,1)"><g><path fill="none" stroke="none"/><text fill="#000000" stroke="none" font-family="Roboto" font-size="14px" font-style="normal" font-weight="normal" text-decoration="none" x="533" y="322.5">Available</text></g></g><g transform="translate(-238,-230) scale(1,1)"><g><path fill="none" stroke="none"/><text fill="#000000" stroke="none" font-family="Roboto" font-size="14px" font-style="normal" font-weight="normal" text-decoration="none" x="533" y="338.5">NotAvailable</text></g></g><g transform="translate(-238,-230) scale(1,1)"><rect fill="#C0C0C0" stroke="none" x="591" y="855" width="78.658203125" height="59" opacity="0.2"/></g><g transform="translate(-238,-230) scale(1,1)"><rect fill="#fff5d8" stroke="none" x="584" y="848" width="78.658203125" height="59"/></g><g transform="translate(-238,-230) scale(1,1)"><path fill="none" stroke="#000000" d="M 584 848 L 662.658203125 848 L 662.658203125 907 L 584 907 L 584 848 Z Z" stroke-miterlimit="10"/></g><g transform="translate(-238,-230) scale(1,1)"><path fill="none" stroke="#000000" d="M 584 874 L 662.658203125 874" stroke-miterlimit="10"/></g><g transform="translate(-238,-230) scale(1,1)"><path fill="none" stroke="#000000" d="M 584 898 L 662.658203125 898" stroke-miterlimit="10"/></g><g transform="translate(-238,-230) scale(1,1)"><g><path fill="none" stroke="none"/><text fill="#000000" stroke="none" font-family="Roboto" font-size="14px" font-style="normal" font-weight="bold" text-decoration="none" x="592.13671875" y="868.5">Bookshelf</text></g></g><g transform="translate(-238,-230) scale(1,1)"><g><path fill="none" stroke="none"/><text fill="#000000" stroke="none" font-family="Roboto" font-size="14px" font-style="normal" font-weight="normal" text-decoration="none" x="589" y="892.5">-id: string</text></g></g><g transform="translate(-238,-230) scale(1,1)"><path fill="none" stroke="#000000" d="M 621 764 L 622 847" stroke-miterlimit="10"/></g><g transform="translate(-238,-230) scale(1,1)"><g><path fill="none" stroke="none"/><text fill="#000000" stroke="none" font-family="Roboto" font-size="14px" font-style="normal" font-weight="normal" text-decoration="none" x="597.5" y="791.5">1..*</text></g></g><g transform="translate(-238,-230) scale(1,1)"><g><path fill="none" stroke="none"/><text fill="#000000" stroke="none" font-family="Roboto" font-size="14px" font-style="normal" font-weight="normal" text-decoration="none" x="605.5" y="831.5">1</text></g></g><g transform="translate(-238,-230) scale(1,1)"><path fill="none" stroke="#000000" d="M 551 695 L 391 698" stroke-miterlimit="10"/></g><g transform="translate(-238,-230) scale(1,1)"><path fill="#FFFFFF" stroke="none" d="M 411.1639486667648 689.2014106719273 L 391 698 L 411.4796070165226 706.0365226590111"/></g><g transform="translate(-238,-230) scale(1,1)"><path fill="none" stroke="#000000" d="M 411.1639486667648 689.2014106719273 L 391 698 L 411.4796070165226 706.0365226590111 L 411.1639486667648 689.2014106719273" stroke-miterlimit="10"/></g><g transform="translate(-238,-230) scale(1,1)"><path fill="#C0C0C0" stroke="none" d="M 1128.62109375 874.5 C 1128.62109375 863.7304464 1137.35154015 855 1148.12109375 855 C 1158.89064735 855 1167.62109375 863.7304464 1167.62109375 874.5 C 1167.62109375 885.2695536 1158.89064735 894 1148.12109375 894 C 1137.35154015 894 1128.62109375 885.2695536 1128.62109375 874.5 Z" opacity="0.2"/></g><g transform="translate(-238,-230) scale(1,1)"><path fill="#fff5d8" stroke="none" d="M 1121.62109375 867.5 C 1121.62109375 856.7304464 1130.35154015 848 1141.12109375 848 C 1151.89064735 848 1160.62109375 856.7304464 1160.62109375 867.5 C 1160.62109375 878.2695536 1151.89064735 887 1141.12109375 887 C 1130.35154015 887 1121.62109375 878.2695536 1121.62109375 867.5 Z"/></g><g transform="translate(-238,-230) scale(1,1)"><path fill="none" stroke="#000000" d="M 1121.62109375 867.5 C 1121.62109375 856.7304464 1130.35154015 848 1141.12109375 848 C 1151.89064735 848 1160.62109375 856.7304464 1160.62109375 867.5 C 1160.62109375 878.2695536 1151.89064735 887 1141.12109375 887 C 1130.35154015 887 1121.62109375 878.2695536 1121.62109375 867.5 Z" stroke-miterlimit="10"/></g><g transform="translate(-238,-230) scale(1,1)"><path fill="none" stroke="#000000" d="M 1048 913 L 1234.2421875 913" stroke-miterlimit="10"/></g><g transform="translate(-238,-230) scale(1,1)"><path fill="none" stroke="#000000" d="M 1048 923 L 1234.2421875 923" stroke-miterlimit="10"/></g><g transform="translate(-238,-230) scale(1,1)"><g><path fill="none" stroke="none"/><text fill="#000000" stroke="none" font-family="Roboto" font-size="14px" font-style="normal" font-weight="bold" text-decoration="none" x="1119.62890625" y="907.5">Search</text></g></g><g transform="translate(-238,-230) scale(1,1)"><g><path fill="none" stroke="none"/><text fill="#000000" stroke="none" font-family="Roboto" font-size="14px" font-style="normal" font-weight="normal" text-decoration="none" x="1053" y="941.5">+searchByTitle(string)</text></g></g><g transform="translate(-238,-230) scale(1,1)"><g><path fill="none" stroke="none"/><text fill="#000000" stroke="none" font-family="Roboto" font-size="14px" font-style="normal" font-weight="normal" text-decoration="none" x="1053" y="957.5">+searchByPublisher(string)</text></g></g><g transform="translate(-238,-230) scale(1,1)"><g><path fill="none" stroke="none"/><text fill="#000000" stroke="none" font-family="Roboto" font-size="14px" font-style="normal" font-weight="normal" text-decoration="none" x="1053" y="973.5">+searchByAuthor(string)</text></g></g><g transform="translate(-238,-230) scale(1,1)"><g><path fill="none" stroke="none"/><text fill="#000000" stroke="none" font-family="Roboto" font-size="14px" font-style="normal" font-weight="normal" text-decoration="none" x="1053" y="989.5">+searchByISBN(string)</text></g></g><g transform="translate(-238,-230) scale(1,1)"><g><path fill="none" stroke="none"/><text fill="#000000" stroke="none" font-family="Roboto" font-size="14px" font-style="normal" font-weight="normal" text-decoration="none" x="1053" y="1005.5">+searchByCategory(string)</text></g></g><g transform="translate(-238,-230) scale(1,1)"><path fill="none" stroke="#000000" d="M 975 748 L 1066 847" stroke-miterlimit="10"/></g><g transform="translate(-238,-230) scale(1,1)"><g><path fill="none" stroke="none"/><text fill="#000000" stroke="none" font-family="Roboto" font-size="14px" font-style="normal" font-weight="normal" text-decoration="none" x="1015.5" y="792.5">+use</text></g></g><g transform="translate(-238,-230) scale(1,1)"><path fill="none" stroke="#000000" d="M 620 623 L 621 522" stroke-miterlimit="10"/></g><g transform="translate(-238,-230) scale(1,1)"><path fill="#000000" stroke="none" d="M 625.1086958308919 532.2038531236593 L 621 522 L 616.6900729458855 532.1205004218276 L 620.7821888935285 543.99892175362"/></g><g transform="translate(-238,-230) scale(1,1)"><path fill="none" stroke="#000000" d="M 625.1086958308919 532.2038531236593 L 621 522 L 616.6900729458855 532.1205004218276 L 620.7821888935285 543.99892175362 L 625.1086958308919 532.2038531236593" stroke-miterlimit="10"/></g><g transform="translate(-238,-230) scale(1,1)"><g><path fill="none" stroke="none"/><text fill="#000000" stroke="none" font-family="Roboto" font-size="14px" font-style="normal" font-weight="normal" text-decoration="none" x="621.5" y="607.5">1..*</text></g></g><g transform="translate(-238,-230) scale(1,1)"><g><path fill="none" stroke="none"/><text fill="#000000" stroke="none" font-family="Roboto" font-size="14px" font-style="normal" font-weight="normal" text-decoration="none" x="629.5" y="549.5">1</text></g></g><g transform="translate(-238,-230) scale(1,1)"><path fill="none" stroke="#000000" d="M 847 693 L 687 693" stroke-miterlimit="10"/></g><g transform="translate(-238,-230) scale(1,1)"><path fill="none" stroke="#000000" d="M 697.1626748576241 688.790482243984 L 687 693 L 697.1626748576241 697.209517756016" stroke-miterlimit="10"/></g><g transform="translate(-238,-230) scale(1,1)"><g><path fill="none" stroke="none"/><text fill="#000000" stroke="none" font-family="Roboto" font-size="14px" font-style="normal" font-weight="normal" text-decoration="none" x="740.5" y="714.5">+borrow</text></g></g><g transform="translate(-238,-230) scale(1,1)"><path fill="none" stroke="#000000" d="M 824 540 L 687 642" stroke-miterlimit="10"/></g><g transform="translate(-238,-230) scale(1,1)"><path fill="none" stroke="#000000" d="M 692.63764463166 632.5545268510723 L 687 642 L 697.665374864089 639.3074586338445" stroke-miterlimit="10"/></g><g transform="translate(-238,-230) scale(1,1)"><g><path fill="none" stroke="none"/><text fill="#000000" stroke="none" font-family="Roboto" font-size="14px" font-style="normal" font-weight="normal" text-decoration="none" x="747.5" y="609.5">+add</text></g></g><g transform="translate(-238,-230) scale(1,1)"><rect fill="#C0C0C0" stroke="none" x="871" y="839" width="130.7275390625" height="121" opacity="0.2"/></g><g transform="translate(-238,-230) scale(1,1)"><rect fill="#fff5d8" stroke="none" x="864" y="832" width="130.7275390625" height="121"/></g><g transform="translate(-238,-230) scale(1,1)"><path fill="none" stroke="#000000" d="M 864 832 L 994.7275390625 832 L 994.7275390625 953 L 864 953 L 864 832 Z Z" stroke-miterlimit="10"/></g><g transform="translate(-238,-230) scale(1,1)"><path fill="none" stroke="#000000" d="M 864 858 L 994.7275390625 858" stroke-miterlimit="10"/></g><g transform="translate(-238,-230) scale(1,1)"><path fill="none" stroke="#000000" d="M 864 914 L 994.7275390625 914" stroke-miterlimit="10"/></g><g transform="translate(-238,-230) scale(1,1)"><g><path fill="none" stroke="none"/><text fill="#000000" stroke="none" font-family="Roboto" font-size="14px" font-style="normal" font-weight="bold" text-decoration="none" x="881.7138671875" y="852.5">BookBorrowing</text></g></g><g transform="translate(-238,-230) scale(1,1)"><g><path fill="none" stroke="none"/><text fill="#000000" stroke="none" font-family="Roboto" font-size="14px" font-style="normal" font-weight="normal" text-decoration="none" x="869" y="876.5">-creationDate: date</text></g></g><g transform="translate(-238,-230) scale(1,1)"><g><path fill="none" stroke="none"/><text fill="#000000" stroke="none" font-family="Roboto" font-size="14px" font-style="normal" font-weight="normal" text-decoration="none" x="869" y="892.5">-dueDate: date</text></g></g><g transform="translate(-238,-230) scale(1,1)"><g><path fill="none" stroke="none"/><text fill="#000000" stroke="none" font-family="Roboto" font-size="14px" font-style="normal" font-weight="normal" text-decoration="none" x="869" y="908.5">-returnDate: date</text></g></g><g transform="translate(-238,-230) scale(1,1)"><g><path fill="none" stroke="none"/><text fill="#000000" stroke="none" font-family="Roboto" font-size="14px" font-style="normal" font-weight="normal" text-decoration="none" x="869" y="932.5">+getReturnDate()</text></g></g><g transform="translate(-238,-230) scale(1,1)"><g><path fill="none" stroke="none"/><text fill="#000000" stroke="none" font-family="Roboto" font-size="14px" font-style="normal" font-weight="normal" text-decoration="none" x="869" y="948.5">+getDueDate()</text></g></g><g transform="translate(-238,-230) scale(1,1)"><path fill="none" stroke="#000000" d="M 926 748 L 928 831" stroke-miterlimit="10"/></g><g transform="translate(-238,-230) scale(1,1)"><g><path fill="none" stroke="none"/><text fill="#000000" stroke="none" font-family="Roboto" font-size="14px" font-style="normal" font-weight="normal" text-decoration="none" x="910.5" y="775.5">1</text></g></g><g transform="translate(-238,-230) scale(1,1)"><g><path fill="none" stroke="none"/><text fill="#000000" stroke="none" font-family="Roboto" font-size="14px" font-style="normal" font-weight="normal" text-decoration="none" x="903.5" y="815.5">1..*</text></g></g><g transform="translate(-238,-230) scale(1,1)"><rect fill="#C0C0C0" stroke="none" x="1135" y="655" width="110.0009765625" height="93" opacity="0.2"/></g><g transform="translate(-238,-230) scale(1,1)"><rect fill="#fff5d8" stroke="none" x="1128" y="648" width="110.0009765625" height="93"/></g><g transform="translate(-238,-230) scale(1,1)"><path fill="none" stroke="#000000" d="M 1128 648 L 1238.0009765625 648 L 1238.0009765625 741 L 1128 741 L 1128 648 Z Z" stroke-miterlimit="10"/></g><g transform="translate(-238,-230) scale(1,1)"><path fill="none" stroke="#000000" d="M 1128 674 L 1238.0009765625 674" stroke-miterlimit="10"/></g><g transform="translate(-238,-230) scale(1,1)"><path fill="none" stroke="#000000" d="M 1128 732 L 1238.0009765625 732" stroke-miterlimit="10"/></g><g transform="translate(-238,-230) scale(1,1)"><g><path fill="none" stroke="none"/><text fill="#000000" stroke="none" font-family="Roboto" font-size="14px" font-style="normal" font-weight="bold" text-decoration="none" x="1168.38525390625" y="668.5">Card</text></g></g><g transform="translate(-238,-230) scale(1,1)"><g><path fill="none" stroke="none"/><text fill="#000000" stroke="none" font-family="Roboto" font-size="14px" font-style="normal" font-weight="normal" text-decoration="none" x="1133" y="694.5">-id: string</text></g></g><g transform="translate(-238,-230) scale(1,1)"><g><path fill="none" stroke="none"/><text fill="#000000" stroke="none" font-family="Roboto" font-size="14px" font-style="normal" font-weight="normal" text-decoration="none" x="1133" y="710.5">-status: bool</text></g></g><g transform="translate(-238,-230) scale(1,1)"><g><path fill="none" stroke="none"/><text fill="#000000" stroke="none" font-family="Roboto" font-size="14px" font-style="normal" font-weight="normal" text-decoration="none" x="1133" y="726.5">-barcode: string</text></g></g><g transform="translate(-238,-230) scale(1,1)"><path fill="none" stroke="#000000" d="M 1127 694 L 1004 693" stroke-miterlimit="10"/></g><g transform="translate(-238,-230) scale(1,1)"><path fill="#000000" stroke="none" d="M 1014.1965615974904 688.8732420002397 L 1004 693 L 1014.1281164163181 697.2919992844254 L 1025.9992729556004 693.1788558776879"/></g><g transform="translate(-238,-230) scale(1,1)"><path fill="none" stroke="#000000" d="M 1014.1965615974904 688.8732420002397 L 1004 693 L 1014.1281164163181 697.2919992844254 L 1025.9992729556004 693.1788558776879 L 1014.1965615974904 688.8732420002397" stroke-miterlimit="10"/></g><g transform="translate(-238,-230) scale(1,1)"><g><path fill="none" stroke="none"/><text fill="#000000" stroke="none" font-family="Roboto" font-size="14px" font-style="normal" font-weight="normal" text-decoration="none" x="1101.5" y="687.5">1</text></g></g><g transform="translate(-238,-230) scale(1,1)"><g><path fill="none" stroke="none"/><text fill="#000000" stroke="none" font-family="Roboto" font-size="14px" font-style="normal" font-weight="normal" text-decoration="none" x="1021.5" y="686.5">1</text></g></g><g transform="translate(-238,-230) scale(1,1)"><rect fill="#C0C0C0" stroke="none" x="871" y="1063" width="130.81640625" height="75" opacity="0.2"/></g><g transform="translate(-238,-230) scale(1,1)"><rect fill="#fff5d8" stroke="none" x="864" y="1056" width="130.81640625" height="75"/></g><g transform="translate(-238,-230) scale(1,1)"><path fill="none" stroke="#000000" d="M 864 1056 L 994.81640625 1056 L 994.81640625 1131 L 864 1131 L 864 1056 Z Z" stroke-miterlimit="10"/></g><g transform="translate(-238,-230) scale(1,1)"><path fill="none" stroke="#000000" d="M 864 1082 L 994.81640625 1082" stroke-miterlimit="10"/></g><g transform="translate(-238,-230) scale(1,1)"><path fill="none" stroke="#000000" d="M 864 1106 L 994.81640625 1106" stroke-miterlimit="10"/></g><g transform="translate(-238,-230) scale(1,1)"><g><path fill="none" stroke="none"/><text fill="#000000" stroke="none" font-family="Roboto" font-size="14px" font-style="normal" font-weight="bold" text-decoration="none" x="916.26953125" y="1076.5">Fine</text></g></g><g transform="translate(-238,-230) scale(1,1)"><g><path fill="none" stroke="none"/><text fill="#000000" stroke="none" font-family="Roboto" font-size="14px" font-style="normal" font-weight="normal" text-decoration="none" x="869" y="1100.5">-amount: float</text></g></g><g transform="translate(-238,-230) scale(1,1)"><g><path fill="none" stroke="none"/><text fill="#000000" stroke="none" font-family="Roboto" font-size="14px" font-style="normal" font-weight="normal" text-decoration="none" x="869" y="1124.5">+getAmount(): float</text></g></g><g transform="translate(-238,-230) scale(1,1)"><path fill="none" stroke="#000000" d="M 929 954 L 929 1055" stroke-miterlimit="10"/></g><g transform="translate(-238,-230) scale(1,1)"><g><path fill="none" stroke="none"/><text fill="#000000" stroke="none" font-family="Roboto" font-size="14px" font-style="normal" font-weight="normal" text-decoration="none" x="912.5" y="981.5">1</text></g></g><g transform="translate(-238,-230) scale(1,1)"><g><path fill="none" stroke="none"/><text fill="#000000" stroke="none" font-family="Roboto" font-size="14px" font-style="normal" font-weight="normal" text-decoration="none" x="905.5" y="1039.5">0..*</text></g></g><g transform="translate(-238,-230) scale(1,1)"><rect fill="#C0C0C0" stroke="none" x="535" y="967" width="163.232421875" height="107" opacity="0.2"/></g><g transform="translate(-238,-230) scale(1,1)"><rect fill="#fff5d8" stroke="none" x="528" y="960" width="163.232421875" height="107"/></g><g transform="translate(-238,-230) scale(1,1)"><path fill="none" stroke="#000000" d="M 528 960 L 691.232421875 960 L 691.232421875 1067 L 528 1067 L 528 960 Z Z" stroke-miterlimit="10"/></g><g transform="translate(-238,-230) scale(1,1)"><path fill="none" stroke="#000000" d="M 528 986 L 691.232421875 986" stroke-miterlimit="10"/></g><g transform="translate(-238,-230) scale(1,1)"><path fill="none" stroke="#000000" d="M 528 1042 L 691.232421875 1042" stroke-miterlimit="10"/></g><g transform="translate(-238,-230) scale(1,1)"><g><path fill="none" stroke="none"/><text fill="#000000" stroke="none" font-family="Roboto" font-size="14px" font-style="normal" font-weight="bold" text-decoration="none" x="573.4609375" y="980.5">Notification</text></g></g><g transform="translate(-238,-230) scale(1,1)"><g><path fill="none" stroke="none"/><text fill="#000000" stroke="none" font-family="Roboto" font-size="14px" font-style="normal" font-weight="normal" text-decoration="none" x="533" y="1004.5">-id: string</text></g></g><g transform="translate(-238,-230) scale(1,1)"><g><path fill="none" stroke="none"/><text fill="#000000" stroke="none" font-family="Roboto" font-size="14px" font-style="normal" font-weight="normal" text-decoration="none" x="533" y="1020.5">-creationDate: date</text></g></g><g transform="translate(-238,-230) scale(1,1)"><g><path fill="none" stroke="none"/><text fill="#000000" stroke="none" font-family="Roboto" font-size="14px" font-style="normal" font-weight="normal" text-decoration="none" x="533" y="1036.5">-content: string</text></g></g><g transform="translate(-238,-230) scale(1,1)"><g><path fill="none" stroke="none"/><text fill="#000000" stroke="none" font-family="Roboto" font-size="14px" font-style="normal" font-weight="normal" text-decoration="none" x="533" y="1060.5">+sendNotification(): bool</text></g></g><g transform="translate(-238,-230) scale(1,1)"><path fill="none" stroke="#000000" d="M 863 917 L 692 982" stroke-miterlimit="10"/></g><g transform="translate(-238,-230) scale(1,1)"><g><path fill="none" stroke="none"/><text fill="#000000" stroke="none" font-family="Roboto" font-size="14px" font-style="normal" font-weight="normal" text-decoration="none" x="834.5" y="919.5">1</text></g></g><g transform="translate(-238,-230) scale(1,1)"><g><path fill="none" stroke="none"/><text fill="#000000" stroke="none" font-family="Roboto" font-size="14px" font-style="normal" font-weight="normal" text-decoration="none" x="696.416015625" y="968.5">0..*</text></g></g></g></svg>